<svg width="21" height="23" viewBox="0 0 21 23" version="1.1" xmlns="http://www.w3.org/2000/svg" xmlns:xlink="http://www.w3.org/1999/xlink">
<title>Attachment</title>
<desc>Created using Figma</desc>
<g id="Canvas" transform="translate(-21446 -1483)">
<g id="Attachment">
<g id="Shape">
<use xlink:href="#path0_fill" transform="translate(21446 1483)" fill="#CCD1D9"/>
</g>
</g>
</g>
<defs>
<path id="path0_fill" d="M 17.1539 11.2996C 17.53 10.9251 18.1364 10.9251 18.5125 11.2996C 18.6925 11.4789 18.7938 11.723 18.7938 11.9777C 18.7938 12.2324 18.6925 12.4765 18.5125 12.6558L 9.83965 21.3146C 7.58334 23.5618 3.94449 23.5618 1.68818 21.3146C 0.607731 20.2384 0 18.7736 0 17.2456C 0 15.7175 0.607731 14.2527 1.68818 13.1766L 13.6204 1.26405C 15.3126 -0.421349 18.0417 -0.421349 19.734 1.26405C 20.5443 2.07116 21 3.16974 21 4.31577C 21 5.4618 20.5443 6.56039 19.734 7.3675L 10.1937 16.8866C 9.06558 18.0102 7.24613 18.0102 6.11798 16.8866C 5.57781 16.3485 5.27398 15.6161 5.27398 14.8521C 5.27398 14.088 5.57781 13.3557 6.11798 12.8176L 12.4592 6.49268C 12.8352 6.11821 13.4416 6.11821 13.8177 6.49268C 13.9977 6.67203 14.099 6.91613 14.099 7.17078C 14.099 7.42543 13.9977 7.66953 13.8177 7.84888L 7.47667 14.1739C 7.29659 14.3532 7.1953 14.5973 7.1953 14.852C 7.1953 15.1066 7.29659 15.3507 7.47667 15.5301C 7.85267 15.9046 8.45908 15.9046 8.83508 15.5301L 18.3753 6.01106C 18.8256 5.56265 19.0788 4.95225 19.0788 4.31549C 19.0788 3.67872 18.8256 3.06832 18.3753 2.61991C 17.4352 1.6835 15.9189 1.6835 14.9787 2.61991L 3.04682 14.533C 2.3265 15.2504 1.92134 16.227 1.92134 17.2457C 1.92134 18.2645 2.3265 19.2411 3.04682 19.9585C 4.55109 21.4568 6.97711 21.4568 8.48139 19.9585L 17.1539 11.2996Z"/>
</defs>
</svg>
