<svg width="25" height="24" viewBox="0 0 25 24" fill="none" xmlns="http://www.w3.org/2000/svg">
<path d="M11.264 1.1612L0.891984 11.5319C0.763984 11.6585 0.699984 11.8279 0.69865 11.9999C0.69465 12.1799 0.763984 12.3465 0.891984 12.4759L11.264 22.8465C11.5173 23.1025 11.9467 23.1039 12.208 22.8412L13.1427 21.9092C13.416 21.6332 13.408 21.2212 13.1467 20.9612L5.52132 13.3332H24.3373C24.6987 13.3332 25 13.0305 25 12.6612V11.3385C25 10.9532 24.7027 10.6665 24.3373 10.6665H5.52665L13.1467 3.04653C13.4027 2.79187 13.4053 2.36253 13.1427 2.09853L12.208 1.16653C12.072 1.02787 11.9013 0.963867 11.7293 0.963867C11.56 0.963867 11.392 1.02787 11.264 1.1612Z" fill="#5AB9AC"/>
</svg>
