<svg width="19" height="18" viewBox="0 0 19 18" fill="none" xmlns="http://www.w3.org/2000/svg">
<path d="M11.076 0.870656L18.855 8.64866C18.951 8.74366 18.999 8.87066 19 8.99966C19.003 9.13466 18.951 9.25966 18.855 9.35666L11.076 17.1347C10.886 17.3267 10.564 17.3277 10.368 17.1307L9.667 16.4317C9.462 16.2247 9.468 15.9157 9.664 15.7207L15.383 9.99966H1.271C1 9.99966 0.774002 9.77266 0.774002 9.49566V8.50366C0.774002 8.21466 0.997002 7.99966 1.271 7.99966H15.379L9.664 2.28466C9.472 2.09366 9.47 1.77166 9.667 1.57366L10.368 0.874656C10.47 0.770656 10.598 0.722656 10.727 0.722656C10.854 0.722656 10.98 0.770656 11.076 0.870656Z" fill="#5AB9AC"/>
</svg>
