<svg width="32" height="12" viewBox="0 0 32 12" fill="none" xmlns="http://www.w3.org/2000/svg">
<g clip-path="url(#clip0)">
<path d="M8.37601 6.81065C8.37601 6.81065 8.66342 10.5056 16.0837 11.6538C23.504 12.802 31.4991 11.1445 32.0021 6.81065C32.505 2.47684 24.2748 0.439429 19.5522 0.059573C14.8296 -0.320283 6.93245 0.948781 8.37601 6.81065Z" fill="#D6AC45"/>
<path d="M0.516012 8.90071C2.63398 7.91474 4.7985 7.11302 6.9957 6.50071C9.17366 5.89253 11.3764 5.4515 13.593 5.17985C15.8019 4.88268 18.0237 4.78749 20.2425 4.89495C22.4581 4.99808 24.6641 5.33294 26.8398 5.89639C24.6538 5.50409 22.4479 5.33956 20.2425 5.40431C18.0544 5.45522 15.8717 5.70908 13.7105 6.16402C11.5458 6.60918 9.40196 7.21736 7.28964 7.9856C5.19073 8.7411 3.13104 9.67543 1.12348 10.7827C1.03041 10.8354 0.930399 10.8634 0.829149 10.865C0.7279 10.8667 0.627399 10.8419 0.533384 10.7922C0.439369 10.7425 0.353683 10.6688 0.281216 10.5754C0.208748 10.4819 0.150919 10.3705 0.111032 10.2475C0.071146 10.1245 0.0499802 9.99228 0.0487461 9.85846C0.0475121 9.72464 0.0662308 9.59181 0.103836 9.46755C0.141443 9.3433 0.197199 9.23005 0.26792 9.13427C0.338642 9.03849 0.422943 8.96206 0.516012 8.90934V8.90071Z" fill="#7A0000"/>
</g>
<defs>
<clipPath id="clip0">
<rect width="12" height="32" fill="white" transform="translate(32) rotate(90)"/>
</clipPath>
</defs>
</svg>
