<svg width="40" height="16" viewBox="0 0 40 16" fill="none" xmlns="http://www.w3.org/2000/svg">
<g clip-path="url(#clip0)">
<path d="M28.5724 8.18945C28.5724 8.18945 30.3739 1.91433 25.8911 0.7064C21.4082 -0.501534 1.48678 -0.0920647 0.146119 1.41273C-1.19455 2.91753 7.04845 12.2841 13.7622 14.7205C20.4761 17.1568 27.6402 16.819 28.5724 8.18945Z" fill="#FEA800"/>
<path d="M39.2354 6.56175C36.6282 7.41966 33.9512 8.06005 31.2333 8.47601C28.5912 8.90072 25.9192 9.12319 23.2417 9.1414C20.5919 9.17817 17.9444 8.97254 15.3339 8.5272C12.7213 8.08258 10.1626 7.37592 7.69836 6.41843C10.2107 7.18187 12.7979 7.68621 15.4177 7.92323C18.0304 8.16368 20.6604 8.16368 23.2731 7.92323C25.9201 7.70711 28.5463 7.29302 31.1286 6.68459C33.7535 6.07403 36.3244 5.25932 38.8165 4.24825C39.3192 4.04351 39.8115 4.39156 39.9372 5.02624C40.0079 5.31677 39.9797 5.62194 39.8568 5.89538C39.734 6.16882 39.5231 6.3956 39.2564 6.54127L39.2354 6.56175Z" fill="#7A0000"/>
</g>
<defs>
<clipPath id="clip0">
<rect width="40" height="16" fill="white"/>
</clipPath>
</defs>
</svg>
