<svg width="48" height="48" viewBox="0 0 48 48" fill="none" xmlns="http://www.w3.org/2000/svg">
<g clip-path="url(#clip0)">
<path d="M9.60001 34.2949C9.60001 34.2949 9.96761 40.2713 13.6709 43.9038L14.8861 41.9852C14.8861 41.9852 19.443 46.9192 24.5074 47.9872L23.2436 44.0381C23.2436 44.0381 33.8461 46.0367 39.436 43.0181C39.436 43.0181 34.2714 35.4748 30.556 33.4475C30.556 33.4475 40.2015 32.1684 43.6922 28.4751L40.9246 27.3208C44.8865 23.0622 47.3777 17.5285 48 11.6043C48 11.6043 34.8365 14.6357 33.3995 14.2711C31.9625 13.9066 32.16 10.7537 32.16 10.7537C32.16 10.7537 27.0744 12.6723 24.3281 16.7269C24.3281 16.7269 26.2086 6.66712 23.5382 0.0128021C23.5382 0.0128021 11.4562 5.65347 9.56355 16.4456L6.36153 12.7139C6.36153 12.7139 3.1109 17.8717 7.37925 26.8219L2.39697 25.7731C2.39697 25.7731 5.23444 31.8583 9.60001 34.2949Z" fill="#E55303"/>
<path d="M14.4912 32.4754C14.5575 32.666 14.6399 32.8501 14.7372 33.0254C17.1919 37.5213 30.0456 41.4128 38.4031 43.5201C38.7631 43.3784 39.115 43.215 39.4572 43.0308L39.4238 42.9861C30.9175 40.8756 16.7302 36.7283 15.1626 32.2164C13.3064 26.8987 20.8557 7.80548 23.839 0.83139C23.7448 0.549997 23.6476 0.271801 23.5352 0L23.4623 0.0351742C20.5185 6.81101 12.477 26.7068 14.4912 32.4754Z" fill="#ED6724"/>
<path d="M24.5286 48L24.4739 47.8305C20.962 43.8079 15.8218 37.3454 12.5256 30.6975C9.56964 24.7403 7.77419 18.0252 6.75344 13.1743L6.36154 12.7203C6.24717 12.9197 6.14567 13.1269 6.05774 13.3406C7.08457 18.2266 8.90128 25.0153 11.8876 31.0396C12.1914 31.6472 12.5074 32.2526 12.8355 32.8559C15.9585 38.5701 20.2147 43.9933 23.3924 47.6866C23.7659 47.8113 24.1451 47.9159 24.5286 48Z" fill="#ED6724"/>
<path d="M39.6973 19.3906C40.9641 20.1452 43.3428 20.3946 45.5636 20.4426C45.679 20.1964 45.7914 19.947 45.9038 19.6912C43.6831 19.6656 41.2557 19.4513 40.0527 18.7319C39.1413 18.1915 39.4451 15.9179 40.2289 13.2767L39.4299 13.4333C38.6856 16.097 38.4091 18.6263 39.6973 19.3906Z" fill="#ED6724"/>
<path d="M28.0587 25.2871C28.1183 25.5394 28.2113 25.7816 28.3352 26.0065C29.9635 28.9867 36.9327 29.5239 42.5742 29.4728C42.8952 29.2393 43.1998 28.9817 43.4856 28.7021C37.1058 28.846 29.4835 28.2577 28.7484 25.108C28.0982 22.3164 30.0486 16.5127 32.1479 11.438C32.1479 11.0287 32.1479 10.7409 32.1479 10.7409C32.1479 10.7409 31.9139 10.8305 31.5403 11.0031C29.3863 16.2153 27.357 22.2685 28.0587 25.2871Z" fill="#ED6724"/>
<path d="M0.631977 35.8137C4.57056 35.067 8.45299 34.0229 12.2492 32.6896C16.0771 31.3839 19.8302 29.8464 23.4897 28.085C27.161 26.3386 30.7326 24.3687 34.1864 22.1853C37.6519 20.0059 40.9989 17.6242 44.2117 15.0514C41.07 17.7288 37.7879 20.2184 34.3808 22.5083C30.9701 24.8126 27.435 26.9063 23.7935 28.7789C20.156 30.6686 16.4182 32.3362 12.5986 33.7736C8.77217 35.251 4.84895 36.434 0.859825 37.3134C0.767467 37.333 0.67236 37.3331 0.579934 37.314C0.487507 37.2948 0.399572 37.2567 0.321147 37.2018C0.162762 37.0908 0.052734 36.9182 0.015268 36.7219C-0.00328327 36.6247 -0.00346175 36.5245 0.0147428 36.4273C0.0329473 36.33 0.0691783 36.2374 0.121367 36.1549C0.173556 36.0723 0.240681 36.0014 0.318909 35.9462C0.397137 35.8909 0.484936 35.8524 0.577293 35.8329H0.607673L0.631977 35.8137Z" fill="#7A0000"/>
</g>
<defs>
<clipPath id="clip0">
<rect width="48" height="48" fill="white"/>
</clipPath>
</defs>
</svg>
