<svg width="32" height="32" viewBox="0 0 32 32" fill="none" xmlns="http://www.w3.org/2000/svg">
<path d="M8.95639 15.6786C8.95639 15.6786 8.56684 4.79291 12.4833 1.31472C16.3998 -2.16347 24.1129 1.27222 25.1377 11.5728C26.1625 21.8733 30.7951 28.1759 31.9997 28.4995C31.9997 28.4995 19.3184 33.6416 10.5805 31.4612C1.84262 29.2808 -2.06187 18.977 1.07251 15.9303C4.20688 12.8836 8.95639 15.6786 8.95639 15.6786Z" fill="#F78F39"/>
<path d="M11.9622 20.722C14.2725 10.817 19.031 6.24374 22.6778 4.14179C22.8156 4.351 22.9505 4.56348 23.0793 4.79558C19.5524 6.79292 14.9018 11.2126 12.6484 20.9116C11.4498 26.0145 9.31622 28.7081 7.25461 30.1301C7.01288 29.9928 6.77216 29.8534 6.53244 29.7117C8.56709 28.4303 10.7635 25.8707 11.9622 20.722Z" fill="#FEA800"/>
<path d="M28.3023 26.7696C28.6563 26.2312 28.9576 25.6538 29.2012 25.0469C29.354 25.3182 29.5009 25.5765 29.6567 25.8184C29.4285 26.292 29.1764 26.7515 28.9016 27.1946C28.2303 28.3093 27.8318 29.0252 28.1584 29.7313L28.1914 29.8L27.5022 30.0059C27.0257 28.9076 27.67 27.8288 28.3023 26.7696Z" fill="#FEA800"/>
<path d="M13.3316 0.702822C13.6191 0.537729 13.9201 0.402031 14.2305 0.297466C13.6073 2.0006 12.999 4.79558 12.4056 7.52517C11.4827 11.7748 10.6077 15.7891 9.505 17.0052C9.25329 17.2896 4.27305 22.7521 0.916933 23.043C0.809057 22.788 0.707175 22.533 0.617279 22.2813C2.85269 22.3107 6.77816 18.9241 8.9896 16.4724C9.95748 15.4001 10.8894 11.121 11.7075 7.34538C12.2528 4.85115 12.7742 2.44518 13.3316 0.702822Z" fill="#FEA800"/>
<path d="M17.3949 18.7084C16.3701 22.4121 14.1616 25.8838 12.3847 28.6689C11.7404 29.6823 11.1381 30.6303 10.6587 31.477H10.5808C10.365 31.4247 10.1523 31.3626 9.9425 31.2972C10.4519 30.3688 11.1022 29.3358 11.8034 28.2472C13.5533 25.5046 15.7348 22.0852 16.7177 18.5024L16.7896 18.2507C18.2459 13.3472 22.1834 10.6896 24.8802 9.77751C24.9282 10.0227 24.9701 10.2744 25.0091 10.5294C22.474 11.4055 18.7014 14.0206 17.3949 18.7084Z" fill="#FEA800"/>
<path d="M10.3201 18.1722C10.9733 16.7764 11.6985 14.8444 12.4626 12.798C14.2186 8.09398 16.1573 2.90612 18.4826 0.516497C18.7203 0.612509 18.9533 0.721615 19.1808 0.843393C16.8825 3.00092 14.8269 8.49607 13.1158 13.0824C12.3457 15.1452 11.6176 17.0935 10.9493 18.5187C9.51699 21.5752 5.90916 24.5304 3.18831 26.7271C3.0265 26.5343 2.87068 26.3381 2.72385 26.142C5.39376 23.9943 8.95364 21.0882 10.3201 18.1722Z" fill="#FEA800"/>
<path d="M23.7206 29.8032C23.5647 29.0318 23.7805 28.2276 24.3648 27.4136C24.3918 27.3744 26.5733 24.3833 28.2603 23.2588C28.3712 23.4909 28.4791 23.7197 28.5869 23.9354C27.706 24.5892 26.2466 26.0407 24.9222 27.8876C24.4757 28.5087 24.3049 29.0971 24.4128 29.6333C24.5084 30.0431 24.7177 30.4107 25.0121 30.6859L24.209 30.8787C23.9709 30.5671 23.8036 30.1987 23.7206 29.8032Z" fill="#FEA800"/>
<path d="M23.0913 24.6056C21.8657 24.9325 20.6941 25.2594 19.9989 25.7334C19.5254 26.0603 19.3067 26.6945 19.3486 27.6653C19.4737 29.0381 19.8442 30.3709 20.4394 31.5881L19.6992 31.7025C19.1198 30.4529 18.761 29.0956 18.6414 27.7013C18.5725 26.1126 19.1449 25.3934 19.6363 25.0861C20.4364 24.5631 21.641 24.2264 22.9325 23.8733C25.1589 23.2522 26.8939 22.6769 27.5531 21.6079C27.661 21.8793 27.7719 22.144 27.8828 22.4023C26.8669 23.5497 24.9042 24.1022 23.0913 24.6056Z" fill="#FEA800"/>
<path d="M25.8541 17.7603C24.0772 17.2602 21.7429 18.388 20.1817 20.5063C18.5036 22.7782 18.198 24.8606 17.8504 27.2731C17.6549 28.8677 17.3208 30.4385 16.8525 31.964L16.0974 32C16.6031 30.432 16.9566 28.8104 17.1522 27.1619C17.5028 24.7461 17.8324 22.4644 19.6303 20.0323C21.4282 17.6002 23.9603 16.4364 26.0309 17.0216L26.0699 17.0281C26.1478 17.355 26.2317 17.6427 26.3156 17.9434C26.167 17.8676 26.0126 17.8064 25.8541 17.7603Z" fill="#FEA800"/>
<path d="M2.02265 2.20657C2.98002 5.49053 4.25472 8.65416 5.82525 11.6441C7.3698 14.6345 9.24905 17.4038 11.4198 19.8885C13.5939 22.3691 16.1691 24.3905 19.016 25.8511C21.8633 27.2678 24.954 28.0088 28.0835 28.0249C24.985 27.8815 21.9495 27.0224 19.1778 25.5046C16.4378 23.9606 13.9825 21.8782 11.9352 19.3621C9.9002 16.8465 8.16077 14.0639 6.75718 11.0786C5.33956 8.12683 4.21065 5.02055 3.38907 1.81102V1.77506C3.34019 1.57739 3.22134 1.40899 3.05865 1.30692C2.89596 1.20485 2.70277 1.17746 2.52157 1.23078C2.34037 1.2841 2.18601 1.41376 2.09245 1.59123C1.99888 1.76871 1.97377 1.97947 2.02265 2.17714C2.02222 2.18694 2.02222 2.19677 2.02265 2.20657Z" fill="#7A0000"/>
</svg>
