<svg width="320" height="106" viewBox="0 0 320 106" fill="none" xmlns="http://www.w3.org/2000/svg">
<mask id="mask0" mask-type="alpha" maskUnits="userSpaceOnUse" x="0" y="0" width="63" height="64">
<path fill-rule="evenodd" clip-rule="evenodd" d="M62.1614 63.7663H0V0.0920372H62.1614V63.7663Z" fill="white"/>
</mask>
<g mask="url(#mask0)">
<path fill-rule="evenodd" clip-rule="evenodd" d="M27.1958 11.1475C30.3454 11.1475 32.832 11.8053 34.4959 13.0687C36.0562 14.2546 36.9076 16.0173 36.9076 18.3105C36.9076 20.0119 36.4452 21.4501 35.5764 22.581C34.6852 23.7421 33.3542 24.6096 31.6453 25.1376C30.7443 25.4161 29.9952 25.9604 29.473 26.6708C28.9495 27.3809 28.6527 28.2549 28.6527 29.1962V32.3357V32.3944V33.0223C28.6527 34.0286 28.9968 34.9586 29.5875 35.6926C30.1783 36.4265 31.0146 36.9609 31.998 37.1743C34.3799 37.6911 36.2346 38.62 37.4747 39.9032C38.6588 41.1267 39.2919 42.7033 39.2919 44.5746C39.2919 47.16 38.2324 49.1585 36.2868 50.5105C34.2054 51.956 31.1107 52.7114 27.1958 52.7114H25.0819C24.3989 52.7114 23.7794 52.433 23.3333 51.9823C22.8846 51.5329 22.6065 50.9125 22.6065 50.2308V13.6279C22.6065 12.9463 22.8846 12.3259 23.3333 11.8727C23.7794 11.4258 24.3989 11.1475 25.0819 11.1475H27.1958ZM39.6346 62.0565C41.8244 61.2962 43.7513 60.2888 45.3854 59.058C49.4834 55.967 51.7419 51.4892 51.7419 45.9029C51.7419 42.0091 50.7411 39.0182 49.3289 36.7374C47.2487 33.3757 44.286 31.5842 42.3068 30.7004C41.8457 30.4944 41.4767 30.1785 41.225 29.7903C41.0405 29.5045 40.9171 29.1748 40.866 28.8154C40.9246 28.4059 41.0804 28.0302 41.311 27.7168L41.3134 27.7143C41.6164 27.3036 42.0539 26.9877 42.5836 26.8243C44.6474 26.1863 46.2752 25.1129 47.3908 23.6559C48.5013 22.2079 49.0933 20.4077 49.0933 18.3105C49.0933 15.4343 47.994 13.1972 45.9774 11.6655C43.9969 10.1612 41.149 9.37854 37.6155 9.37854H25.0819C23.9165 9.37854 22.8558 9.85666 22.0843 10.6244C21.3165 11.3946 20.8392 12.457 20.8392 13.6279V50.2308C20.8392 51.1559 21.1371 52.0135 21.6419 52.7114H12.1869V4.34143C12.1869 3.65983 12.4648 3.0394 12.9135 2.58999C13.3622 2.14059 13.9817 1.86096 14.6622 1.86096H38.1452C44.3696 1.86096 49.3862 3.26535 52.8213 5.82697C56.1616 8.31869 58.0112 11.9402 58.0112 16.4529C58.0112 18.5602 57.6149 20.4889 56.8733 22.1829C56.1216 23.8993 55.0123 25.3825 53.5977 26.5732C53.0656 27.0215 52.6668 27.5571 52.4124 28.1537C52.1569 28.7554 52.0473 29.4134 52.0934 30.1049C52.1394 30.7991 52.3352 31.4369 52.6668 31.9961C53.0007 32.5592 53.4668 33.0385 54.0514 33.4093C56.0892 34.7064 57.6796 36.4528 58.754 38.56C59.8259 40.6609 60.3943 43.1377 60.3943 45.9029C60.3943 50.905 58.3887 54.9022 54.7482 57.6474C51.2171 60.3101 46.1394 61.828 39.8427 61.9841L39.6346 62.0565ZM28.7515 63.7643C28.9422 63.763 29.133 63.7593 29.3223 63.7554C29.133 63.7606 28.9422 63.763 28.7515 63.7643ZM14.6624 0.0920372H4.24267C3.07855 0.0920372 2.01788 0.568908 1.24887 1.33914L1.24513 1.34289C0.477363 2.11312 0 3.17422 0 4.34143V56.9607V59.516C0 60.6833 0.477363 61.7458 1.24513 62.516L1.24887 62.5197C2.01788 63.2886 3.07855 63.7668 4.24391 63.7668H14.0629H28.3426H38.7623C45.9451 63.7668 51.7646 62.1039 55.804 59.058C59.9022 55.967 62.1618 51.4892 62.1618 45.9029C62.1618 42.8631 61.5238 40.1155 60.321 37.7572C59.0983 35.3617 57.2985 33.3806 54.9964 31.9162C54.6487 31.6953 54.3745 31.4169 54.185 31.0973C53.9931 30.7741 53.8796 30.4007 53.8523 29.9875C53.8248 29.5756 53.8884 29.1899 54.0341 28.8454C54.1826 28.4983 54.4168 28.185 54.7297 27.9216C56.355 26.5534 57.6275 24.8532 58.4875 22.8883C59.3288 20.9682 59.7775 18.8011 59.7775 16.4529C59.7775 11.3509 57.6725 7.24635 53.8697 4.41008C50.1293 1.62127 44.7537 0.0920372 38.1454 0.0920372H14.6624Z" fill="#32BCA9"/>
</g>
<path fill-rule="evenodd" clip-rule="evenodd" d="M105.738 1.3175H110.121H115.031C115.567 1.3175 116.067 1.46893 116.49 1.74323C116.91 2.01504 117.249 2.40974 117.466 2.89877L142.736 60.0627C142.92 60.4796 142.994 60.9128 142.959 61.3373C142.923 61.7668 142.777 62.1839 142.527 62.5637C142.277 62.9435 141.95 63.2414 141.571 63.4461C141.186 63.6509 140.757 63.7589 140.302 63.7589H132.419H127.18H118.928C118.387 63.7589 117.88 63.6037 117.455 63.322C117.027 63.0403 116.685 62.6344 116.475 62.1367L113.148 54.2551L112.951 53.7898L112.678 53.1455L113.148 54.2551C113.073 54.1137 112.969 53.9995 112.844 53.9212C112.713 53.8419 112.558 53.7947 112.386 53.7898H94.7575C94.5773 53.7898 94.4122 53.837 94.2784 53.9212C94.1495 53.9995 94.0458 54.1137 93.9719 54.2551L90.6441 62.1367C90.4339 62.6344 90.0924 63.039 89.6657 63.322C89.2392 63.6037 88.7324 63.7589 88.1907 63.7589H79.9386C79.7947 63.7589 79.6521 63.7477 79.5145 63.7266V63.7589H74.8592H66.8173C66.362 63.7589 65.9328 63.6509 65.5513 63.4461C65.1684 63.2414 64.8419 62.9435 64.5917 62.5637C64.3415 62.1839 64.1963 61.7668 64.1613 61.3373C64.125 60.9128 64.1988 60.4796 64.3828 60.0627L89.6532 2.89877C89.8697 2.40974 90.2086 2.01504 90.6291 1.74323C91.0532 1.46893 91.5536 1.3175 92.0877 1.3175H96.9982H101.91H105.738ZM100.752 38.229L100.834 37.9783L103.559 31.5676L106.285 37.9783L106.368 38.229L107.555 41.0367C107.576 41.1384 107.58 41.2326 107.566 41.322C107.549 41.4287 107.5 41.5443 107.415 41.6708C107.335 41.7913 107.223 41.893 107.092 41.9601C106.973 42.0232 106.836 42.0605 106.689 42.0631H100.444C100.293 42.0631 100.15 42.0245 100.023 41.9601C99.8959 41.8917 99.7859 41.7913 99.7045 41.6708C99.6195 41.5443 99.5707 41.4287 99.5531 41.322C99.5394 41.2326 99.543 41.1384 99.5643 41.0367L100.752 38.229ZM110.121 3.07626H105.209C105.024 3.07626 104.856 3.12591 104.72 3.21403C104.581 3.30339 104.468 3.43621 104.396 3.60005L79.1253 60.7639C79.0627 60.9066 79.0365 61.0532 79.0477 61.1935C79.059 61.3323 79.109 61.4702 79.1953 61.6017C79.2817 61.7332 79.3905 61.8339 79.5143 61.8996C79.6345 61.9654 79.7783 62.0001 79.9385 62.0001H88.1906C88.3795 62.0001 88.5509 61.9492 88.6886 61.8587C88.8249 61.7681 88.9375 61.6328 89.0088 61.4627C90.0222 59.0635 91.2345 55.7706 92.3542 53.5477C92.5743 53.0798 92.9134 52.7013 93.3311 52.4394C93.7454 52.1749 94.2357 52.0309 94.7575 52.0309H112.229L108.738 43.8217H104.591H100.444C99.9958 43.8217 99.5665 43.7064 99.1887 43.5066C98.8009 43.2968 98.468 42.9977 98.2292 42.6401C98.004 42.3026 97.865 41.9551 97.8075 41.5975C97.7488 41.2389 97.7737 40.8839 97.8676 40.5289L97.9064 40.411L99.1037 37.58C99.1361 37.4793 99.1662 37.3987 99.2063 37.2981L107.356 18.1281C107.567 17.6291 107.909 17.2257 108.333 16.9477C108.758 16.6684 109.266 16.5145 109.809 16.5158C109.859 16.5133 109.939 16.5183 110.042 16.527V16.5232L110.134 16.5332L110.431 16.5133C110.974 16.5145 111.482 16.6684 111.907 16.9477C112.333 17.2257 112.673 17.6291 112.884 18.1281L121.034 37.2981L121.106 37.478L121.139 37.5849L122.003 39.6292L128.185 54.2551L127.878 53.5292L127.886 53.5477L131.231 61.4627C131.303 61.6328 131.415 61.7681 131.551 61.8587C131.685 61.9455 131.85 61.9964 132.032 62.0001H132.418H140.302C140.462 62.0001 140.605 61.9654 140.727 61.9009C140.849 61.8339 140.958 61.7332 141.045 61.6017C141.131 61.4702 141.181 61.3323 141.192 61.1971C141.204 61.0532 141.178 60.9066 141.116 60.7639L115.844 3.60005C115.773 3.43621 115.659 3.30339 115.52 3.21403C115.384 3.12467 115.216 3.07626 115.031 3.07626H110.121Z" fill="#32BCA9"/>
<mask id="mask1" mask-type="alpha" maskUnits="userSpaceOnUse" x="139" y="0" width="70" height="64">
<path fill-rule="evenodd" clip-rule="evenodd" d="M208.415 63.6735V0H139.758V63.6735H208.415Z" fill="white"/>
</mask>
<g mask="url(#mask1)">
<path fill-rule="evenodd" clip-rule="evenodd" d="M195.839 50.4646C196.805 51.5444 196.726 53.2098 195.656 54.1921C192.452 57.1383 188.674 59.5327 184.638 61.1755L182.78 61.8734C183.064 61.8846 183.35 61.8934 183.638 61.8996C188.001 61.8471 191.323 61.3914 195.878 59.5377C199.731 57.9697 203.329 55.6915 206.372 52.8926C206.742 52.5132 206.741 51.9889 206.432 51.6467L201.895 46.5736C201.503 46.1354 200.685 46.2876 199.776 46.2876H192.104L195.839 50.4646ZM169.725 46.5523C165.894 42.7398 163.56 37.4419 163.56 31.4885C163.56 25.5738 165.9 20.292 169.739 16.4882C173.567 12.6932 178.887 10.3763 184.856 10.3763C187.647 10.3763 190.472 11.008 193.145 12.1602C195.857 13.3274 198.413 15.0339 200.621 17.1573C200.717 17.2497 200.821 17.3159 200.928 17.3546C201.034 17.3933 201.158 17.4083 201.292 17.3995C201.424 17.3908 201.542 17.3596 201.643 17.3072C201.745 17.2547 201.838 17.1748 201.922 17.0675L206.447 11.3625C206.592 11.1802 206.654 10.9543 206.636 10.7358C206.619 10.5186 206.522 10.3076 206.352 10.1516C203.48 7.54005 200.013 5.43409 196.27 3.98475C192.577 2.55538 188.612 1.76892 184.68 1.76892C175.83 1.76892 168.001 5.01713 162.396 10.3863C156.809 15.7355 153.422 23.2006 153.422 31.662C153.467 37.0573 155.596 41.8497 159.065 45.3001C162.573 48.7919 167.459 50.9191 172.954 50.9191C173.869 50.9191 174.794 50.8491 175.718 50.7131C173.47 49.6782 171.448 48.265 169.725 46.5523ZM194.646 44.5187H196.454H199.776H201.06C201.176 44.5112 201.293 44.5112 201.408 44.5187C202.074 44.5624 202.725 44.857 203.204 45.3914L207.74 50.4646C208.223 51.0052 208.445 51.6917 208.412 52.3659C208.38 53.0388 208.092 53.7016 207.558 54.1921C204.353 57.1383 200.575 59.5327 196.539 61.1755C192.735 62.7235 188.696 63.6111 184.68 63.6709V63.6735H172.78V63.6709C172.636 63.6722 172.49 63.6735 172.346 63.6735C163.154 63.6735 155.005 60.1955 149.155 54.4518C143.308 48.7107 139.758 40.7112 139.758 31.662C139.758 22.6987 143.354 14.7842 149.283 9.10673C155.208 3.43172 163.463 0 172.78 0H184.68C188.819 0 193.002 0.830155 196.903 2.34065C200.843 3.8649 204.496 6.08697 207.528 8.84583C208.048 9.31771 208.339 9.94812 208.391 10.5973C208.443 11.2452 208.258 11.913 207.824 12.4611L203.299 18.1673C203.065 18.4632 202.783 18.6979 202.461 18.8676C202.141 19.0375 201.788 19.1372 201.409 19.1622H201.033H189.509C189.13 19.1871 188.767 19.1372 188.428 19.0136C188.088 18.89 187.776 18.694 187.502 18.4294C185.45 16.457 183.073 14.8716 180.552 13.7856C179.943 13.5222 179.325 13.2875 178.7 13.0852C175.733 14.0277 173.098 15.6381 170.971 17.7466C167.462 21.2233 165.322 26.0606 165.322 31.4885C165.322 36.9537 167.459 41.8122 170.965 45.3001C173.122 47.4474 175.8 49.0776 178.82 50.0152C179.404 49.838 179.985 49.6358 180.558 49.411C183.084 48.4198 185.501 46.968 187.619 45.1492C188.164 44.6823 188.846 44.475 189.507 44.5187H193.538H194.646Z" fill="#32BCA9"/>
</g>
<path fill-rule="evenodd" clip-rule="evenodd" d="M4.01575 90.8961H8.84422C9.4045 90.8961 9.9083 90.819 10.3542 90.6662C10.7911 90.5165 11.1804 90.2911 11.5178 89.9917C11.8462 89.6953 12.0944 89.3428 12.2594 88.9345C12.4258 88.5201 12.5105 88.0391 12.5105 87.4947C12.5105 86.3165 12.1539 85.4438 11.4405 84.8767C11.0764 84.5878 10.6276 84.367 10.0941 84.2203C9.54567 84.066 8.90516 83.9904 8.17398 83.9904H4.01575V90.8961ZM4.01575 94.2961V102.259H9.20684C9.89642 102.259 10.5057 102.173 11.0363 102.002C11.5549 101.834 11.9993 101.584 12.3679 101.256C12.7275 100.933 13.001 100.538 13.1823 100.075C13.3666 99.6061 13.4602 99.0587 13.4602 98.4371C13.4602 97.7671 13.3814 97.1757 13.2224 96.6615C13.0693 96.1593 12.8375 95.7268 12.5298 95.3668C12.2326 95.0144 11.8522 94.7498 11.3915 94.5713C10.9129 94.3883 10.3423 94.2961 9.68241 94.2961H4.01575ZM28.0834 89.8934C27.6019 89.8934 27.1576 89.9962 26.7518 90.1974C26.3387 90.4016 25.9598 90.7116 25.6136 91.1245C25.2613 91.554 24.973 92.038 24.756 92.5749C24.5762 93.0135 24.4409 93.4899 24.3518 94.0011H31.7111V93.9785C31.7111 93.378 31.634 92.832 31.4793 92.342C31.3248 91.8565 31.0944 91.4179 30.7883 91.0277C30.4895 90.6526 30.1211 90.3713 29.6795 90.1823C29.2279 89.9902 28.6958 89.8934 28.0834 89.8934ZM28.5697 105.999C27.2872 105.999 26.1296 105.78 25.0997 105.341C24.0653 104.9 23.1617 104.237 22.3919 103.355C21.6265 102.484 21.0544 101.478 20.6739 100.343C20.2949 99.2159 20.1048 97.9621 20.1048 96.5889V95.8538C20.1048 94.5259 20.2995 93.3054 20.6902 92.1953C21.0827 91.0806 21.6727 90.0764 22.4588 89.1841C23.2449 88.2917 24.1055 87.6202 25.0417 87.1725C25.9853 86.7203 27.0004 86.495 28.0838 86.495C29.3247 86.495 30.42 86.687 31.3711 87.0727C32.3356 87.4629 33.1456 88.0513 33.7996 88.8317C34.4446 89.6045 34.929 90.5074 35.2499 91.5359C35.5679 92.5537 35.727 93.6926 35.727 94.9494V97.401H24.199C24.2347 98.0952 24.3403 98.7365 24.517 99.3204C24.7177 99.9811 25.0119 100.573 25.3984 101.094C25.7758 101.597 26.2262 101.973 26.7478 102.223C27.2724 102.474 27.8816 102.599 28.5697 102.599C29.6176 102.599 30.5285 102.449 31.3088 102.149C31.6952 102.002 32.0563 101.825 32.3921 101.618C32.7295 101.412 33.0385 101.178 33.318 100.919L33.6733 100.591L35.3363 103.419L35.1192 103.64C34.7847 103.982 34.394 104.295 33.9497 104.578C33.5112 104.856 33.0222 105.105 32.4843 105.326C31.9434 105.55 31.34 105.719 30.6801 105.831C30.0276 105.943 29.3247 105.999 28.5697 105.999ZM45.8148 89.8934C45.3333 89.8934 44.8888 89.9962 44.4832 90.1974C44.0701 90.4016 43.691 90.7116 43.3448 91.1245C42.9925 91.554 42.7042 92.038 42.4857 92.5749C42.3074 93.0135 42.1723 93.4899 42.083 94.0011H49.4425V93.9785C49.4425 93.378 49.3637 92.832 49.2106 92.342C49.0559 91.8565 48.8257 91.4179 48.518 91.0277C48.2209 90.6526 47.8523 90.3713 47.4109 90.1823C46.9591 89.9902 46.427 89.8934 45.8148 89.8934ZM46.3005 105.999C45.018 105.999 43.8604 105.78 42.8305 105.341C41.796 104.9 40.8925 104.237 40.1227 103.355C39.3588 102.484 38.7851 101.478 38.4033 100.343C38.0257 99.2159 37.8354 97.9621 37.8354 96.5889V95.8538C37.8354 94.5259 38.0303 93.3054 38.421 92.1953C38.8133 91.0806 39.4018 90.0764 40.1896 89.1841C40.9758 88.2917 41.8361 87.6202 42.7724 87.1725C43.7161 86.7203 44.7312 86.495 45.8146 86.495C47.054 86.495 48.1509 86.687 49.102 87.0727C50.0664 87.4629 50.8764 88.0513 51.5287 88.8317C52.1752 89.6045 52.6583 90.5074 52.9808 91.5359C53.2988 92.5537 53.4579 93.6926 53.4579 94.9494V97.401H41.9298C41.9641 98.0952 42.0709 98.7365 42.2478 99.3204C42.4485 99.9811 42.7427 100.573 43.1291 101.094C43.5066 101.597 43.957 101.973 44.4786 102.223C45.0032 102.474 45.6125 102.599 46.3005 102.599C47.3482 102.599 48.2594 102.449 49.0394 102.149C49.4244 102.002 49.7871 101.825 50.1229 101.618C50.4603 101.412 50.7693 101.178 51.0489 100.919L51.4039 100.591L53.0669 103.419L52.8501 103.64C52.5156 103.982 52.1248 104.295 51.6803 104.578C51.2404 104.856 50.7516 105.105 50.2151 105.326C49.6742 105.55 49.0708 105.719 48.4109 105.831C47.7584 105.943 47.054 105.999 46.3005 105.999ZM63.8864 102.599C64.3783 102.599 64.8389 102.522 65.2654 102.371C65.692 102.22 66.0903 101.99 66.4589 101.684C66.8229 101.386 67.0934 101.053 67.2718 100.694C67.4486 100.338 67.5362 99.9464 67.5362 99.5229V99.1191H71.106L71.2338 99.4851L71.2547 99.6047C71.2858 100.452 71.115 101.252 70.7449 102.005C70.3807 102.747 69.8235 103.44 69.0759 104.083C68.3314 104.72 67.526 105.199 66.6625 105.518C65.7961 105.839 64.8701 105.999 63.8864 105.999C62.5472 105.999 61.3584 105.774 60.3241 105.325C59.2794 104.872 58.3935 104.192 57.6682 103.284C56.9565 102.394 56.4215 101.386 56.0648 100.264C55.711 99.1479 55.5327 97.9213 55.5327 96.5889V95.8886C55.5327 94.5653 55.7125 93.3462 56.0677 92.2361C56.4259 91.12 56.9638 90.1127 57.6787 89.2143C58.4054 88.3068 59.2911 87.6248 60.3344 87.1695C61.3674 86.7203 62.5533 86.495 63.8864 86.495C64.9682 86.495 65.955 86.6598 66.8467 86.988C67.7443 87.3177 68.5423 87.8138 69.2408 88.4747C69.9379 89.1357 70.4581 89.8768 70.7984 90.695C71.1372 91.5132 71.2948 92.404 71.271 93.3674L71.2501 93.4914L71.1223 93.8574H67.5362V93.4536C67.5362 92.9591 67.4501 92.5023 67.2807 92.0849C67.1083 91.6659 66.8511 91.2818 66.5094 90.9354C66.1661 90.5891 65.7766 90.3275 65.3443 90.155C64.9073 89.9811 64.4214 89.8934 63.8864 89.8934C63.1002 89.8934 62.4329 90.0325 61.8874 90.3108C61.3524 90.583 60.9229 90.9959 60.599 91.5449C60.2572 92.1272 59.9986 92.7776 59.8278 93.4945C59.6538 94.2189 59.566 95.0144 59.566 95.8826V96.5768C59.566 97.4676 59.6538 98.2782 59.8261 99.0087C59.9971 99.7317 60.2526 100.384 60.593 100.96C60.9125 101.501 61.3421 101.911 61.8786 102.182C62.427 102.46 63.0971 102.599 63.8864 102.599ZM78.1026 88.5398C78.2184 88.4188 78.3388 88.3023 78.4637 88.1889C78.8634 87.8304 79.3004 87.5219 79.7714 87.2648C80.2456 87.0077 80.7464 86.8141 81.271 86.687C81.7972 86.5585 82.3456 86.495 82.9132 86.495C83.9045 86.495 84.7918 86.6493 85.5733 86.9563C86.364 87.2678 87.0431 87.7352 87.611 88.3583C88.1816 88.9814 88.6081 89.7663 88.8891 90.7146C89.1625 91.6402 89.3007 92.7231 89.3007 93.9603V105.657H85.2835V93.927C85.2835 93.2162 85.2108 92.6036 85.0651 92.094C84.9254 91.6024 84.7174 91.2001 84.4439 90.8916C84.1735 90.5846 83.8346 90.3547 83.4274 90.2004C83.0069 90.0416 82.5091 89.9614 81.9308 89.9614C81.5147 89.9614 81.1225 90.0114 80.7539 90.1082C80.3824 90.2065 80.0301 90.3532 79.6972 90.5498C79.3629 90.7449 79.0566 90.9778 78.7787 91.247C78.5291 91.4905 78.3033 91.7627 78.1026 92.0607V105.657H74.0856V80.592H78.1026V88.5398ZM96.4031 96.4286C96.4031 97.3512 96.4982 98.1875 96.687 98.9362C96.8741 99.6787 97.1551 100.34 97.5281 100.923C97.8833 101.483 98.3262 101.904 98.8507 102.179C99.3814 102.46 100.005 102.599 100.723 102.599C102.122 102.599 103.175 102.04 103.896 100.922C104.272 100.338 104.555 99.6757 104.742 98.9362C104.932 98.1875 105.027 97.3512 105.027 96.4286V96.0641C105.027 95.1551 104.93 94.3263 104.74 93.5807C104.55 92.8411 104.266 92.1756 103.89 91.5873C103.525 91.0201 103.079 90.5952 102.554 90.3154C102.025 90.034 101.404 89.8934 100.689 89.8934C99.9848 89.8934 99.3694 90.0341 98.8449 90.3169C98.3247 90.5952 97.8863 91.0186 97.5296 91.5843C97.1551 92.1756 96.8727 92.8411 96.687 93.5777C96.4982 94.3248 96.4031 95.1536 96.4031 96.0641V96.4286ZM92.3874 96.0701C92.3874 93.3115 93.1275 91.0307 94.6076 89.2264C95.3567 88.3174 96.2423 87.6323 97.2618 87.1756C98.2769 86.7218 99.4197 86.495 100.689 86.495C101.971 86.495 103.125 86.7203 104.146 87.1741C105.171 87.6278 106.061 88.3114 106.813 89.2203C107.559 90.1172 108.118 91.1411 108.488 92.2875C108.858 93.4279 109.042 94.6908 109.042 96.0701V96.4406C109.042 99.2219 108.301 101.51 106.819 103.29C106.072 104.193 105.186 104.871 104.164 105.323C103.147 105.774 102 105.999 100.723 105.999C99.4479 105.999 98.3007 105.772 97.2812 105.32C96.2572 104.866 95.37 104.187 94.6209 103.284C93.8749 102.386 93.3146 101.362 92.9416 100.216C92.5716 99.0783 92.3874 97.8185 92.3874 96.4406V96.0701ZM116.08 105.657H112.459V80.592H116.475V105.657H116.08ZM124.317 87.1998L124.451 88.5836C124.586 88.4369 124.726 88.2978 124.871 88.1647C125.261 87.8123 125.695 87.5083 126.173 87.2527C126.649 87.0001 127.163 86.8096 127.713 86.6825C128.261 86.5585 128.842 86.495 129.456 86.495C130.079 86.495 130.66 86.5691 131.199 86.7158C131.745 86.8655 132.247 87.0909 132.703 87.3888C133.167 87.6913 133.57 88.0724 133.916 88.5261C134.115 88.7863 134.293 89.0706 134.453 89.3792C134.646 89.0963 134.855 88.8301 135.08 88.5821C135.471 88.1541 135.91 87.779 136.396 87.4584C136.888 87.1377 137.423 86.8958 137.997 86.7354C138.569 86.5751 139.177 86.495 139.818 86.495C140.772 86.495 141.631 86.6644 142.395 87.0016C143.163 87.3419 143.829 87.8501 144.393 88.5246C144.954 89.2037 145.373 90.0461 145.649 91.0489C145.921 92.035 146.058 93.1784 146.058 94.4775V105.657H142.042V94.4382C142.042 93.5807 141.971 92.8547 141.828 92.2603C141.693 91.6916 141.494 91.2455 141.232 90.9233C140.978 90.6072 140.656 90.3698 140.269 90.2095C139.868 90.0446 139.394 89.9614 138.85 89.9614C138.352 89.9614 137.906 90.0476 137.511 90.2201C137.122 90.3895 136.774 90.6481 136.469 90.9929C136.157 91.3483 135.91 91.7521 135.729 92.1998C135.546 92.6475 135.426 93.1436 135.368 93.688V105.657H131.335V94.4382C131.335 92.8487 131.057 91.6916 130.501 90.9884C130.232 90.6466 129.903 90.391 129.52 90.2216C129.129 90.0492 128.668 89.9614 128.144 89.9614C127.24 89.9614 126.502 90.1444 125.937 90.5104C125.655 90.698 125.403 90.9203 125.187 91.1774C124.984 91.4164 124.81 91.6901 124.662 91.9987V105.657H120.645V86.8353H124.283L124.317 87.1998ZM157.207 89.8934C156.725 89.8934 156.281 89.9962 155.875 90.1974C155.462 90.4016 155.083 90.7116 154.737 91.1245C154.385 91.554 154.096 92.038 153.878 92.5749C153.7 93.0135 153.564 93.4899 153.475 94.0011H160.835V93.9785C160.835 93.378 160.757 92.832 160.603 92.342C160.45 91.8565 160.218 91.4179 159.912 91.0277C159.613 90.6526 159.244 90.3713 158.803 90.1823C158.351 89.9902 157.819 89.8934 157.207 89.8934ZM157.693 105.999C156.411 105.999 155.253 105.78 154.223 105.341C153.189 104.9 152.285 104.237 151.514 103.355C150.751 102.484 150.178 101.478 149.797 100.343C149.418 99.2159 149.228 97.9621 149.228 96.5889V95.8538C149.228 94.5259 149.423 93.3054 149.814 92.1953C150.204 91.0806 150.794 90.0764 151.582 89.1841C152.368 88.2917 153.229 87.6202 154.165 87.1725C155.109 86.7203 156.124 86.495 157.207 86.495C158.448 86.495 159.543 86.687 160.495 87.0727C161.459 87.4629 162.269 88.0513 162.923 88.8317C163.568 89.6045 164.052 90.5074 164.373 91.5359C164.691 92.5537 164.85 93.6926 164.85 94.9494V97.401H153.321C153.356 98.0952 153.464 98.7365 153.64 99.3204C153.841 99.9811 154.135 100.573 154.522 101.094C154.899 101.597 155.349 101.973 155.871 102.223C156.396 102.474 157.005 102.599 157.693 102.599C158.741 102.599 159.652 102.449 160.432 102.149C160.818 102.002 161.18 101.825 161.515 101.618C161.853 101.412 162.162 101.178 162.441 100.919L162.798 100.591L164.459 103.419L164.242 103.64C163.907 103.982 163.517 104.295 163.073 104.578C162.634 104.856 162.144 105.105 161.608 105.326C161.065 105.55 160.463 105.719 159.803 105.831C159.151 105.943 158.448 105.999 157.693 105.999ZM0 105.255V80.592H8.17378C9.45038 80.592 10.5947 80.7342 11.6053 81.017C12.6292 81.3043 13.515 81.7384 14.258 82.3177C15.016 82.906 15.5852 83.6426 15.9641 84.5258C16.3386 85.4 16.5274 86.4103 16.5274 87.5567C16.5274 88.1405 16.4338 88.6971 16.248 89.2249C16.0622 89.7497 15.7873 90.2428 15.4217 90.704C15.0576 91.1593 14.6385 91.5555 14.1644 91.8913C13.9772 92.0244 13.7825 92.1469 13.5774 92.2603C13.9341 92.4025 14.2714 92.5719 14.585 92.7715C15.1913 93.1542 15.7189 93.6472 16.1618 94.2492C16.5987 94.8481 16.9286 95.4939 17.1471 96.1896C17.367 96.8838 17.477 97.6234 17.477 98.4083C17.477 99.5698 17.2883 100.601 16.9138 101.503C16.5348 102.41 15.9641 103.181 15.2062 103.809C14.4587 104.428 13.5804 104.894 12.5728 105.201C11.577 105.505 10.455 105.657 9.20664 105.657H0V105.255Z" fill="white"/>
<mask id="mask2" mask-type="alpha" maskUnits="userSpaceOnUse" x="194" y="80" width="15" height="27">
<path fill-rule="evenodd" clip-rule="evenodd" d="M194.398 106H208.546V80.592H194.398V106H194.398Z" fill="white"/>
</mask>
<g mask="url(#mask2)">
<path fill-rule="evenodd" clip-rule="evenodd" d="M198 96.9246C198 97.8033 198.079 98.5898 198.235 99.2794C198.388 99.9615 198.62 100.557 198.925 101.066C199.216 101.554 199.587 101.919 200.036 102.161C200.496 102.409 201.046 102.533 201.685 102.533C202.085 102.533 202.451 102.481 202.783 102.38C203.107 102.282 203.402 102.132 203.664 101.935C203.932 101.734 204.175 101.489 204.392 101.206C204.596 100.942 204.78 100.639 204.944 100.305V92.1015C204.78 91.7884 204.596 91.5102 204.396 91.2636C204.176 90.9944 203.93 90.757 203.658 90.5558C203.392 90.3607 203.099 90.2125 202.779 90.1127C202.458 90.0129 202.103 89.9629 201.715 89.9629C201.078 89.9629 200.532 90.1081 200.074 90.397C199.619 90.6859 199.243 91.1245 198.944 91.7113C198.632 92.3254 198.396 93.0332 198.239 93.8348C198.08 94.6454 198 95.5589 198 96.5722V96.9246ZM194.398 96.5722C194.398 93.5943 194.966 91.179 196.101 89.3308C196.682 88.3885 197.38 87.6792 198.198 87.2058C199.013 86.7324 199.941 86.495 200.978 86.495C201.466 86.495 201.929 86.5479 202.367 86.6508C202.804 86.7536 203.218 86.9109 203.606 87.1226C203.992 87.3268 204.349 87.5839 204.679 87.8879C204.769 87.9711 204.857 88.0573 204.944 88.148V80.592H208.546V105.659H205.527L205.273 103.986C205.14 104.152 205 104.307 204.856 104.452C204.513 104.795 204.14 105.083 203.739 105.314C203.335 105.542 202.898 105.715 202.429 105.83C201.966 105.943 201.471 106.001 200.948 106.001C199.93 106.001 199.016 105.789 198.21 105.365C197.4 104.94 196.702 104.304 196.118 103.455C195.544 102.62 195.112 101.651 194.825 100.553C194.541 99.4669 194.398 98.2556 194.398 96.9246V96.5722Z" fill="#32BCA9"/>
</g>
<path fill-rule="evenodd" clip-rule="evenodd" d="M223.611 103.613C223.496 103.767 223.377 103.914 223.254 104.054C222.887 104.472 222.478 104.828 222.029 105.12C221.58 105.413 221.09 105.635 220.567 105.781C220.05 105.926 219.5 106 218.919 106C217.94 106 217.064 105.824 216.29 105.472C215.508 105.116 214.837 104.581 214.275 103.869C213.718 103.162 213.3 102.261 213.023 101.17C212.754 100.102 212.618 98.8486 212.618 97.4152V85.798H216.488V97.4519C216.488 98.4356 216.554 99.2615 216.681 99.9264C216.803 100.558 216.982 101.039 217.214 101.368C217.438 101.688 217.728 101.931 218.084 102.092C218.456 102.261 218.904 102.345 219.424 102.345C219.95 102.345 220.424 102.288 220.846 102.173C221.263 102.06 221.634 101.891 221.961 101.666C222.286 101.441 222.572 101.169 222.819 100.85C223.051 100.548 223.248 100.204 223.41 99.8212V85.798H227.281V105.641H223.758L223.611 103.613Z" fill="#32BCA9"/>
<path fill-rule="evenodd" clip-rule="evenodd" d="M234.251 105.999H230.946V80.288H234.612V105.999H234.251Z" fill="#32BCA9"/>
<mask id="mask3" mask-type="alpha" maskUnits="userSpaceOnUse" x="239" y="80" width="9" height="26">
<path fill-rule="evenodd" clip-rule="evenodd" d="M239.506 105.999H247.288V80.592H239.506V105.999H239.506Z" fill="white"/>
</mask>
<g mask="url(#mask3)">
<path fill-rule="evenodd" clip-rule="evenodd" d="M243.633 80.9943V86.8353H247.288V90.0643H243.633V100.545C243.633 100.93 243.671 101.25 243.746 101.506C243.813 101.733 243.911 101.908 244.038 102.032C244.174 102.162 244.331 102.26 244.513 102.325C244.701 102.394 244.916 102.428 245.162 102.428C245.246 102.428 245.331 102.424 245.415 102.415C245.504 102.406 245.603 102.389 245.71 102.368L246.011 102.3C246.095 102.279 246.179 102.253 246.259 102.223L246.709 102.05L247.288 105.054L247.105 105.205C246.955 105.331 246.772 105.443 246.559 105.539C246.359 105.63 246.127 105.712 245.868 105.784C245.609 105.854 245.35 105.908 245.09 105.945C244.829 105.98 244.571 105.999 244.317 105.999C243.598 105.999 242.946 105.889 242.362 105.671C241.773 105.449 241.256 105.114 240.818 104.671C240.372 104.221 240.04 103.649 239.822 102.958C239.611 102.286 239.506 101.5 239.506 100.603V80.592H243.633V80.9943Z" fill="#32BCA9"/>
</g>
<path fill-rule="evenodd" clip-rule="evenodd" d="M178.712 95.9328H186.11L182.443 86.0836L178.712 95.9328ZM187.456 99.5937H177.33L174.901 105.999H170.46C173.87 97.4313 177.282 88.862 180.678 80.288H184.231C187.59 88.8558 190.938 97.4282 194.288 105.999H189.842L187.456 99.5937Z" fill="#32BCA9"/>
<mask id="mask4" mask-type="alpha" maskUnits="userSpaceOnUse" x="252" y="79" width="69" height="27">
<path fill-rule="evenodd" clip-rule="evenodd" d="M320.001 105.997V79.9425H252.594L252.594 105.997H320.001Z" fill="white"/>
</mask>
<g mask="url(#mask4)">
<path fill-rule="evenodd" clip-rule="evenodd" d="M280.685 102.386C281.242 102.386 281.772 102.314 282.271 102.17C282.774 102.025 283.248 101.811 283.692 101.525C284.134 101.24 284.5 100.932 284.788 100.606C285.047 100.311 285.242 100 285.371 99.6743V97.1935H282.085C281.464 97.1935 280.909 97.2715 280.42 97.4261C279.943 97.5761 279.525 97.8041 279.166 98.1056C278.813 98.404 278.55 98.73 278.376 99.0758C278.207 99.4141 278.121 99.7799 278.121 100.17C278.121 100.524 278.174 100.834 278.28 101.104C278.384 101.367 278.539 101.595 278.743 101.788C278.948 101.982 279.205 102.129 279.516 102.229C279.846 102.333 280.236 102.386 280.685 102.386ZM285.743 105.323L285.596 104.538L285.483 103.849L285.446 103.561C285.299 103.721 285.145 103.874 284.985 104.021C284.567 104.406 284.097 104.752 283.582 105.06C283.065 105.37 282.52 105.606 281.953 105.762C281.386 105.92 280.8 105.998 280.2 105.998C279.22 105.998 278.35 105.868 277.591 105.609C276.817 105.346 276.162 104.948 275.627 104.42C275.091 103.891 274.688 103.262 274.422 102.535C274.16 101.818 274.03 101.009 274.03 100.107C274.03 99.1708 274.219 98.3306 274.598 97.5898C274.975 96.8506 275.539 96.2124 276.292 95.6829C277.029 95.1626 277.895 94.7738 278.889 94.5167C279.873 94.2611 280.978 94.1341 282.205 94.1341H285.371V92.746C285.371 92.267 285.299 91.84 285.157 91.4696C285.018 91.1069 284.807 90.7901 284.529 90.5208C284.25 90.2514 283.909 90.0479 283.511 89.9132C283.098 89.7724 282.616 89.702 282.068 89.702C281.581 89.702 281.142 89.7632 280.752 89.8857C280.372 90.005 280.036 90.1841 279.749 90.4198C279.461 90.6555 279.246 90.911 279.105 91.1865C278.97 91.4513 278.901 91.739 278.901 92.0497V92.4583H275.082L274.953 92.0879L274.931 91.9732C274.893 91.2386 275.046 90.5345 275.388 89.8642C275.721 89.2092 276.237 88.5894 276.931 88.0032C277.626 87.4201 278.421 86.9824 279.312 86.6932C280.2 86.4055 281.179 86.2616 282.256 86.2616C283.317 86.2616 284.282 86.3993 285.144 86.6748C286.016 86.9534 286.786 87.3727 287.451 87.9344C288.123 88.5006 288.628 89.1939 288.964 90.0096C289.295 90.8192 289.462 91.7451 289.462 92.7858V101.569C289.462 101.903 289.471 102.216 289.486 102.51C289.503 102.816 289.525 103.118 289.556 103.412C289.589 103.702 289.636 103.99 289.695 104.276C289.753 104.555 289.827 104.84 289.911 105.127L290.069 105.654H285.807L285.743 105.323ZM302.347 90.3555L300.685 90.2545C299.902 90.2545 299.245 90.4366 298.723 90.8008C298.456 90.9891 298.22 91.2141 298.017 91.4727C297.826 91.7176 297.66 91.9946 297.519 92.3068V105.654H293.426V86.6075H297.127L297.349 88.5098C297.442 88.3858 297.537 88.2665 297.635 88.1517C297.973 87.7568 298.344 87.4171 298.745 87.1309C299.156 86.8416 299.596 86.6243 300.07 86.4789C300.544 86.3335 301.042 86.2616 301.568 86.2616C301.696 86.2616 301.828 86.2662 301.958 86.2769C302.078 86.2861 302.205 86.3029 302.337 86.3274L302.661 86.3917C302.765 86.4146 302.861 86.4407 302.944 86.4667L303.268 86.5738L302.715 90.3784L302.347 90.3555ZM312.214 89.702C311.725 89.702 311.272 89.8046 310.857 90.0081C310.437 90.2147 310.05 90.5284 309.699 90.9478C309.338 91.3824 309.046 91.8722 308.823 92.4139C308.64 92.8593 308.502 93.3414 308.412 93.8586H315.91V93.8342C315.91 93.2266 315.831 92.6756 315.673 92.1782C315.517 91.687 315.283 91.2431 314.969 90.8498C314.666 90.4703 314.29 90.1841 313.84 89.9943C313.379 89.7984 312.837 89.702 312.214 89.702ZM312.708 105.998C311.402 105.998 310.222 105.776 309.173 105.332C308.119 104.887 307.199 104.215 306.414 103.323C305.636 102.441 305.051 101.424 304.664 100.276C304.278 99.134 304.084 97.8653 304.084 96.4757V95.7334C304.084 94.3882 304.284 93.1546 304.68 92.0298C305.08 90.9034 305.681 89.8872 306.482 88.9827C307.283 88.0798 308.16 87.4002 309.114 86.9472C310.075 86.4912 311.109 86.2616 312.213 86.2616C313.478 86.2616 314.594 86.4575 315.563 86.8478C316.545 87.2426 317.37 87.8364 318.037 88.6261C318.694 89.4097 319.187 90.3218 319.514 91.3625C319.838 92.3925 320.002 93.5449 320.002 94.8182V97.2975H308.255C308.292 98.0015 308.399 98.6488 308.581 99.2396C308.784 99.91 309.085 100.508 309.477 101.035C309.862 101.543 310.321 101.926 310.852 102.177C311.388 102.431 312.007 102.559 312.708 102.559C313.776 102.559 314.704 102.406 315.499 102.103C315.893 101.955 316.261 101.774 316.603 101.566C316.946 101.356 317.261 101.121 317.546 100.859L317.91 100.527L319.602 103.389L319.381 103.612C319.041 103.956 318.642 104.273 318.19 104.559C317.743 104.841 317.245 105.095 316.697 105.317C316.146 105.545 315.531 105.716 314.858 105.83C314.195 105.941 313.478 105.998 312.708 105.998ZM271.577 97.2225L271.61 97.3266L271.63 97.446C271.653 98.6551 271.454 99.7691 271.032 100.785C270.609 101.805 269.966 102.726 269.101 103.545C268.238 104.363 267.234 104.979 266.093 105.389C264.962 105.794 263.697 105.998 262.3 105.998C260.877 105.998 259.577 105.741 258.405 105.227C257.232 104.711 256.192 103.94 255.288 102.916C254.39 101.89 253.716 100.729 253.266 99.4325C252.818 98.1408 252.594 96.7175 252.594 95.1641V90.7963C252.594 89.2429 252.818 87.8181 253.265 86.5249C253.715 85.227 254.388 84.0639 255.288 83.0401C256.192 82.007 257.232 81.2326 258.404 80.7169C259.576 80.2011 260.875 79.9425 262.3 79.9425C263.716 79.9425 264.992 80.1369 266.129 80.521C267.277 80.9097 268.278 81.4943 269.129 82.2703C269.987 83.0554 270.626 83.966 271.042 85.0021C271.457 86.0305 271.653 87.1829 271.63 88.4593L271.61 88.5817L271.485 88.9643H267.636V88.5572C267.636 87.7431 267.519 87.0207 267.287 86.3902C267.059 85.7673 266.715 85.2255 266.261 84.7679C265.802 84.3088 265.248 83.9644 264.598 83.7334C263.938 83.5007 263.172 83.3829 262.3 83.3829C261.447 83.3829 260.683 83.5558 260.01 83.8986C259.337 84.243 258.748 84.7618 258.242 85.4535C257.726 86.1591 257.338 86.9534 257.078 87.8334C256.817 88.7179 256.687 89.6959 256.687 90.7611V95.1457C256.687 96.2247 256.817 97.2103 257.078 98.101C257.336 98.984 257.726 99.7799 258.242 100.487C258.748 101.18 259.338 101.699 260.01 102.043C260.683 102.386 261.447 102.559 262.3 102.559C263.172 102.559 263.938 102.443 264.598 102.212C265.248 101.984 265.802 101.641 266.261 101.186C266.714 100.732 267.057 100.189 267.286 99.5564C267.519 98.9151 267.636 98.179 267.636 97.3495V96.9425H271.485L271.577 97.2225Z" fill="white"/>
</g>
</svg>
