<svg width="175" height="58" viewBox="0 0 175 58" version="1.1" xmlns="http://www.w3.org/2000/svg" xmlns:xlink="http://www.w3.org/1999/xlink">
<title>Logo</title>
<desc>Created using Figma</desc>
<g id="Canvas" transform="translate(-3518 -126)">
<g id="Logo">
<g id="Group 3">
<mask id="mask0_outline" mask-type="alpha">
<g id="Clip 2">
<use xlink:href="#path0_fill" transform="translate(3518 126.329)" fill="#FFFFFF"/>
</g>
</mask>
<g id="Fill 1" mask="url(#mask0_outline)">
<use xlink:href="#path1_fill" transform="translate(3518 126.329)" fill="#5AB9AC"/>
</g>
</g>
<g id="Fill 4">
<use xlink:href="#path2_fill" transform="translate(3553 127)" fill="#5AB9AC"/>
</g>
<g id="Group 8">
<mask id="mask1_outline" mask-type="alpha">
<g id="Clip 7">
<use xlink:href="#path3_fill" transform="translate(3594.25 126.282)" fill="#FFFFFF"/>
</g>
</mask>
<g id="Fill 6" mask="url(#mask1_outline)">
<use xlink:href="#path4_fill" transform="translate(3594.25 126.282)" fill="#5AB9AC"/>
</g>
</g>
<g id="Logo Text">
<g id="Group 3">
<g id="Fill 1">
<use xlink:href="#path5_fill" transform="translate(3518 170.166)" fill="#434A54"/>
</g>
</g>
<g id="Group 6">
<mask id="mask2_outline" mask-type="alpha">
<g id="Clip 5">
<use xlink:href="#path6_fill" transform="translate(3624.06 170.165)" fill="#FFFFFF"/>
</g>
</mask>
<g id="Fill 4" mask="url(#mask2_outline)">
<use xlink:href="#path7_fill" transform="translate(3624.06 170.165)" fill="#5AB9AC"/>
</g>
</g>
<g id="Fill 7">
<use xlink:href="#path8_fill" transform="translate(3634 173)" fill="#5AB9AC"/>
</g>
<g id="Fill 9">
<use xlink:href="#path9_fill" transform="translate(3644 170)" fill="#5AB9AC"/>
</g>
<g id="Group 13">
<mask id="mask3_outline" mask-type="alpha">
<g id="Clip 12">
<use xlink:href="#path10_fill" transform="translate(3648.67 170.166)" fill="#FFFFFF"/>
</g>
</mask>
<g id="Fill 11" mask="url(#mask3_outline)">
<use xlink:href="#path11_fill" transform="translate(3648.67 170.166)" fill="#5AB9AC"/>
</g>
</g>
<g id="Fill 14">
<use xlink:href="#path12_fill" transform="translate(3611 170)" fill="#5AB9AC"/>
</g>
<g id="Group 18">
<mask id="mask4_outline" mask-type="alpha">
<g id="Clip 17">
<use xlink:href="#path13_fill" transform="translate(3655.81 169.812)" fill="#FFFFFF"/>
</g>
</mask>
<g id="Fill 16" mask="url(#mask4_outline)">
<use xlink:href="#path14_fill" transform="translate(3655.81 169.812)" fill="#434A54"/>
</g>
</g>
</g>
</g>
</g>
<defs>
<path id="path0_fill" fill-rule="evenodd" d="M 33.9141 34.6713L 0 34.6713L 0 0L 33.9141 0L 33.9141 34.6713Z"/>
<path id="path1_fill" fill-rule="evenodd" d="M 14.8375 6.01979C 16.5559 6.01979 17.9125 6.37801 18.8203 7.06591C 19.6716 7.71167 20.1361 8.67146 20.1361 9.92015C 20.1361 10.8466 19.8838 11.6297 19.4098 12.2455C 18.9236 12.8777 18.1974 13.3501 17.2651 13.6376C 16.7735 13.7892 16.3648 14.0856 16.0799 14.4724C 15.7943 14.8591 15.6324 15.335 15.6324 15.8475L 15.6324 17.557L 15.6324 17.589L 15.6324 17.9309C 15.6324 18.4788 15.8201 18.9852 16.1424 19.3849C 16.4647 19.7845 16.921 20.0755 17.4575 20.1917C 18.757 20.4731 19.7689 20.9789 20.4455 21.6776C 21.0915 22.3438 21.4369 23.2023 21.4369 24.2212C 21.4369 25.629 20.8589 26.7172 19.7974 27.4534C 18.6618 28.2405 16.9734 28.6518 14.8375 28.6518L 13.6842 28.6518C 13.3116 28.6518 12.9736 28.5002 12.7302 28.2548C 12.4854 28.0101 12.3337 27.6723 12.3337 27.3011L 12.3337 7.37044C 12.3337 6.9993 12.4854 6.66147 12.7302 6.41472C 12.9736 6.17137 13.3116 6.01979 13.6842 6.01979L 14.8375 6.01979ZM 21.6239 33.7403C 22.8186 33.3263 23.8699 32.7778 24.7614 32.1076C 26.9972 30.4245 28.2294 27.9863 28.2294 24.9445C 28.2294 22.8243 27.6834 21.1957 26.9129 19.9538C 25.778 18.1233 24.1616 17.1478 23.0818 16.6666C 22.8302 16.5544 22.6289 16.3824 22.4916 16.171C 22.3909 16.0154 22.3236 15.8359 22.2957 15.6402C 22.3277 15.4172 22.4127 15.2126 22.5385 15.042L 22.5398 15.0406C 22.7051 14.817 22.9438 14.645 23.2328 14.556C 24.3588 14.2086 25.2469 13.6241 25.8555 12.8308C 26.4614 12.0423 26.7844 11.0621 26.7844 9.92014C 26.7844 8.35402 26.1846 7.13592 25.0844 6.30188C 24.0039 5.48279 22.4501 5.0566 20.5223 5.0566L 13.6842 5.0566C 13.0484 5.0566 12.4697 5.31694 12.0488 5.73498C 11.6299 6.15438 11.3695 6.73284 11.3695 7.37043L 11.3695 27.3011C 11.3695 27.8048 11.532 28.2718 11.8074 28.6518L 6.64893 28.6518L 6.64893 2.31384C 6.64893 1.9427 6.80057 1.60487 7.04537 1.36016C 7.29017 1.11546 7.62813 0.963196 7.99941 0.963196L 20.8113 0.963196C 24.2072 0.963196 26.9442 1.7279 28.8183 3.12273C 30.6407 4.4795 31.6498 6.45143 31.6498 8.90869C 31.6498 10.0561 31.4336 11.1063 31.029 12.0287C 30.6189 12.9633 30.0137 13.7709 29.2419 14.4193C 28.9516 14.6634 28.734 14.955 28.5952 15.2799C 28.4558 15.6075 28.396 15.9658 28.4212 16.3423C 28.4463 16.7203 28.5531 17.0676 28.734 17.3721C 28.9162 17.6787 29.1705 17.9397 29.4894 18.1416C 30.6012 18.8479 31.4689 19.7988 32.0551 20.9462C 32.6399 22.0902 32.95 23.4388 32.95 24.9445C 32.95 27.6682 31.8558 29.8447 29.8696 31.3395C 27.9431 32.7894 25.1728 33.6159 21.7374 33.7009L 21.6239 33.7403ZM 15.6863 34.6702C 15.7903 34.6695 15.8944 34.6675 15.9977 34.6654C 15.8944 34.6682 15.7903 34.6695 15.6863 34.6702ZM 7.99952 0L 2.31472 0C 1.6796 0 1.10092 0.259661 0.68136 0.679061L 0.67932 0.681101C 0.26044 1.1005 0 1.67828 0 2.31384L 0 30.9656L 0 32.357C 0 32.9926 0.26044 33.5711 0.67932 33.9905L 0.68136 33.9925C 1.10092 34.4112 1.6796 34.6716 2.3154 34.6716L 7.67244 34.6716L 15.4632 34.6716L 21.148 34.6716C 25.0668 34.6716 28.2418 33.7661 30.4456 32.1076C 32.6815 30.4245 33.9143 27.9863 33.9143 24.9445C 33.9143 23.2893 33.5662 21.7932 32.91 20.5091C 32.2429 19.2047 31.261 18.126 30.005 17.3286C 29.8153 17.2083 29.6657 17.0567 29.5623 16.8827C 29.4576 16.7067 29.3957 16.5034 29.3808 16.2784C 29.3658 16.0541 29.4005 15.8441 29.48 15.6565C 29.561 15.4675 29.6888 15.2969 29.8595 15.1535C 30.7462 14.4085 31.4405 13.4827 31.9097 12.4128C 32.3687 11.3673 32.6135 10.1873 32.6135 8.90869C 32.6135 6.13058 31.465 3.8956 29.3903 2.35122C 27.3496 0.832683 24.4168 0 20.8114 0L 7.99952 0Z"/>
<path id="path2_fill" fill-rule="evenodd" d="M 22.6885 0L 25.0795 0L 27.7586 0C 28.0507 0 28.3237 0.0824521 28.5544 0.231812C 28.7838 0.37982 28.9687 0.594736 29.0868 0.861016L 42.8739 31.9874C 42.9742 32.2144 43.0145 32.4503 42.9954 32.6814C 42.9756 32.9153 42.8964 33.1424 42.7599 33.3492C 42.6234 33.556 42.4452 33.7182 42.2384 33.8297C 42.0282 33.9412 41.7941 34 41.5456 34L 37.2448 34L 34.3869 34L 29.8847 34C 29.5892 34 29.3127 33.9155 29.0807 33.7621C 28.8472 33.6087 28.6609 33.3877 28.5462 33.1167L 26.7313 28.8251L 26.6235 28.5717L 26.4747 28.2209L 26.7313 28.8251C 26.6903 28.7481 26.6337 28.6859 26.5654 28.6433C 26.4938 28.6001 26.4091 28.5744 26.3156 28.5717L 16.6976 28.5717C 16.5993 28.5717 16.5092 28.5974 16.4362 28.6433C 16.3659 28.6859 16.3093 28.7481 16.269 28.8251L 14.4534 33.1167C 14.3387 33.3877 14.1524 33.608 13.9196 33.7621C 13.6869 33.9155 13.4104 34 13.1149 34L 8.61268 34C 8.53419 34 8.45638 33.9939 8.3813 33.9824L 8.3813 34L 5.84148 34L 1.45397 34C 1.20552 34 0.9714 33.9412 0.763219 33.8297C 0.554355 33.7182 0.376206 33.556 0.239694 33.3492C 0.103181 33.1424 0.0240041 32.9153 0.00489234 32.6814C -0.014902 32.4503 0.0253692 32.2144 0.125706 31.9874L 13.9128 0.861016C 14.0309 0.594736 14.2158 0.37982 14.4452 0.231812C 14.6766 0.0824521 14.9496 0 15.241 0L 17.9201 0L 20.5998 0L 22.6885 0ZM 19.9679 20.0987L 20.0129 19.9622L 21.4996 16.4715L 22.9869 19.9622L 23.0319 20.0987L 23.6797 21.6275C 23.6913 21.6829 23.6933 21.7342 23.6858 21.7829C 23.6763 21.841 23.6496 21.9039 23.6032 21.9728C 23.5595 22.0384 23.4988 22.0938 23.4271 22.1303C 23.3623 22.1647 23.2872 22.185 23.2073 22.1864L 19.8 22.1864C 19.7174 22.1864 19.6396 22.1654 19.5706 22.1303C 19.501 22.0931 19.441 22.0384 19.3966 21.9728C 19.3502 21.9039 19.3236 21.841 19.314 21.7829C 19.3065 21.7342 19.3085 21.6829 19.3201 21.6275L 19.9679 20.0987ZM 25.0794 0.957664L 22.3997 0.957664C 22.2987 0.957664 22.2072 0.984698 22.1328 1.03268C 22.057 1.08134 21.9956 1.15366 21.956 1.24287L 8.16895 32.3692C 8.13482 32.4469 8.12049 32.5267 8.12663 32.6031C 8.13277 32.6787 8.16007 32.7538 8.20717 32.8254C 8.25427 32.897 8.31365 32.9518 8.38122 32.9876C 8.44675 33.0234 8.52524 33.0423 8.61261 33.0423L 13.1148 33.0423C 13.2179 33.0423 13.3114 33.0146 13.3865 32.9653C 13.4609 32.916 13.5223 32.8423 13.5612 32.7497C 14.1141 31.4433 14.7755 29.6503 15.3864 28.4399C 15.5065 28.1851 15.6915 27.979 15.9194 27.8364C 16.1454 27.6924 16.4129 27.614 16.6976 27.614L 26.2295 27.614L 24.3252 23.144L 22.0625 23.144L 19.7998 23.144C 19.5555 23.144 19.3213 23.0812 19.1152 22.9724C 18.9036 22.8582 18.722 22.6953 18.5917 22.5006C 18.4688 22.3168 18.393 22.1276 18.3616 21.9329C 18.3296 21.7376 18.3432 21.5443 18.3944 21.351L 18.4156 21.2868L 19.0688 19.7453C 19.0865 19.6905 19.1029 19.6466 19.1248 19.5918L 23.571 9.15354C 23.6863 8.88185 23.8727 8.6622 24.104 8.51082C 24.3361 8.35875 24.6132 8.27495 24.9095 8.27563C 24.9368 8.27427 24.9805 8.27698 25.0364 8.28171L 25.0364 8.27968L 25.0869 8.28509L 25.2487 8.27427C 25.5449 8.27495 25.8221 8.35875 26.0541 8.51082C 26.2862 8.6622 26.4719 8.88185 26.5872 9.15354L 31.0334 19.5918L 31.073 19.6898L 31.0908 19.748L 31.5624 20.8611L 34.9349 28.8251L 34.7677 28.4298L 34.7718 28.4399L 36.597 32.7497C 36.6359 32.8423 36.6973 32.916 36.7717 32.9653C 36.8447 33.0126 36.9348 33.0403 37.0338 33.0423L 37.2447 33.0423L 41.5456 33.0423C 41.6329 33.0423 41.7114 33.0234 41.7776 32.9883C 41.8445 32.9518 41.9039 32.897 41.951 32.8254C 41.9981 32.7538 42.0254 32.6787 42.0315 32.6051C 42.0377 32.5267 42.024 32.4469 41.9899 32.3692L 28.2021 1.24287C 28.1632 1.15366 28.1011 1.08134 28.0254 1.03268C 27.951 0.984022 27.8595 0.957664 27.7585 0.957664L 25.0794 0.957664Z"/>
<path id="path3_fill" fill-rule="evenodd" d="M 37.4578 34.6709L 37.4578 0L 0 0L 0 34.6709L 37.4578 34.6709Z"/>
<path id="path4_fill" fill-rule="evenodd" d="M 30.5967 27.4785C 31.1239 28.0665 31.0805 28.9733 30.4969 29.5082C 28.7489 31.1124 26.6874 32.4162 24.4855 33.3107L 23.4717 33.6907C 23.6271 33.6968 23.7831 33.7016 23.9399 33.705C 26.3203 33.6764 28.1328 33.4283 30.6177 32.4189C 32.7199 31.5651 34.683 30.3246 36.3435 28.8006C 36.545 28.594 36.5444 28.3085 36.3761 28.1222L 33.9006 25.3598C 33.6869 25.1212 33.2404 25.2041 32.7444 25.2041L 28.5589 25.2041L 30.5967 27.4785ZM 16.3495 25.3482C 14.2595 23.2723 12.9859 20.3875 12.9859 17.1458C 12.9859 13.9252 14.2623 11.0492 16.357 8.97802C 18.4457 6.91161 21.3479 5.65001 24.6044 5.65001C 26.1271 5.65001 27.6688 5.99396 29.127 6.62136C 30.6063 7.25692 32.0008 8.18612 33.2059 9.34236C 33.2582 9.39266 33.3145 9.42869 33.3729 9.44976C 33.4312 9.47084 33.4984 9.47899 33.5717 9.47423C 33.6436 9.46948 33.7081 9.45248 33.763 9.42393C 33.8187 9.39538 33.8696 9.35188 33.9157 9.29342L 36.3844 6.18701C 36.4631 6.08776 36.497 5.96473 36.4875 5.84578C 36.478 5.7275 36.4251 5.61262 36.3321 5.52766C 34.7653 4.10564 32.8741 2.95892 30.8316 2.16974C 28.8169 1.39143 26.6537 0.963196 24.5087 0.963196C 19.68 0.963196 15.409 2.73188 12.3507 5.65545C 9.30258 8.56814 7.45483 12.633 7.45483 17.2403C 7.47926 20.1781 8.64098 22.7876 10.5335 24.6664C 12.4471 26.5677 15.1132 27.726 18.1111 27.726C 18.6105 27.726 19.1147 27.6879 19.6189 27.6138C 18.3927 27.0503 17.2894 26.2808 16.3495 25.3482ZM 29.946 24.2409L 30.932 24.2409L 32.7445 24.2409L 33.4454 24.2409C 33.5085 24.2368 33.5723 24.2368 33.6348 24.2409C 33.9985 24.2647 34.3534 24.4251 34.6146 24.7161L 37.0894 27.4785C 37.3533 27.7729 37.4741 28.1467 37.4565 28.5138C 37.4388 28.8802 37.2814 29.2411 36.9903 29.5082C 35.2416 31.1124 33.1808 32.4162 30.9788 33.3107C 28.9031 34.1536 26.6997 34.6369 24.5086 34.6695L 24.5086 34.6709L 18.0161 34.6709L 18.0161 34.6695C 17.9374 34.6702 17.858 34.6709 17.7792 34.6709C 12.7646 34.6709 8.31861 32.7771 5.12661 29.6496C 1.93664 26.5235 0 22.1677 0 17.2403C 0 12.3597 1.96175 8.05017 5.1965 4.95871C 8.42921 1.86861 12.9329 0 18.0161 0L 24.5086 0C 26.7669 0 29.049 0.452028 31.177 1.27451C 33.3267 2.10448 35.3196 3.31442 36.974 4.81665C 37.2576 5.07359 37.4164 5.41686 37.4449 5.77032C 37.4734 6.12311 37.3723 6.48677 37.1355 6.78518L 34.6669 9.89227C 34.5393 10.0534 34.3853 10.1812 34.2095 10.2736C 34.0351 10.3661 33.8424 10.4204 33.6354 10.434L 33.4305 10.434L 27.1429 10.434C 26.9366 10.4476 26.7384 10.4204 26.5532 10.3531C 26.3679 10.2858 26.1976 10.1791 26.0483 10.035C 24.9287 8.96103 23.6319 8.09776 22.2565 7.50638C 21.924 7.36296 21.5867 7.23516 21.2461 7.12505C 19.627 7.63825 18.1898 8.51512 17.0294 9.6632C 15.1145 11.5563 13.9474 14.1903 13.9474 17.1458C 13.9474 20.1217 15.1131 22.7672 17.026 24.6664C 18.2027 25.8356 19.6636 26.7233 21.3112 27.2338C 21.6301 27.1373 21.947 27.0272 22.2599 26.9048C 23.638 26.3651 24.9565 25.5746 26.1121 24.5842C 26.4093 24.33 26.7812 24.2171 27.1422 24.2409L 29.3414 24.2409L 29.946 24.2409Z"/>
<path id="path5_fill" fill-rule="evenodd" d="M 2.19092 5.6107L 4.82524 5.6107C 5.13092 5.6107 5.40578 5.5687 5.64903 5.48552C 5.8874 5.40399 6.09984 5.28129 6.28389 5.11823C 6.46308 4.95682 6.59849 4.76493 6.68849 4.54258C 6.7793 4.31693 6.82551 4.05505 6.82551 3.75858C 6.82551 3.11705 6.63092 2.64188 6.24173 2.33305C 6.04308 2.17576 5.79822 2.05552 5.50713 1.97564C 5.20794 1.89164 4.85849 1.85046 4.45957 1.85046L 2.19092 1.85046L 2.19092 5.6107ZM 2.19092 7.46201L 2.19092 11.7979L 5.02308 11.7979C 5.3993 11.7979 5.73173 11.7509 6.02119 11.6579C 6.30416 11.5665 6.54659 11.4306 6.74767 11.2519C 6.94389 11.0757 7.09308 10.8607 7.192 10.6087C 7.29254 10.3534 7.34362 10.0553 7.34362 9.71683C 7.34362 9.35201 7.30065 9.03001 7.21389 8.75001C 7.13038 8.47659 7.00389 8.24106 6.83605 8.04506C 6.67389 7.85318 6.46632 7.70906 6.21497 7.61189C 5.95389 7.51224 5.64254 7.46201 5.28254 7.46201L 2.19092 7.46201ZM 15.3218 5.06471C 15.0591 5.06471 14.8167 5.12071 14.5953 5.23024C 14.3699 5.34142 14.1632 5.51024 13.9743 5.73507C 13.7821 5.96895 13.6248 6.23248 13.5064 6.52483C 13.4083 6.76365 13.3345 7.02307 13.2859 7.30142L 17.301 7.30142L 17.301 7.28907C 17.301 6.96212 17.2589 6.66483 17.1745 6.39801C 17.0902 6.13365 16.9645 5.89483 16.7975 5.68236C 16.6345 5.47812 16.4335 5.32495 16.1926 5.22201C 15.9462 5.11742 15.6559 5.06471 15.3218 5.06471ZM 15.5871 13.8345C 14.8874 13.8345 14.2558 13.7151 13.6939 13.4762C 13.1296 13.2358 12.6366 12.8751 12.2166 12.3949C 11.799 11.9206 11.4869 11.3729 11.2793 10.7545C 11.0725 10.1409 10.9688 9.45823 10.9688 8.71047L 10.9688 8.31023C 10.9688 7.58717 11.075 6.92259 11.2882 6.31812C 11.5023 5.71117 11.8242 5.16435 12.2531 4.67847C 12.682 4.19259 13.1515 3.82694 13.6623 3.58317C 14.1771 3.33694 14.7309 3.21423 15.322 3.21423C 15.999 3.21423 16.5966 3.31882 17.1155 3.52882C 17.6417 3.74129 18.0836 4.06165 18.4404 4.48659C 18.7923 4.90741 19.0566 5.39906 19.2317 5.95906C 19.4052 6.51329 19.492 7.13341 19.492 7.81776L 19.492 9.1527L 13.2025 9.1527C 13.222 9.5307 13.2796 9.87988 13.376 10.1978C 13.4855 10.5576 13.646 10.8796 13.8569 11.1638C 14.0628 11.4372 14.3085 11.6422 14.5931 11.7781C 14.8793 11.9148 15.2117 11.9832 15.5871 11.9832C 16.1588 11.9832 16.6558 11.9016 17.0815 11.7378C 17.2923 11.6579 17.4893 11.5615 17.6725 11.4487C 17.8566 11.3367 18.0252 11.2091 18.1777 11.0682L 18.3715 10.8895L 19.2788 12.4295L 19.1604 12.5498C 18.9779 12.7359 18.7647 12.9064 18.5223 13.0604C 18.2831 13.2119 18.0163 13.3478 17.7228 13.468C 17.4277 13.5899 17.0985 13.6821 16.7385 13.7431C 16.3825 13.804 15.999 13.8345 15.5871 13.8345ZM 24.9957 5.06471C 24.733 5.06471 24.4905 5.12071 24.2692 5.23024C 24.0438 5.34142 23.837 5.51024 23.6481 5.73507C 23.4559 5.96895 23.2986 6.23248 23.1794 6.52483C 23.0821 6.76365 23.0084 7.02307 22.9597 7.30142L 26.9749 7.30142L 26.9749 7.28907C 26.9749 6.96212 26.9319 6.66483 26.8484 6.39801C 26.764 6.13365 26.6384 5.89483 26.4705 5.68236C 26.3084 5.47812 26.1073 5.32495 25.8665 5.22201C 25.62 5.11742 25.3297 5.06471 24.9957 5.06471ZM 25.2607 13.8345C 24.561 13.8345 23.9294 13.7151 23.3675 13.4762C 22.8031 13.2358 22.3102 12.8751 21.8902 12.3949C 21.4734 11.9206 21.1604 11.3729 20.9521 10.7545C 20.7461 10.1409 20.6423 9.45823 20.6423 8.71047L 20.6423 8.31023C 20.6423 7.58717 20.7486 6.92259 20.9618 6.31812C 21.1758 5.71117 21.4969 5.16435 21.9267 4.67847C 22.3556 4.19259 22.825 3.82694 23.3358 3.58317C 23.8507 3.33694 24.4045 3.21423 24.9956 3.21423C 25.6718 3.21423 26.2702 3.31882 26.7891 3.52882C 27.3153 3.74129 27.7572 4.06165 28.1131 4.48659C 28.4658 4.90741 28.7294 5.39906 28.9053 5.95906C 29.0788 6.51329 29.1656 7.13341 29.1656 7.81776L 29.1656 9.1527L 22.8761 9.1527C 22.8948 9.5307 22.9531 9.87988 23.0496 10.1978C 23.1591 10.5576 23.3196 10.8796 23.5304 11.1638C 23.7364 11.4372 23.9821 11.6422 24.2667 11.7781C 24.5529 11.9148 24.8853 11.9832 25.2607 11.9832C 25.8323 11.9832 26.3294 11.9016 26.755 11.7378C 26.965 11.6579 27.1629 11.5615 27.3461 11.4487C 27.5302 11.3367 27.6988 11.2091 27.8513 11.0682L 28.045 10.8895L 28.9523 12.4295L 28.834 12.5498C 28.6515 12.7359 28.4383 12.9064 28.1958 13.0604C 27.9558 13.2119 27.6891 13.3478 27.3964 13.468C 27.1013 13.5899 26.7721 13.6821 26.4121 13.7431C 26.0561 13.804 25.6718 13.8345 25.2607 13.8345ZM 34.8552 11.9832C 35.1236 11.9832 35.3749 11.9412 35.6076 11.8588C 35.8403 11.7765 36.0576 11.6513 36.2587 11.4849C 36.4573 11.3227 36.6049 11.1415 36.7022 10.9455C 36.7987 10.752 36.8465 10.5387 36.8465 10.3081L 36.8465 10.0882L 38.7941 10.0882L 38.8638 10.2875L 38.8752 10.3526C 38.8922 10.8138 38.799 11.2494 38.5971 11.6595C 38.3984 12.0639 38.0944 12.4411 37.6865 12.7911C 37.2803 13.1378 36.8409 13.3988 36.3698 13.5726C 35.8971 13.7472 35.3919 13.8345 34.8552 13.8345C 34.1246 13.8345 33.476 13.7118 32.9117 13.4672C 32.3417 13.2209 31.8584 12.8504 31.4627 12.3562C 31.0744 11.8712 30.7825 11.3227 30.5879 10.7116C 30.3949 10.1039 30.2976 9.436 30.2976 8.71047L 30.2976 8.32917C 30.2976 7.60859 30.3957 6.94482 30.5895 6.34035C 30.7849 5.73259 31.0784 5.18412 31.4684 4.69494C 31.8649 4.20082 32.3481 3.82941 32.9173 3.58153C 33.4809 3.33694 34.1279 3.21423 34.8552 3.21423C 35.4454 3.21423 35.9838 3.304 36.4703 3.4827C 36.96 3.66223 37.3954 3.93235 37.7765 4.29223C 38.1568 4.65212 38.4406 5.05565 38.6263 5.50117C 38.8111 5.9467 38.8971 6.43176 38.8841 6.95635L 38.8727 7.02388L 38.803 7.22317L 36.8465 7.22317L 36.8465 7.00329C 36.8465 6.734 36.7995 6.48529 36.7071 6.258C 36.613 6.02988 36.4727 5.8207 36.2863 5.63212C 36.099 5.44353 35.8865 5.30106 35.6506 5.20717C 35.4122 5.11247 35.1471 5.0647 34.8552 5.0647C 34.4263 5.0647 34.0622 5.14047 33.7646 5.292C 33.4727 5.44023 33.2384 5.66506 33.0617 5.964C 32.8752 6.28106 32.7341 6.63517 32.6409 7.02553C 32.546 7.42 32.4981 7.85317 32.4981 8.32588L 32.4981 8.70388C 32.4981 9.18894 32.546 9.63035 32.64 10.0281C 32.7333 10.4218 32.8727 10.7767 33.0584 11.0905C 33.2327 11.3853 33.4671 11.6085 33.7598 11.7559C 34.059 11.9074 34.4246 11.9832 34.8552 11.9832ZM 42.6113 4.32765C 42.6745 4.26177 42.7402 4.19835 42.8083 4.13659C 43.0264 3.94141 43.2648 3.77341 43.5218 3.63341C 43.7805 3.49341 44.0537 3.388 44.3399 3.31882C 44.627 3.24882 44.9262 3.21424 45.2359 3.21424C 45.7767 3.21424 46.2608 3.29824 46.6872 3.46541C 47.1186 3.63506 47.4891 3.88953 47.7989 4.22882C 48.1102 4.56812 48.3429 4.99553 48.4962 5.51188C 48.6454 6.01588 48.7208 6.60553 48.7208 7.27918L 48.7208 13.6484L 46.5291 13.6484L 46.5291 7.26106C 46.5291 6.874 46.4894 6.54047 46.4099 6.26294C 46.3337 5.99529 46.2202 5.77624 46.071 5.60824C 45.9235 5.44106 45.7386 5.31588 45.5164 5.23188C 45.287 5.14541 45.0154 5.10176 44.6999 5.10176C 44.4729 5.10176 44.2589 5.12894 44.0578 5.18165C 43.8551 5.23518 43.6629 5.31506 43.4813 5.42212C 43.2989 5.52835 43.1318 5.65518 42.9802 5.80176C 42.844 5.93435 42.7208 6.08259 42.6113 6.24482L 42.6113 13.6484L 40.4197 13.6484L 40.4197 0L 42.6113 0L 42.6113 4.32765ZM 52.5957 8.62318C 52.5957 9.12554 52.6476 9.58095 52.7506 9.9886C 52.8527 10.3929 53.006 10.7528 53.2095 11.0707C 53.4033 11.3754 53.6449 11.6044 53.9311 11.7542C 54.2206 11.9074 54.5611 11.9832 54.9527 11.9832C 55.7157 11.9832 56.2906 11.6785 56.6838 11.0699C 56.8889 10.752 57.043 10.3913 57.1452 9.9886C 57.2489 9.58095 57.3008 9.12554 57.3008 8.62318L 57.3008 8.42471C 57.3008 7.92977 57.2481 7.47848 57.1444 7.07248C 57.0406 6.66977 56.8857 6.30742 56.6806 5.98707C 56.4811 5.67824 56.2379 5.44683 55.9516 5.29448C 55.663 5.1413 55.3241 5.06471 54.9341 5.06471C 54.5498 5.06471 54.2141 5.1413 53.9279 5.2953C 53.6441 5.44683 53.4049 5.67742 53.2103 5.98542C 53.006 6.30742 52.8519 6.66977 52.7506 7.07083C 52.6476 7.47765 52.5957 7.92895 52.5957 8.42471L 52.5957 8.62318ZM 50.4048 8.428C 50.4048 6.92588 50.8086 5.684 51.6161 4.70153C 52.0248 4.20659 52.508 3.83353 53.0642 3.58482C 53.618 3.33776 54.2415 3.21423 54.934 3.21423C 55.6337 3.21423 56.2629 3.33694 56.8199 3.584C 57.3794 3.83106 57.8651 4.20329 58.2753 4.69823C 58.6824 5.18659 58.9872 5.74412 59.1891 6.36835C 59.391 6.98929 59.4915 7.67694 59.4915 8.428L 59.4915 8.62976C 59.4915 10.1442 59.0869 11.3902 58.2786 12.3595C 57.8707 12.8512 57.3875 13.2201 56.8297 13.4664C 56.2751 13.7118 55.6491 13.8345 54.9526 13.8345C 54.2569 13.8345 53.631 13.7109 53.0748 13.4647C 52.5161 13.2176 52.0321 12.8479 51.6234 12.3562C 51.2164 11.8671 50.9107 11.3095 50.7072 10.6853C 50.5053 10.066 50.4048 9.38 50.4048 8.62976L 50.4048 8.428ZM 63.3308 13.6484L 61.3557 13.6484L 61.3557 0L 63.5465 0L 63.5465 13.6484L 63.3308 13.6484ZM 67.8251 3.598L 67.898 4.35153C 67.9718 4.27165 68.048 4.19588 68.1275 4.12341C 68.3399 3.93153 68.5767 3.766 68.8378 3.62682C 69.0972 3.48929 69.3777 3.38553 69.6777 3.31635C 69.9769 3.24882 70.294 3.21423 70.6288 3.21423C 70.9686 3.21423 71.2856 3.25459 71.5799 3.33447C 71.8775 3.416 72.1515 3.5387 72.4005 3.70094C 72.6534 3.86565 72.8732 4.07317 73.0621 4.32023C 73.1707 4.46188 73.268 4.6167 73.3548 4.7847C 73.4602 4.6307 73.5745 4.48576 73.6969 4.3507C 73.9102 4.11765 74.1502 3.91341 74.4153 3.73882C 74.6837 3.56423 74.9756 3.43247 75.2886 3.34517C 75.6007 3.25788 75.9323 3.21423 76.2818 3.21423C 76.8023 3.21423 77.271 3.30647 77.6878 3.49012C 78.1069 3.67541 78.4702 3.95212 78.7783 4.31941C 79.084 4.68917 79.3126 5.14788 79.4634 5.69388C 79.6118 6.23082 79.6864 6.85341 79.6864 7.56082L 79.6864 13.6484L 77.4956 13.6484L 77.4956 7.53941C 77.4956 7.07247 77.4567 6.67717 77.3788 6.35353C 77.305 6.04388 77.1964 5.80094 77.0537 5.62553C 76.915 5.45341 76.7391 5.32412 76.5283 5.23682C 76.3094 5.14706 76.0507 5.10176 75.754 5.10176C 75.4823 5.10176 75.2391 5.1487 75.0234 5.24259C 74.811 5.33482 74.6213 5.47565 74.455 5.66341C 74.2848 5.85694 74.1502 6.07682 74.0513 6.32059C 73.9515 6.56435 73.8859 6.83447 73.8542 7.13094L 73.8542 13.6484L 71.6537 13.6484L 71.6537 7.53941C 71.6537 6.67388 71.5021 6.04388 71.1988 5.66094C 71.0521 5.47482 70.8729 5.33565 70.6637 5.24341C 70.4505 5.14953 70.1991 5.10176 69.9129 5.10176C 69.4199 5.10176 69.0169 5.20141 68.7088 5.4007C 68.5548 5.50282 68.4177 5.62388 68.2994 5.76388C 68.1891 5.894 68.0942 6.04306 68.0132 6.21106L 68.0132 13.6484L 65.8215 13.6484L 65.8215 3.39953L 67.8064 3.39953L 67.8251 3.598ZM 85.7691 5.06471C 85.5064 5.06471 85.264 5.12071 85.0426 5.23024C 84.8172 5.34142 84.6105 5.51024 84.4215 5.73507C 84.2294 5.96895 84.0721 6.23248 83.9529 6.52483C 83.8556 6.76365 83.7818 7.02307 83.7332 7.30142L 87.7483 7.30142L 87.7483 7.28907C 87.7483 6.96212 87.7061 6.66483 87.6218 6.39801C 87.5383 6.13365 87.4118 5.89483 87.2448 5.68236C 87.0818 5.47812 86.8807 5.32495 86.6399 5.22201C 86.3934 5.11742 86.1032 5.06471 85.7691 5.06471ZM 86.0344 13.8345C 85.3347 13.8345 84.703 13.7151 84.1412 13.4762C 83.5768 13.2358 83.0839 12.8751 82.663 12.3949C 82.2471 11.9206 81.9341 11.3729 81.7266 10.7545C 81.5198 10.1409 81.416 9.45823 81.416 8.71047L 81.416 8.31023C 81.416 7.58717 81.5222 6.92259 81.7355 6.31812C 81.9487 5.71117 82.2706 5.16435 82.7003 4.67847C 83.1293 4.19259 83.5987 3.82694 84.1095 3.58317C 84.6244 3.33694 85.1782 3.21423 85.7693 3.21423C 86.4463 3.21423 87.0439 3.31882 87.5628 3.52882C 88.089 3.74129 88.5309 4.06165 88.8876 4.48659C 89.2395 4.90741 89.5039 5.39906 89.679 5.95906C 89.8525 6.51329 89.9393 7.13341 89.9393 7.81776L 89.9393 9.1527L 83.649 9.1527C 83.6684 9.5307 83.7268 9.87988 83.8233 10.1978C 83.9328 10.5576 84.0933 10.8796 84.3041 11.1638C 84.5101 11.4372 84.7557 11.6422 85.0403 11.7781C 85.3266 11.9148 85.659 11.9832 86.0344 11.9832C 86.606 11.9832 87.103 11.9016 87.5287 11.7378C 87.7395 11.6579 87.9366 11.5615 88.1198 11.4487C 88.3039 11.3367 88.4725 11.2091 88.6249 11.0682L 88.8195 10.8895L 89.726 12.4295L 89.6076 12.5498C 89.4244 12.7359 89.212 12.9064 88.9695 13.0604C 88.7303 13.2119 88.4628 13.3478 88.1701 13.468C 87.8741 13.5899 87.5457 13.6821 87.1857 13.7431C 86.8298 13.804 86.4463 13.8345 86.0344 13.8345ZM 0 13.4293L 0 0L 4.45946 0C 5.15595 0 5.78027 0.0774118 6.33162 0.231412C 6.89027 0.387882 7.37351 0.624235 7.77892 0.939647C 8.19243 1.26 8.50297 1.66106 8.70973 2.142C 8.91405 2.618 9.01703 3.16812 9.01703 3.79235C 9.01703 4.11024 8.96595 4.41329 8.86459 4.70071C 8.76324 4.98647 8.61324 5.25494 8.41378 5.50612C 8.21514 5.754 7.98649 5.96976 7.72784 6.15259C 7.62568 6.22506 7.51946 6.29176 7.40757 6.35353C 7.60216 6.43094 7.78622 6.52318 7.9573 6.63188C 8.28811 6.84024 8.57595 7.10871 8.81757 7.43647C 9.05595 7.76259 9.23595 8.11424 9.35513 8.49306C 9.47513 8.87106 9.53514 9.27376 9.53514 9.70118C 9.53514 10.3336 9.43216 10.8953 9.22784 11.3861C 9.02108 11.8802 8.70973 12.3002 8.29622 12.642C 7.88838 12.9788 7.40919 13.2325 6.85946 13.3996C 6.31622 13.5652 5.70405 13.6484 5.02297 13.6484L 0 13.6484L 0 13.4293Z"/>
<path id="path6_fill" fill-rule="evenodd" d="M 2.06703e-14 13.835L 7.71855 13.835L 7.71855 0L 0 0L 0 13.835L 2.06703e-14 13.835Z"/>
<path id="path7_fill" fill-rule="evenodd" d="M 1.96509 8.89329C 1.96509 9.37176 2.008 9.8 2.09309 10.1755C 2.17672 10.5469 2.30327 10.8714 2.46982 11.1481C 2.62836 11.4141 2.83054 11.6126 3.07563 11.7443C 3.32654 11.8794 3.62691 11.9469 3.97527 11.9469C 4.19345 11.9469 4.39345 11.9189 4.57454 11.8638C 4.75127 11.8102 4.912 11.7287 5.05527 11.6216C 5.20145 11.5121 5.33382 11.3787 5.45236 11.2247C 5.56363 11.0806 5.664 10.9159 5.75345 10.7339L 5.75345 6.26706C 5.664 6.09658 5.56363 5.94506 5.45454 5.81082C 5.33454 5.66423 5.2 5.53494 5.05163 5.42541C 4.90691 5.31917 4.74691 5.23847 4.57236 5.18411C 4.39709 5.12976 4.20363 5.10258 3.992 5.10258C 3.64436 5.10258 3.34618 5.18164 3.09672 5.33894C 2.848 5.49623 2.64291 5.73506 2.48 6.05458C 2.30982 6.38894 2.18109 6.77435 2.09527 7.21082C 2.00872 7.65223 1.96509 8.14964 1.96509 8.70141L 1.96509 8.89329ZM 0 8.70141C 0 7.07988 0.309818 5.76471 0.928727 4.75835C 1.24582 4.24529 1.62691 3.85906 2.07273 3.60129C 2.51782 3.34353 3.024 3.21424 3.58982 3.21424C 3.856 3.21424 4.10836 3.24306 4.34764 3.29906C 4.58618 3.35506 4.81164 3.44071 5.02327 3.556C 5.23418 3.66718 5.42909 3.80718 5.60873 3.97271C 5.65818 4.018 5.70618 4.06494 5.75345 4.11435L 5.75345 0L 7.71855 0L 7.71855 13.6492L 6.07127 13.6492L 5.93309 12.7384C 5.86036 12.8289 5.784 12.9129 5.70545 12.992C 5.51855 13.1789 5.31491 13.3354 5.096 13.4614C 4.87564 13.5858 4.63709 13.6796 4.38109 13.7422C 4.12873 13.804 3.85891 13.8353 3.57309 13.8353C 3.01818 13.8353 2.51927 13.72 2.07927 13.4894C 1.63782 13.258 1.25673 12.9113 0.938182 12.4493C 0.624727 11.9947 0.389091 11.4668 0.232727 10.8689C 0.0778182 10.2776 0 9.618 0 8.89329L 0 8.70141Z"/>
<path id="path8_fill" fill-rule="evenodd" d="M 5.99726 9.70032C 5.93475 9.78453 5.8699 9.8644 5.8027 9.94081C 5.60266 10.1683 5.37918 10.3619 5.1346 10.5208C 4.88924 10.6805 4.622 10.8012 4.33678 10.8811C 4.0547 10.9601 3.75464 11 3.43739 11C 2.90369 11 2.42547 10.9045 2.00352 10.7126C 1.57687 10.519 1.21039 10.2273 0.904083 9.84009C 0.600117 9.45462 0.371948 8.96409 0.221137 8.37024C 0.0742332 7.78856 0 7.10616 0 6.32565L 0 0L 2.11135 0L 2.11135 6.34562C 2.11135 6.88129 2.14729 7.33102 2.21684 7.69305C 2.28326 8.03686 2.38093 8.29905 2.50752 8.4779C 2.62942 8.65241 2.78804 8.78437 2.98183 8.87206C 3.185 8.96409 3.42958 9.0101 3.71323 9.0101C 4 9.0101 4.25864 8.97885 4.48916 8.91634C 4.71655 8.8547 4.91893 8.76267 5.09709 8.64025C 5.27447 8.51784 5.43075 8.36938 5.56515 8.19574C 5.69174 8.03165 5.79957 7.84412 5.88787 7.63575L 5.88787 0L 8 0L 8 10.8047L 6.07775 10.8047L 5.99726 9.70032Z"/>
<path id="path9_fill" fill-rule="evenodd" d="M 1.80311 14L 0 14L 0 0L 2 0L 2 14L 1.80311 14Z"/>
<path id="path10_fill" fill-rule="evenodd" d="M 0 13.8343L 4.24583 13.8343L 4.24583 0L 2.36848e-14 0L 2.36848e-14 13.8343L 0 13.8343Z"/>
<path id="path11_fill" fill-rule="evenodd" d="M 2.25167 0.219059L 2.25167 3.39953L 4.24583 3.39953L 4.24583 5.15776L 2.25167 5.15776L 2.25167 10.8648C 2.25167 11.074 2.2725 11.2486 2.31333 11.3878C 2.35 11.5113 2.40333 11.6068 2.4725 11.6744C 2.54667 11.7452 2.6325 11.7987 2.73167 11.8341C 2.83417 11.8712 2.95167 11.8901 3.08583 11.8901C 3.13167 11.8901 3.17833 11.8876 3.22417 11.8827C 3.2725 11.8778 3.32667 11.8687 3.385 11.8572L 3.54917 11.8201C 3.595 11.8086 3.64083 11.7946 3.68417 11.7781L 3.93 11.6842L 4.24583 13.3198L 4.14583 13.4021C 4.06417 13.4705 3.96417 13.5314 3.84833 13.5841C 3.73917 13.6335 3.6125 13.678 3.47083 13.7175C 3.33 13.7554 3.18833 13.7851 3.04667 13.8048C 2.90417 13.8238 2.76333 13.8345 2.625 13.8345C 2.2325 13.8345 1.87667 13.7744 1.55833 13.6558C 1.23667 13.5347 0.955 13.3527 0.715833 13.1114C 0.4725 12.866 0.291667 12.5547 0.1725 12.1784C 0.0575 11.8127 0 11.3845 0 10.8961L 0 0L 2.25167 0L 2.25167 0.219059Z"/>
<path id="path12_fill" fill-rule="evenodd" d="M 4.50195 8.51877L 8.53824 8.51877L 6.5375 3.15579L 4.50195 8.51877ZM 9.27266 10.5122L 3.74823 10.5122L 2.42281 14L 0 14C 1.86062 9.33474 3.72212 4.66864 5.57491 0L 7.51299 0C 9.34576 4.66526 11.1724 9.33305 13 14L 10.5746 14L 9.27266 10.5122Z"/>
<path id="path13_fill" fill-rule="evenodd" d="M 36.7759 14.1872L 36.7759 0L 0 0L 2.34788e-14 14.1872L 36.7759 14.1872Z"/>
<path id="path14_fill" fill-rule="evenodd" d="M 15.3256 12.2208C 15.6296 12.2208 15.9187 12.1817 16.1913 12.1033C 16.4656 12.0242 16.7241 11.9075 16.9662 11.7517C 17.2074 11.5967 17.4073 11.4292 17.5643 11.2517C 17.7055 11.0908 17.8121 10.9217 17.8823 10.7442L 17.8823 9.39334L 16.0897 9.39334C 15.751 9.39334 15.4478 9.43584 15.181 9.52001C 14.9208 9.60167 14.6928 9.72584 14.497 9.89001C 14.3045 10.0525 14.1608 10.23 14.0658 10.4183C 13.9741 10.6025 13.927 10.8017 13.927 11.0142C 13.927 11.2067 13.9559 11.3758 14.0137 11.5225C 14.0707 11.6658 14.155 11.79 14.2665 11.895C 14.378 12.0008 14.5185 12.0808 14.6878 12.135C 14.8679 12.1917 15.081 12.2208 15.3256 12.2208ZM 18.0854 13.82L 18.0053 13.3925L 17.9433 13.0175L 17.9235 12.8608C 17.8434 12.9475 17.7591 13.0308 17.6716 13.1108C 17.4436 13.3208 17.1875 13.5092 16.9066 13.6767C 16.6241 13.8458 16.3267 13.9742 16.0177 14.0592C 15.708 14.145 15.3883 14.1875 15.0611 14.1875C 14.5267 14.1875 14.0517 14.1167 13.6378 13.9758C 13.2157 13.8325 12.858 13.6158 12.5663 13.3283C 12.2739 13.04 12.0542 12.6975 11.9088 12.3017C 11.7659 11.9117 11.6948 11.4708 11.6948 10.98C 11.6948 10.47 11.7981 10.0125 12.0046 9.60916C 12.2103 9.20666 12.5184 8.85916 12.929 8.57083C 13.3313 8.28749 13.8038 8.07583 14.3457 7.93583C 14.8827 7.79666 15.4857 7.72749 16.1549 7.72749L 17.8822 7.72749L 17.8822 6.97166C 17.8822 6.71083 17.8434 6.47833 17.7657 6.27666C 17.6897 6.07916 17.5749 5.90666 17.4229 5.75999C 17.2709 5.61333 17.085 5.50249 16.8678 5.42916C 16.6423 5.35249 16.3796 5.31416 16.0805 5.31416C 15.8145 5.31416 15.575 5.34749 15.3626 5.41416C 15.1553 5.47916 14.9719 5.57666 14.815 5.70499C 14.658 5.83333 14.5407 5.97249 14.4639 6.12249C 14.3903 6.26666 14.3523 6.42333 14.3523 6.59249L 14.3523 6.81499L 12.269 6.81499L 12.1987 6.61333L 12.1863 6.55083C 12.1657 6.15083 12.2491 5.76749 12.4358 5.40249C 12.6176 5.04583 12.8993 4.70833 13.2776 4.38916C 13.6568 4.07166 14.0905 3.83333 14.577 3.67583C 15.0611 3.51916 15.5956 3.44083 16.183 3.44083C 16.762 3.44083 17.2883 3.51583 17.7583 3.66583C 18.2341 3.81749 18.6546 4.04583 19.0173 4.35166C 19.384 4.65999 19.6591 5.03749 19.8425 5.48166C 20.0234 5.92249 20.1143 6.42666 20.1143 6.99333L 20.1143 11.7758C 20.1143 11.9575 20.1193 12.1283 20.1275 12.2883C 20.1366 12.455 20.149 12.6192 20.1655 12.7792C 20.1837 12.9375 20.2093 13.0942 20.2415 13.25C 20.2729 13.4017 20.3134 13.5567 20.3596 13.7133L 20.4456 14L 18.1201 14L 18.0854 13.82ZM 27.1444 5.66999L 26.2374 5.61499C 25.8103 5.61499 25.4518 5.71416 25.1668 5.91249C 25.0214 6.01499 24.8925 6.13749 24.7818 6.27833C 24.6777 6.41166 24.5868 6.56249 24.51 6.73249L 24.51 14L 22.2771 14L 22.2771 3.62916L 24.2961 3.62916L 24.4175 4.66499C 24.4679 4.59749 24.5199 4.53249 24.5736 4.46999C 24.7578 4.25499 24.9602 4.06999 25.1791 3.91416C 25.403 3.75666 25.6434 3.63833 25.902 3.55916C 26.1605 3.47999 26.4323 3.44083 26.719 3.44083C 26.7892 3.44083 26.8611 3.44333 26.9321 3.44916C 26.9974 3.45416 27.0668 3.46333 27.1386 3.47666L 27.3154 3.51166C 27.3724 3.52416 27.4244 3.53833 27.4699 3.55249L 27.6467 3.61083L 27.3451 5.68249L 27.1444 5.66999ZM 32.5272 5.31416C 32.2604 5.31416 32.0134 5.37 31.787 5.48083C 31.5582 5.59333 31.3467 5.76416 31.1551 5.9925C 30.9584 6.22916 30.799 6.49583 30.6776 6.79083C 30.5776 7.03333 30.5024 7.29583 30.4529 7.5775L 34.5437 7.5775L 34.5437 7.56416C 34.5437 7.23333 34.5007 6.93333 34.4148 6.6625C 34.3297 6.395 34.2017 6.15333 34.0307 5.93916C 33.8654 5.7325 33.6598 5.57666 33.4144 5.47333C 33.1633 5.36666 32.8675 5.31416 32.5272 5.31416ZM 32.7972 14.1875C 32.0843 14.1875 31.4408 14.0667 30.8683 13.825C 30.2933 13.5825 29.7911 13.2167 29.3631 12.7308C 28.9385 12.2508 28.6197 11.6967 28.4082 11.0717C 28.1975 10.45 28.0918 9.75916 28.0918 9.00249L 28.0918 8.59833C 28.0918 7.86583 28.2008 7.19416 28.4173 6.58166C 28.6354 5.96833 28.9633 5.41499 29.4003 4.92249C 29.8373 4.43083 30.3156 4.06083 30.8361 3.81416C 31.3606 3.56583 31.9248 3.44083 32.5271 3.44083C 33.2168 3.44083 33.8257 3.54749 34.3544 3.75999C 34.8905 3.97499 35.3407 4.29833 35.7042 4.72833C 36.0627 5.15499 36.332 5.65166 36.5104 6.21833C 36.6872 6.77916 36.7765 7.40666 36.7765 8.09999L 36.7765 9.44999L 30.3677 9.44999C 30.3875 9.83333 30.4461 10.1858 30.5453 10.5075C 30.656 10.8725 30.8204 11.1983 31.0343 11.485C 31.2441 11.7617 31.4944 11.97 31.7844 12.1067C 32.0768 12.245 32.4147 12.315 32.7972 12.315C 33.3796 12.315 33.886 12.2317 34.3197 12.0667C 34.5345 11.9858 34.7352 11.8875 34.9219 11.7742C 35.1094 11.66 35.2812 11.5317 35.4365 11.3892L 35.6348 11.2083L 36.5584 12.7667L 36.4378 12.8883C 36.2519 13.0758 36.0346 13.2483 35.7876 13.4042C 35.5439 13.5575 35.2721 13.6958 34.9731 13.8167C 34.6724 13.9408 34.337 14.0342 33.9702 14.0958C 33.6084 14.1567 33.2168 14.1875 32.7972 14.1875ZM 10.3567 9.40917L 10.3748 9.46583L 10.3856 9.53083C 10.398 10.1892 10.2897 10.7958 10.0593 11.3492C 9.82878 11.9042 9.4777 12.4058 9.006 12.8517C 8.53513 13.2975 7.98743 13.6325 7.36457 13.8558C 6.74748 14.0767 6.0577 14.1875 5.29522 14.1875C 4.5187 14.1875 3.80991 14.0475 3.17052 13.7675C 2.5303 13.4867 1.96278 13.0667 1.46961 12.5092C 0.979739 11.9508 0.61213 11.3183 0.366783 10.6125C 0.122261 9.90917 0 9.13417 0 8.28833L 0 5.91C 0 5.06417 0.122261 4.28833 0.365957 3.58417C 0.611304 2.8775 0.978913 2.24417 1.46961 1.68667C 1.96278 1.12417 2.5303 0.7025 3.1697 0.421667C 3.80909 0.140833 4.51787 0 5.29522 0C 6.06761 0 6.764 0.105833 7.38439 0.315C 8.01056 0.526667 8.55661 0.845 9.02087 1.2675C 9.48926 1.695 9.83787 2.19083 10.065 2.755C 10.2914 3.315 10.398 3.9425 10.3856 4.6375L 10.3748 4.70417L 10.3063 4.9125L 8.20635 4.9125L 8.20635 4.69083C 8.20635 4.2475 8.14274 3.85417 8.01635 3.51083C 7.89161 3.17167 7.70409 2.87667 7.45626 2.6275C 7.20596 2.3775 6.90361 2.19 6.54922 2.06417C 6.18904 1.9375 5.77104 1.87333 5.29522 1.87333C 4.83013 1.87333 4.41296 1.9675 4.04617 2.15417C 3.67857 2.34167 3.35722 2.62417 3.0813 3.00083C 2.79961 3.385 2.58813 3.8175 2.44604 4.29667C 2.30396 4.77833 2.23291 5.31083 2.23291 5.89083L 2.23291 8.27833C 2.23291 8.86583 2.30396 9.4025 2.44604 9.8875C 2.5873 10.3683 2.79961 10.8017 3.0813 11.1867C 3.35722 11.5642 3.67939 11.8467 4.04617 12.0342C 4.41296 12.2208 4.83013 12.315 5.29522 12.315C 5.77104 12.315 6.18904 12.2517 6.54922 12.1258C 6.90361 12.0017 7.20596 11.815 7.45626 11.5675C 7.70326 11.32 7.89078 11.0242 8.01552 10.68C 8.14274 10.3308 8.20635 9.93 8.20635 9.47833L 8.20635 9.25667L 10.3063 9.25667L 10.3567 9.40917Z"/>
</defs>
</svg>
