<svg width="24" height="20" viewBox="0 0 24 20" version="1.1" xmlns="http://www.w3.org/2000/svg" xmlns:xlink="http://www.w3.org/1999/xlink">
<title>Activity</title>
<desc>Created using Figma</desc>
<g id="Canvas" transform="translate(-14457 -2232)">
<g id="Activity">
<g id="Shape">
<use xlink:href="#path0_fill" transform="translate(14457 2232)" fill="#5AB9AC"/>
</g>
</g>
</g>
<defs>
<path id="path0_fill" fill-rule="evenodd" d="M 21.5 0L 2.5 0C 1.83691 0 1.20117 0.263428 0.732422 0.732178C 0.263672 1.20117 0 1.83691 0 2.5L 0 17.5C 0 18.8806 1.11914 20 2.5 20L 21.5 20C 22.8809 20 24 18.8806 24 17.5L 24 2.5C 24 1.83691 23.7363 1.20117 23.2676 0.732178C 22.7988 0.263428 22.1631 0 21.5 0ZM 5.40918 17.9148C 5.17773 18.416 4.58398 18.635 4.08203 18.4041C 3.58105 18.1726 3.3623 17.5786 3.59277 17.0771L 6.59375 10.5796C 6.73047 10.2827 7.00391 10.0715 7.32617 10.0142C 7.64746 9.95679 7.97754 10.0603 8.20898 10.2915L 10.1953 12.2764L 12.5938 7.08032C 12.7422 6.76074 13.0469 6.54224 13.3965 6.50513C 13.7471 6.46777 14.0908 6.61768 14.3027 6.89917L 16.1572 9.37158L 18.5547 2.18457C 18.7285 1.6604 19.2949 1.3772 19.8193 1.55176C 20.3438 1.72632 20.627 2.29272 20.4521 2.81665L 17.4512 11.814C 17.334 12.1667 17.0303 12.425 16.6631 12.4846C 16.2959 12.5442 15.9258 12.3953 15.7021 12.0979L 13.708 9.43945L 11.4102 14.4158C 11.2725 14.7126 10.999 14.9236 10.6777 14.981C 10.3555 15.0383 10.0264 14.9348 9.79492 14.7036L 7.80859 12.7188L 5.40918 17.9148Z"/>
</defs>
</svg>
