<svg width="80" height="80" viewBox="0 0 80 80" version="1.1" xmlns="http://www.w3.org/2000/svg" xmlns:xlink="http://www.w3.org/1999/xlink">
<title>Icon</title>
<desc>Created using Figma</desc>
<g id="Canvas" transform="translate(-5177 -1109)">
<g id="Icon">
<g id="Oval">
<use xlink:href="#path0_fill" transform="translate(5177 1109)" fill="#F4F4F5"/>
</g>
<g id="Leaf">
<g id="Shape">
<use xlink:href="#path1_fill" transform="translate(5200.01 1129.8)" fill="#5AB9AC"/>
</g>
</g>
</g>
</g>
<defs>
<path id="path0_fill" fill-rule="evenodd" d="M 40 80C 62.0914 80 80 62.0914 80 40C 80 17.9086 62.0914 0 40 0C 17.9086 0 0 17.9086 0 40C 0 62.0914 17.9086 80 40 80Z"/>
<path id="path1_fill" d="M 12 38.4197C 10.542 38.4185 9.0954 38.1633 7.72497 37.6656C 7.50601 37.588 7.3314 37.4193 7.24623 37.2032C 7.16106 36.987 7.17367 36.7446 7.28081 36.5384C 11.1194 29.4198 15.3416 22.5147 19.9288 15.8538C 20.0444 15.6886 20.0207 15.4634 19.8733 15.3259C 19.7258 15.1883 19.4996 15.1803 19.3427 15.3071C 12.1747 21.3933 6.84033 29.1547 4.00393 34.0174C 3.87538 34.2409 3.64467 34.3863 3.38762 34.406C 3.13056 34.4256 2.88041 34.317 2.71937 34.1156C 0.955959 31.9387 -0.00429632 29.2212 1.44508e-05 26.4196C 1.44508e-05 7.49356 22.2039 1.48756 31.0624 0.0159588C 31.6392 -0.0796295 32.1988 0.2625 32.3767 0.819479C 32.8495 2.2526 33.5999 5.54492 33.5999 11.2195C 33.6 26.0204 24.392 38.4197 12 38.4197Z"/>
</defs>
</svg>
