<svg width="136" height="24" viewBox="0 0 136 24" fill="none" xmlns="http://www.w3.org/2000/svg">
<rect width="24" height="24" fill="#00B67A"/>
<path fill-rule="evenodd" clip-rule="evenodd" d="M13.8873 9.73207H20L15.0564 13.2679L15.0564 13.2681L12.0059 15.4531L15.4798 14.5636L15.1149 13.4464L16.9381 19L11.9944 15.4531L7.0508 19L8.94363 13.2679L4 9.72108L10.1127 9.73207L12.0056 4L13.8873 9.73207Z" fill="white"/>
<rect x="28" width="24" height="24" fill="#00B67A"/>
<path d="M41.8873 9.73207H48L40.0059 15.4531L43.4798 14.5636L43.1149 13.4464L44.9381 19L39.9944 15.4531L35.0508 19L36.9436 13.2679L32 9.72108L38.1127 9.73207L40.0056 4L41.8873 9.73207Z" fill="white"/>
<rect x="56" width="24" height="24" fill="#00B67A"/>
<path d="M69.8873 9.73207H76L68.0059 15.4531L71.4798 14.5636L71.1149 13.4464L72.9381 19L67.9944 15.4531L63.0508 19L64.9436 13.2679L60 9.72108L66.1127 9.73207L68.0056 4L69.8873 9.73207Z" fill="white"/>
<rect x="84" width="24" height="24" fill="#00B67A"/>
<path d="M97.8873 9.73207H104L96.0059 15.4531L99.4798 14.5636L99.1149 13.4464L100.938 19L95.9944 15.4531L91.0508 19L92.9436 13.2679L88 9.72108L94.1127 9.73207L96.0056 4L97.8873 9.73207Z" fill="white"/>
<rect x="112" width="24" height="24" fill="#00B67A"/>
<path d="M125.887 9.73207H132L124.006 15.4531L127.48 14.5636L127.115 13.4464L128.938 19L123.994 15.4531L119.051 19L120.944 13.2679L116 9.72108L122.113 9.73207L124.006 4L125.887 9.73207Z" fill="white"/>
</svg>
