<svg width="136" height="24" viewBox="0 0 136 24" fill="none" xmlns="http://www.w3.org/2000/svg">
<rect width="24" height="24" fill="#F8CF47"/>
<path d="M13.8873 9.73207H20L12.0056 15.453L15.4795 14.5636L15.0728 13.3179L16.9381 19L11.9944 15.4531L7.0508 19L8.94363 13.2679L4 9.72108L10.1127 9.73207L12.0056 4L13.8873 9.73207Z" fill="white"/>
<rect x="28" width="24" height="24" fill="#F8CF47"/>
<path d="M41.8873 9.73207H48L40.0056 15.453L43.4795 14.5636L43.0728 13.3179L44.9381 19L39.9944 15.4531L35.0508 19L36.9436 13.2679L32 9.72108L38.1127 9.73207L40.0056 4L41.8873 9.73207Z" fill="white"/>
<rect x="56" width="24" height="24" fill="#F8CF47"/>
<path d="M69.8873 9.73207H76L68.0056 15.453L71.4795 14.5636L71.0728 13.3179L72.9381 19L67.9944 15.4531L63.0508 19L64.9436 13.2679L60 9.72108L66.1127 9.73207L68.0056 4L69.8873 9.73207Z" fill="white"/>
<rect opacity="0.5" x="84" width="24" height="24" fill="#C4C4C4"/>
<path d="M97.8873 9.73207H104L96.0056 15.453L99.4795 14.5636L99.0728 13.3179L100.938 19L95.9944 15.4531L91.0508 19L92.9436 13.2679L88 9.72108L94.1127 9.73207L96.0056 4L97.8873 9.73207Z" fill="white"/>
<rect opacity="0.5" x="112" width="24" height="24" fill="#C4C4C4"/>
<path d="M125.887 9.73207H132L124.006 15.453L127.48 14.5636L127.073 13.3179L128.938 19L123.994 15.4531L119.051 19L120.944 13.2679L116 9.72108L122.113 9.73207L124.006 4L125.887 9.73207Z" fill="white"/>
</svg>
