<svg width="24" height="24" viewBox="0 0 24 24" version="1.1" xmlns="http://www.w3.org/2000/svg" xmlns:xlink="http://www.w3.org/1999/xlink">
<title>facebook</title>
<desc>Created using Figma</desc>
<g id="Canvas" transform="translate(-7671 -1754)">
<g id="facebook">
<g id="Shape">
<use xlink:href="#path0_fill" transform="translate(7671 1754)" fill="#6D6E6F"/>
</g>
</g>
</g>
<defs>
<path id="path0_fill" d="M 22.6719 0C 23.0365 0 23.349 0.130208 23.6094 0.390625C 23.8698 0.651042 24 0.963542 24 1.32812L 24 22.6719C 24 23.0365 23.8698 23.349 23.6094 23.6094C 23.349 23.8698 23.0365 24 22.6719 24L 16.5625 24L 16.5625 14.7031L 19.6719 14.7031L 20.1406 11.0781L 16.5625 11.0781L 16.5625 8.76562C 16.5625 8.18229 16.6849 7.74479 16.9297 7.45312C 17.1745 7.16146 17.651 7.01562 18.3594 7.01562L 20.2656 7L 20.2656 3.76562C 19.6094 3.67188 18.6823 3.625 17.4844 3.625C 16.0677 3.625 14.9349 4.04167 14.0859 4.875C 13.237 5.70833 12.8125 6.88542 12.8125 8.40625L 12.8125 11.0781L 9.6875 11.0781L 9.6875 14.7031L 12.8125 14.7031L 12.8125 24L 1.32812 24C 0.963542 24 0.651042 23.8698 0.390625 23.6094C 0.130208 23.349 0 23.0365 0 22.6719L 0 1.32812C 0 0.963542 0.130208 0.651042 0.390625 0.390625C 0.651042 0.130208 0.963542 0 1.32812 0L 22.6719 0Z"/>
</defs>
</svg>
