<svg width="24" height="24" viewBox="0 0 24 24" version="1.1" xmlns="http://www.w3.org/2000/svg" xmlns:xlink="http://www.w3.org/1999/xlink">
<title>linkedin</title>
<desc>Created using Figma</desc>
<g id="Canvas" transform="translate(-7773 -1754)">
<g id="linkedin">
<g id="Shape">
<use xlink:href="#path0_fill" transform="translate(7785.72 1764.83)"/>
</g>
<g id="Shape">
<use xlink:href="#path1_fill" transform="translate(7773.23 1754.31)" fill="#6D6E6F"/>
</g>
</g>
</g>
<defs>
<path id="path0_fill" d="M 0.025 0.0385L 0.025 0C 0.017 0.013 0.0085 0.026 0 0.0385L 0.025 0.0385Z"/>
<path id="path1_fill" fill-rule="evenodd" d="M 1.71826 0L 21.5391 0C 22.4888 0 23.2588 0.75061 23.2588 1.67676L 23.2588 21.7299C 23.2588 22.6545 22.4893 23.4061 21.5391 23.4061L 1.71826 23.4061C 0.769531 23.4061 0 22.655 0 21.7299L 0 1.67676C 0 0.751099 0.769531 0 1.71826 0ZM 7.05029 19.5939L 7.05029 9.0249L 3.53711 9.0249L 3.53711 19.5939L 7.05029 19.5939ZM 5.29395 7.58118L 5.27051 7.58118C 4.0918 7.58118 3.32959 6.76941 3.32959 5.75537C 3.32959 4.71863 4.11523 3.92944 5.31689 3.92944C 6.51855 3.92944 7.2583 4.71863 7.28174 5.75537C 7.28174 6.76941 6.51807 7.58118 5.29395 7.58118ZM 16.2046 19.5939L 19.7173 19.5939L 19.7178 13.5327C 19.7178 10.2861 17.9849 8.77502 15.6738 8.77502C 13.8086 8.77502 12.9741 9.80042 12.5073 10.5204L 12.5073 9.02441L 8.99414 9.02441C 9.04004 10.015 8.99414 19.5934 8.99414 19.5934L 12.5073 19.5934L 12.5073 13.6908C 12.5073 13.3745 12.5298 13.0592 12.6226 12.8339C 12.877 12.2023 13.4551 11.5487 14.4253 11.5487C 15.6963 11.5487 16.2046 12.5181 16.2046 13.9384L 16.2046 19.5939Z"/>
</defs>
</svg>
