<svg width="24" height="24" viewBox="0 0 24 24" version="1.1" xmlns="http://www.w3.org/2000/svg" xmlns:xlink="http://www.w3.org/1999/xlink">
<title>instagram</title>
<desc>Created using Figma</desc>
<g id="Canvas" transform="translate(-7739 -1754)">
<g id="instagram">
<g id="Shape">
<use xlink:href="#path0_fill" transform="translate(7744.84 1759.98)" fill="#6D6E6F"/>
</g>
<g id="Oval">
<use xlink:href="#path1_fill" transform="translate(7755.75 1758.47)" fill="#6D6E6F"/>
</g>
<g id="Shape">
<use xlink:href="#path2_fill" transform="translate(7739.19 1754.38)" fill="#6D6E6F"/>
</g>
</g>
</g>
<defs>
<path id="path0_fill" fill-rule="evenodd" d="M 0 6.02356C 0 2.68237 2.72949 0 6.02344 0C 9.31787 0 12.0469 2.72937 12.0469 6.02356C 12.0469 9.31763 9.36475 12.0471 6.02344 12.0471C 2.68213 12.0471 0 9.36475 0 6.02356ZM 2.16455 6.02344C 2.16455 8.14111 3.90576 9.88232 6.02344 9.88232C 8.14111 9.88232 9.88232 8.14111 9.88232 6.02344C 9.88232 3.90588 8.14111 2.16467 6.02344 2.16467C 3.90576 2.16467 2.16455 3.90588 2.16455 6.02344Z"/>
<path id="path1_fill" d="M 1.36471 2.72941C 2.11841 2.72941 2.72941 2.11841 2.72941 1.36471C 2.72941 0.611 2.11841 0 1.36471 0C 0.611 0 0 0.611 0 1.36471C 0 2.11841 0.611 2.72941 1.36471 2.72941Z"/>
<path id="path2_fill" fill-rule="evenodd" d="M 16.5176 0C 18.4941 0 20.2354 0.658813 21.459 1.92944C 22.6821 3.15295 23.3413 4.84705 23.3413 6.82349L 23.3413 16.5177C 23.3413 18.5411 22.6821 20.2823 21.4116 21.5059C 20.1885 22.6824 18.4941 23.3412 16.4707 23.3412L 6.87061 23.3412C 4.94141 23.3412 3.24707 22.7294 1.97656 21.5059C 0.658691 20.2354 0 18.4941 0 16.4706L 0 6.82349C 0 2.72937 2.72949 0 6.82373 0L 16.5176 0ZM 19.9058 19.9529C 20.7529 19.153 21.2705 17.9764 21.2705 16.5176L 21.2705 6.82349C 21.2705 5.45874 20.7998 4.28235 20 3.4353C 19.1528 2.58826 17.9761 2.16467 16.5645 2.16467L 6.87061 2.16467C 5.4585 2.16467 4.23535 2.58826 3.43506 3.38818C 2.58789 4.23523 2.16455 5.41174 2.16455 6.82349L 2.16455 16.4706C 2.16455 17.9293 2.58789 19.1058 3.43506 19.9529C 4.28223 20.7529 5.4585 21.1764 6.87061 21.1764L 16.4702 21.1764C 17.8823 21.1764 19.0586 20.7529 19.9058 19.9529Z"/>
</defs>
</svg>
