<svg width="24" height="20" viewBox="0 0 24 20" version="1.1" xmlns="http://www.w3.org/2000/svg" xmlns:xlink="http://www.w3.org/1999/xlink">
<title>twitter</title>
<desc>Created using Figma</desc>
<g id="Canvas" transform="translate(-7705 -1756)">
<g id="twitter">
<g id="Shape">
<use xlink:href="#path0_fill" transform="translate(7705.28 1756.16)" fill="#6D6E6F"/>
</g>
</g>
</g>
<defs>
<path id="path0_fill" d="M 23.6462 2.27472C 22.777 2.66112 21.8414 2.92176 20.8598 3.0384C 21.8621 2.4384 22.6306 1.488 22.993 0.35424C 22.0555 0.91056 21.0178 1.31424 19.9123 1.53216C 19.0277 0.58944 17.7667 0 16.3714 0C 13.6925 0 11.5205 2.172 11.5205 4.85136C 11.5205 5.23104 11.5632 5.60112 11.6462 5.9568C 7.61424 5.75424 4.0392 3.8232 1.6464 0.888C 1.2288 1.60416 0.98976 2.43744 0.98976 3.32736C 0.98976 5.01024 1.84608 6.49536 3.14784 7.36512C 2.35296 7.33968 1.60464 7.12128 0.9504 6.75792C 0.94992 6.77808 0.94992 6.79872 0.94992 6.81936C 0.94992 9.16944 2.62224 11.1298 4.84176 11.5762C 4.43472 11.6866 4.00608 11.7461 3.56352 11.7461C 3.25056 11.7461 2.94672 11.7158 2.65056 11.6587C 3.26832 13.5859 5.05968 14.989 7.18224 15.0278C 5.52192 16.3291 3.43056 17.1048 1.15728 17.1048C 0.76608 17.1048 0.37968 17.0818 0 17.0366C 2.14752 18.4138 4.69728 19.2163 7.43664 19.2163C 16.3603 19.2163 21.2395 11.8243 21.2395 5.41344C 21.2395 5.2032 21.2352 4.99344 21.2261 4.78512C 22.1736 4.10256 22.9963 3.24768 23.6462 2.27472Z"/>
</defs>
</svg>
