<svg width="317" height="528" viewBox="0 0 317 528" version="1.1" xmlns="http://www.w3.org/2000/svg" xmlns:xlink="http://www.w3.org/1999/xlink">
<title>Shape</title>
<desc>Created using Figma</desc>
<g id="Canvas" transform="translate(-5057 -2620)">
<g id="Shape">
<use xlink:href="#path0_fill" transform="translate(4915 2620)" fill="#EDEDEE"/>
</g>
</g>
<defs>
<path id="path0_fill" d="M 436.05 528L 97.3677 528C 79.1082 528 61.5966 520.744 48.685 507.829L 13.4453 472.578C 4.83688 463.968 0.000469432 452.29 0 440.113L 0 22.9565C 0 10.278 10.2751 0 22.95 0L 367.2 0C 379.875 0 390.15 10.278 390.15 22.9565L 390.15 436.174C 390.15 448.852 379.875 459.13 367.2 459.13L 78.3983 459.13C 76.0776 459.13 73.9855 460.529 73.0975 462.674C 72.2096 464.818 72.7007 467.287 74.3419 468.928L 80.7748 475.363C 85.079 479.668 90.9168 482.087 97.0039 482.087L 407.362 482.087C 410.531 482.087 413.1 479.517 413.1 476.348L 413.1 74.6087C 413.1 71.4391 415.669 68.8696 418.837 68.8696L 436.05 68.8696C 448.725 68.8696 459 79.1476 459 91.8261L 459 505.043C 459 517.722 448.725 528 436.05 528Z"/>
</defs>
</svg>