<svg width="1440" height="1608" viewBox="0 0 1440 1608" fill="none" xmlns="http://www.w3.org/2000/svg">
<rect x="-4" y="5" width="1440" height="1354" fill="#5AB9AC"/>
<path opacity="0.1" fill-rule="evenodd" clip-rule="evenodd" d="M-423.36 310.221C-335.398 257.712 -298.765 118.428 -197.523 113.914C-98.2969 109.489 -41.789 218.713 21.7113 290.375C77.5024 353.337 136.695 418.067 146.44 502.087C155.831 583.059 109.438 658.506 73.1455 733.859C37.0283 808.848 -1.72417 879.786 -63.269 937.5C-142.069 1011.4 -221.785 1111.11 -328.723 1110.71C-436.076 1110.31 -499.434 1002.6 -579.053 935.573C-660.739 866.802 -776.016 818.826 -799.09 714.716C-822.274 610.108 -771.248 492.823 -695.3 411.061C-628.064 338.677 -508.574 361.089 -423.36 310.221Z" stroke="white" stroke-width="12"/>
<path opacity="0.1" fill-rule="evenodd" clip-rule="evenodd" d="M1447.28 411.166C1490.82 318.436 1443.26 182.491 1524.66 122.114C1604.43 62.939 1712.37 121.863 1805.09 145.741C1886.56 166.72 1971.83 187.262 2026.91 251.455C2079.99 313.319 2083.74 401.809 2095.81 484.57C2107.83 566.932 2115.39 647.411 2096.66 729.678C2072.68 835.011 2062.39 962.26 1973.52 1021.75C1884.31 1081.47 1771.54 1027.63 1668.05 1016.61C1561.87 1005.3 1439.48 1030.02 1362.11 956.635C1284.38 882.896 1261.06 757.134 1278.28 646.876C1293.52 549.265 1405.1 501 1447.28 411.166Z" stroke="white" stroke-width="12"/>
<path opacity="0.05" fill-rule="evenodd" clip-rule="evenodd" d="M463.291 823.223C592.396 817.954 717.096 711.944 831.91 755.322C944.439 797.838 941.019 920.849 968.03 1013.92C991.763 1095.69 1018.19 1180.62 978.225 1259.47C939.707 1335.45 842.766 1380.46 757.066 1430.1C671.779 1479.5 586.021 1524.09 483.018 1546.32C351.136 1574.79 202.642 1625.66 84.4889 1575.27C-34.1216 1524.69 -39.1998 1399.81 -86.8549 1303.29C-135.748 1204.26 -234.392 1107.91 -197.045 1005.06C-159.519 901.723 -32.1736 821.899 101.302 785.143C219.469 752.604 338.219 828.328 463.291 823.223Z" fill="white"/>
<path opacity="0.05" fill-rule="evenodd" clip-rule="evenodd" d="M1229.03 191.53C1152.8 175.998 1065.21 217.439 1004.07 176.744C944.136 136.86 963.15 68.5519 960.225 12.6321C957.656 -36.4989 953.944 -87.7804 988.224 -126.157C1021.26 -163.142 1084.18 -174.434 1141.16 -189.932C1197.87 -205.356 1254.19 -218.019 1317.51 -215.71C1398.57 -212.754 1492.45 -219.949 1554.58 -174.856C1616.95 -129.589 1602.65 -59.0203 1617.17 1.78189C1632.07 64.1631 1676.43 132.172 1640.37 184.346C1604.13 236.77 1518.61 263.187 1435.47 264.639C1361.86 265.925 1302.89 206.577 1229.03 191.53Z" fill="white"/>
<path opacity="0.05" fill-rule="evenodd" clip-rule="evenodd" d="M1272.03 1310.53C1195.8 1295 1108.21 1336.44 1047.07 1295.75C987.136 1255.86 1006.15 1187.55 1003.23 1131.63C1000.66 1082.5 996.944 1031.22 1031.22 992.843C1064.26 955.859 1127.18 944.566 1184.16 929.068C1240.87 913.645 1297.19 900.982 1360.51 903.291C1441.57 906.247 1535.45 899.051 1597.58 944.144C1659.95 989.412 1645.65 1059.98 1660.17 1120.78C1675.07 1183.16 1719.43 1251.17 1683.37 1303.35C1647.13 1355.77 1561.61 1382.19 1478.47 1383.64C1404.86 1384.93 1345.89 1325.58 1272.03 1310.53Z" fill="white"/>
<path opacity="0.05" fill-rule="evenodd" clip-rule="evenodd" d="M312.243 236.259C413.202 202.902 540.719 250.505 616.212 182.824C690.203 116.491 650.998 20.191 644.122 -61.2743C638.081 -132.849 633.179 -207.704 578.967 -258.45C526.723 -307.355 438.714 -314.772 357.978 -329.127C277.632 -343.413 198.355 -353.755 112.448 -341.401C2.45475 -325.584 -126.987 -322.658 -202.967 -248.462C-279.24 -173.979 -246.023 -73.7329 -254.015 16.4584C-262.214 108.992 -309.509 213.874 -250.18 284.364C-190.567 355.191 -68.798 381.314 44.8864 371.59C145.531 362.982 214.438 268.574 312.243 236.259Z" fill="white"/>
</svg>
