<svg width="346" height="240" viewBox="0 0 346 240" fill="none" xmlns="http://www.w3.org/2000/svg">
<rect width="346" height="240" fill="#E5E5E5"/>
<g clip-path="url(#clip0)" filter="url(#filter0_d)">
<rect width="375" height="5420" transform="translate(-15 -4979)" fill="white"/>
<rect x="-15" y="-648" width="375" height="1089" fill="#49504F"/>
<rect opacity="0.2" y="24" width="346" height="216" rx="10" fill="#7E8E8B"/>
<mask id="mask0" mask-type="alpha" maskUnits="userSpaceOnUse" x="0" y="24" width="346" height="216">
<rect opacity="0.2" y="24" width="346" height="216" rx="10" fill="#7E8E8B"/>
</mask>
<g mask="url(#mask0)">
<path d="M-288.196 201.885C-265.817 205.39 -234.065 197.513 -224.22 174.219C-220.251 164.82 -220.713 153.992 -227.322 145.613C-235.67 135.027 -247.737 141.554 -247.103 154.575C-246.066 175.963 -223.265 195.319 -204.115 198.601C-193.049 200.497 -181.791 196.833 -176.065 186.594C-166.931 170.252 -176.367 157.303 -182.878 142.146C-190.973 123.298 -212.554 87.7262 -195.085 68.8017C-182.819 55.5236 -158.643 60.2891 -145.112 68.6993C-129.203 78.5866 -117.882 95.7266 -112.834 113.584C-105.339 140.116 -114.943 168.611 -96.0234 192.339C-87.865 202.573 -76.4348 204.616 -65.2312 197.657C-55.0358 191.324 -53.5416 180.062 -51.0876 169.359C-47.7761 154.903 -45.4227 140.17 -43.9047 125.422C-42.4476 111.274 -50.0332 96.5376 -64.8331 93.0997C-68.6753 92.2043 -73.331 93.5024 -75.0422 97.0605C-76.3319 99.7412 -75.6404 103.043 -74.036 105.547C-62.3473 123.802 -42.7527 120.595 -28.1787 107.727C-15.0587 96.1457 -5.43668 79.2768 -6.47142 61.3568C-6.80329 55.5831 -7.96196 46.7671 -0.480799 44.6941C5.0135 43.172 10.3958 48.5145 12.6313 52.9377C17.6603 62.8765 22.6018 80.0769 37.0537 68.7439C40.7255 65.8628 43.2823 61.8179 45.6163 57.7726C48.3794 52.9862 51.2022 47.5697 55.1833 43.6702" stroke="#E2E2E2" stroke-width="2" stroke-miterlimit="10" stroke-dasharray="5 5"/>
<path d="M189.203 263.675C210.244 263.674 238.251 251.88 243.938 229.088C246.229 219.891 244.248 210.02 236.979 203.281C227.795 194.766 217.66 202.491 220.113 214.35C224.14 233.829 247.847 248.314 265.894 248.573C276.323 248.723 286.128 243.742 289.911 233.522C295.944 217.21 285.422 206.683 277.268 193.709C267.13 177.575 242.21 148.033 255.521 128.154C264.869 114.205 287.741 115.102 301.368 120.875C317.39 127.662 330.244 141.765 337.444 157.427C348.136 180.699 343.419 208.231 364.194 227.287C373.152 235.506 383.936 235.737 393.217 227.741C401.663 220.463 401.416 209.913 402.129 199.737C403.09 185.994 403.132 172.135 402.404 158.382C401.708 145.188 392.628 132.755 378.551 131.727C374.896 131.458 370.81 133.319 369.751 136.83C368.953 139.476 370.062 142.407 371.895 144.474C385.246 159.546 402.768 153.786 414.293 139.882C424.669 127.367 431.074 110.503 427.548 94.2055C426.413 88.9545 424.083 81.0303 430.65 78.0523C435.474 75.8655 441.181 79.9947 443.869 83.7327C449.913 92.1309 456.921 107.206 468.555 94.7275C471.51 91.5556 473.275 87.4759 474.836 83.4278C476.683 78.6379 478.495 73.2612 481.588 69.1101" stroke="#E2E2E2" stroke-width="2" stroke-miterlimit="10" stroke-dasharray="5 5"/>
</g>
<path d="M53.8936 47.781L44.6859 32.2784L91.4493 0.00310314L53.8936 47.781Z" fill="#5AB9AC"/>
<path d="M90.8337 0.578195L53.8961 47.7769L58.0475 35.8218L90.8337 0.578195Z" fill="#4AAFA1"/>
<path d="M91.4517 0.00308779L58.0506 35.8215L73.317 41.1928L91.4517 0.00308779Z" fill="#74E2D3"/>
<path d="M44.6837 32.2954L30.6287 29.1917L91.4578 0.0030859L44.6837 32.2954Z" fill="#74E2D3"/>
</g>
<defs>
<filter id="filter0_d" x="-19" y="-4979" width="383" height="5428" filterUnits="userSpaceOnUse" color-interpolation-filters="sRGB">
<feFlood flood-opacity="0" result="BackgroundImageFix"/>
<feColorMatrix in="SourceAlpha" type="matrix" values="0 0 0 0 0 0 0 0 0 0 0 0 0 0 0 0 0 0 127 0"/>
<feOffset dy="4"/>
<feGaussianBlur stdDeviation="2"/>
<feColorMatrix type="matrix" values="0 0 0 0 0 0 0 0 0 0 0 0 0 0 0 0 0 0 0.25 0"/>
<feBlend mode="normal" in2="BackgroundImageFix" result="effect1_dropShadow"/>
<feBlend mode="normal" in="SourceGraphic" in2="effect1_dropShadow" result="shape"/>
</filter>
<clipPath id="clip0">
<rect width="375" height="5420" fill="white" transform="translate(-15 -4979)"/>
</clipPath>
</defs>
</svg>
