<svg width="1110" height="192" viewBox="0 0 1110 192" fill="none" xmlns="http://www.w3.org/2000/svg">
<rect width="1110" height="192" fill="#E5E5E5"/>
<g clip-path="url(#clip0)">
<rect x="-165" y="-432" width="1440" height="713" fill="#49504F"/>
<rect opacity="0.2" width="1110" height="192" rx="20" fill="#7E8E8B"/>
<mask id="mask0" mask-type="alpha" maskUnits="userSpaceOnUse" x="0" y="0" width="1110" height="192">
<rect opacity="0.2" width="1110" height="192" rx="20" fill="#7E8E8B"/>
</mask>
<g mask="url(#mask0)">
<path d="M-118.196 220.656C-95.8168 224.16 -64.0655 216.283 -54.2201 192.99C-50.2513 183.591 -50.7134 172.762 -57.3221 164.384C-65.6703 153.797 -77.7369 160.325 -77.1035 173.346C-76.066 194.734 -53.2654 214.089 -34.1154 217.371C-23.0488 219.268 -11.7912 215.604 -6.06481 205.364C3.06873 189.022 -6.36728 176.073 -12.8777 160.916C-20.9728 142.068 -42.5543 106.496 -25.0847 87.572C-12.8188 74.2938 11.3571 79.0593 24.888 87.4696C40.7968 97.3568 52.1185 114.497 57.1661 132.354C64.6608 158.886 55.057 187.381 73.9766 211.11C82.135 221.343 93.5652 223.386 104.769 216.427C114.964 210.094 116.458 198.833 118.912 188.13C122.224 173.673 124.577 158.941 126.095 144.192C127.552 130.044 119.967 115.308 105.167 111.87C101.325 110.975 96.669 112.273 94.9578 115.831C93.6681 118.511 94.3596 121.814 95.964 124.317C107.653 142.572 127.247 139.365 141.821 126.497C154.941 114.916 164.563 98.0471 163.529 80.1271C163.197 74.3534 162.038 65.5374 169.519 63.4643C175.013 61.9423 180.396 67.2847 182.631 71.7079C187.66 81.6468 192.602 98.8472 207.054 87.5141C210.726 84.6331 213.282 80.5882 215.616 76.5429C218.379 71.7564 221.202 66.34 225.183 62.4405" stroke="#E2E2E2" stroke-width="2" stroke-miterlimit="10" stroke-dasharray="5 5"/>
<path d="M839 216.693C867.281 216.691 904.925 200.839 912.568 170.205C915.647 157.844 912.985 144.576 903.214 135.518C890.871 124.073 877.248 134.456 880.545 150.395C885.958 176.577 917.822 196.046 942.078 196.394C956.095 196.595 969.274 189.9 974.359 176.164C982.467 154.24 968.326 140.091 957.366 122.653C943.739 100.968 910.245 61.2611 928.137 34.5421C940.701 15.7934 971.443 17.0001 989.758 24.7596C1011.29 33.8815 1028.57 52.8361 1038.25 73.8872C1052.62 105.167 1046.28 142.171 1074.2 167.784C1086.24 178.831 1100.73 179.142 1113.21 168.394C1124.56 158.612 1124.23 144.432 1125.19 130.755C1126.48 112.284 1126.54 93.6564 1125.56 75.1706C1124.62 57.4373 1112.42 40.7262 1093.5 39.3453C1088.58 38.9832 1083.09 41.4841 1081.67 46.2036C1080.6 49.7594 1082.09 53.6992 1084.55 56.4773C1102.5 76.7359 1126.05 68.9943 1141.54 50.305C1155.48 33.4847 1164.09 10.8176 1159.35 -11.0867C1157.83 -18.1445 1154.69 -28.7951 1163.52 -32.7978C1170.01 -35.7369 1177.68 -30.187 1181.29 -25.163C1189.41 -13.8751 1198.83 6.38673 1214.47 -10.3851C1218.44 -14.6484 1220.81 -20.1319 1222.91 -25.5727C1225.39 -32.0107 1227.83 -39.2373 1231.99 -44.8167" stroke="#E2E2E2" stroke-width="2" stroke-miterlimit="10" stroke-dasharray="5 5"/>
</g>
<path d="M224.271 64.1369L210.371 40.7396L281.055 -8.02691L224.271 64.1369Z" fill="#5AB9AC"/>
<path d="M280.124 -7.15783L224.271 64.1361L230.554 46.0822L280.124 -7.15783Z" fill="#4AAFA1"/>
<path d="M281.055 -8.02701L230.554 46.0822L253.619 54.1794L281.055 -8.02701Z" fill="#74E2D3"/>
<path d="M210.37 40.7423L189.14 36.0705L281.056 -8.02706L210.37 40.7423Z" fill="#74E2D3"/>
</g>
<defs>
<clipPath id="clip0">
<rect width="1440" height="5541" fill="white" transform="translate(-165 -5260)"/>
</clipPath>
</defs>
</svg>
