<svg width="445" height="296" viewBox="0 0 445 296" fill="none" xmlns="http://www.w3.org/2000/svg">
<g opacity="0.19">
<path opacity="0.19" d="M23.0701 245.57C13.9314 212.586 4.64268 179.214 3.21777 144.911C1.79286 110.608 9.02454 74.7648 29.6804 47.8989C50.3362 21.033 86.141 5.27256 117.928 15.1256C146.159 23.8703 166.45 50.038 193.856 61.2432C251.559 84.8174 317.491 35.5854 377.23 52.9086C406.671 61.4427 430.626 86.2804 441.125 115.984C451.625 145.687 438.779 176.609 426.448 205.548L361.448 277.8L26.3484 262.926L23.0701 245.57Z" fill="#27DEBF"/>
</g>
<path d="M138.244 70.9704C138.244 70.9704 151.101 65.0076 148.112 86.0769C148.112 86.0769 134.945 83.9157 138.244 70.9704Z" fill="#27DEBF"/>
<path d="M141.544 54.0574C141.544 54.0574 154.4 48.2054 151.293 69.2415C151.293 69.2415 138.158 66.9805 141.544 54.0574Z" fill="#27DEBF"/>
<path d="M147.039 39.5713C147.039 39.5713 159.896 33.7193 156.789 54.7665C156.789 54.7665 143.643 52.4944 147.039 39.5713Z" fill="#27DEBF"/>
<path d="M173.931 51.4417C173.931 51.4417 173.61 65.9608 156.5 54.1571C156.5 54.1571 164.042 42.7856 173.931 51.4417Z" fill="#27DEBF"/>
<path d="M168.424 65.9278C168.424 65.9278 168.156 80.4469 151.015 68.6432C151.015 68.6432 158.514 57.2717 168.424 65.9278Z" fill="#27DEBF"/>
<path d="M164.792 83.0069C164.792 83.0069 164.481 97.5259 147.361 85.7223C147.361 85.7223 154.903 74.3508 164.792 83.0069Z" fill="#27DEBF"/>
<path d="M150.039 123.561C145.979 95.1652 147.393 64.6529 165.038 41.0787C165.488 40.4691 164.513 39.8374 164.063 40.447C146.236 64.276 144.822 95.143 148.871 123.838C148.989 124.602 150.104 124.314 149.943 123.561H150.039Z" fill="#263238"/>
<path d="M169.999 30.2395C169.999 30.2395 180.991 39.2724 161.546 46.2438C161.546 46.2327 157.357 33.1322 169.999 30.2395Z" fill="#27DEBF"/>
<path d="M137.662 179.469C130.109 180.444 122.846 173.927 119.921 166.667C118.509 162.997 118.114 158.991 118.78 155.102C119.447 151.212 121.147 147.591 123.692 144.645C118.471 141.925 114.311 137.433 111.907 131.921C110.745 129.162 110.236 126.156 110.423 123.153C110.609 120.15 111.485 117.236 112.978 114.653C113.878 113.201 115.035 111.827 115.335 110.12C115.462 108.368 115.125 106.613 114.36 105.044C112.807 100.988 111.35 96.7649 111.393 92.3981C111.436 88.0313 113.235 83.4428 116.889 81.3148C120.842 78.943 126.124 79.9959 129.745 82.9108C133.366 85.8257 135.509 90.2812 136.859 94.8032C137.106 96.0138 137.615 97.1506 138.348 98.1282C139.336 98.9978 140.5 99.6266 141.755 99.968C153.294 104.479 158.458 121.104 151.601 131.722C159.003 136.381 164.473 143.714 166.953 152.303C169.385 160.871 167.671 171.832 159.99 175.922C159.915 175.811 147.765 178.15 137.662 179.469Z" fill="#188C79"/>
<path opacity="0.25" d="M139.858 138.405C139.858 138.405 139.933 138.338 139.965 138.294L146.779 126.59C146.816 126.529 146.84 126.46 146.851 126.388C146.862 126.317 146.859 126.244 146.842 126.174C146.825 126.103 146.794 126.037 146.752 125.98C146.71 125.922 146.658 125.873 146.597 125.836C146.474 125.765 146.329 125.745 146.192 125.78C146.054 125.815 145.935 125.902 145.858 126.025L139.43 137.108C131.041 111.328 120.756 82.534 120.038 80.5058C119.988 80.3695 119.888 80.2587 119.76 80.1967C119.632 80.1348 119.486 80.1264 119.353 80.1733C119.219 80.2233 119.11 80.3261 119.05 80.4592C118.99 80.5922 118.983 80.7445 119.031 80.8826C119.17 81.2706 125.674 99.4915 132.616 120.029L124.045 115.895C123.981 115.863 123.912 115.845 123.841 115.841C123.77 115.837 123.699 115.848 123.632 115.873C123.566 115.897 123.504 115.936 123.452 115.985C123.4 116.034 123.357 116.094 123.327 116.161C123.297 116.226 123.279 116.297 123.276 116.37C123.272 116.442 123.283 116.514 123.307 116.583C123.331 116.651 123.367 116.713 123.415 116.767C123.463 116.82 123.52 116.862 123.584 116.892L133.098 121.481C137.384 134.348 141.883 147.97 145.012 158.61L135.144 154.509C135.014 154.454 134.867 154.454 134.737 154.51C134.606 154.566 134.503 154.673 134.448 154.808C134.42 154.875 134.405 154.947 134.405 155.02C134.405 155.092 134.418 155.165 134.445 155.232C134.472 155.299 134.512 155.36 134.562 155.411C134.612 155.462 134.672 155.502 134.737 155.529L145.301 159.962H145.397C147.733 168.02 149.243 174.182 149.243 176.698C149.243 176.77 149.257 176.842 149.284 176.908C149.311 176.975 149.351 177.035 149.401 177.086C149.451 177.136 149.51 177.176 149.575 177.203C149.64 177.229 149.709 177.242 149.779 177.241C149.919 177.241 150.054 177.184 150.154 177.082C150.254 176.981 150.312 176.843 150.315 176.698C150.315 172.043 145.579 156.061 139.858 138.405Z" fill="#263238"/>
<path d="M47.9254 126.69C47.9254 126.69 34.3191 129.128 47.9254 144.623C47.9254 144.623 57.5141 135.357 47.9254 126.69Z" fill="#27DEBF"/>
<path d="M36.2262 114.786C36.2262 114.786 22.6413 117.347 36.3762 132.719C36.4297 132.719 45.8791 123.376 36.2262 114.786Z" fill="#27DEBF"/>
<path d="M24.0445 106.13C24.0445 106.13 10.4597 108.68 24.1838 124.052C24.1838 124.052 33.6974 114.72 24.0445 106.13Z" fill="#27DEBF"/>
<path d="M8.46704 131.112C8.46704 131.112 16.4487 142.761 24.1089 123.354C24.1089 123.398 11.9061 118.433 8.46704 131.112Z" fill="#27DEBF"/>
<path d="M20.6487 139.779C20.6487 139.779 28.6303 151.428 36.3013 132.021C36.3013 132.054 24.0877 127.1 20.6487 139.779Z" fill="#27DEBF"/>
<path d="M32.7122 151.616C32.7122 151.616 40.6938 163.265 48.354 143.858C48.354 143.902 36.1512 138.937 32.7122 151.616Z" fill="#27DEBF"/>
<path d="M66.3097 176.232C54.5247 150.74 37.1044 126.734 10.2133 117.557C9.51692 117.324 9.98832 116.249 10.674 116.449C37.8544 125.714 55.4354 150.064 67.3811 175.777C67.6918 176.454 66.6311 176.886 66.3097 176.188V176.232Z" fill="#263238"/>
<path d="M0.367719 111.583C0.367719 111.583 -3.77844 125.249 15.7739 119.818C15.7739 119.818 12.217 106.762 0.367719 111.583Z" fill="#27DEBF"/>
<path d="M81.6626 242.666C75.8237 247.708 66.31 246.301 60.0639 241.812C56.9573 239.512 54.5317 236.361 53.0594 232.714C51.5871 229.066 51.1263 225.067 51.7288 221.164C45.9084 221.8 40.0533 220.349 35.1441 217.052C32.7243 215.383 30.7243 213.14 29.3101 210.511C27.8959 207.882 27.1082 204.942 27.0125 201.934C27.0125 200.205 27.2696 198.399 26.6268 196.814C25.8269 195.264 24.6296 193.971 23.1663 193.079C19.7379 190.53 16.3096 187.792 14.0597 184.101C11.8099 180.411 10.9314 175.523 12.8598 171.644C15.0025 167.432 19.9415 165.371 24.5055 165.825C29.0695 166.279 33.1942 168.806 36.6976 171.854C37.5254 172.718 38.5332 173.374 39.6438 173.772C40.9283 173.952 42.2355 173.83 43.4686 173.417C55.5428 170.768 68.5598 181.885 68.3456 194.653C77.004 194.434 85.4331 197.546 92.0012 203.386C98.5686 209.238 102.854 219.457 98.4936 227.215C98.4936 227.215 89.4835 235.916 81.6626 242.666Z" fill="#188C79"/>
<path opacity="0.25" d="M62.078 206.877C62.078 206.822 62.078 206.778 62.078 206.733L61.7351 193.057C61.7338 192.984 61.7185 192.913 61.6901 192.847C61.6618 192.781 61.621 192.721 61.5701 192.672C61.5192 192.622 61.4592 192.584 61.3937 192.558C61.3283 192.533 61.2586 192.522 61.1887 192.525C61.0485 192.533 60.9164 192.596 60.8191 192.701C60.7217 192.805 60.6662 192.944 60.6638 193.09L61.0709 206.002C40.5544 188.989 16.8666 170.535 15.1953 169.194C15.1399 169.151 15.0767 169.119 15.0094 169.101C14.9421 169.083 14.872 169.08 14.8033 169.09C14.7345 169.1 14.6684 169.124 14.6088 169.161C14.5492 169.198 14.4973 169.247 14.456 169.305C14.3696 169.421 14.3313 169.568 14.3493 169.714C14.3674 169.859 14.4405 169.991 14.5525 170.081C14.8739 170.325 29.8515 182.029 46.4147 195.439L37.0403 196.747C36.97 196.757 36.9021 196.78 36.8406 196.817C36.7791 196.854 36.7252 196.902 36.6819 196.961C36.6386 197.019 36.6069 197.085 36.5884 197.156C36.5699 197.227 36.5651 197.301 36.5743 197.373C36.5834 197.446 36.6063 197.516 36.6417 197.58C36.6771 197.644 36.7242 197.699 36.7804 197.744C36.8366 197.789 36.9008 197.822 36.9693 197.841C37.0378 197.86 37.1092 197.865 37.1796 197.856L47.5825 196.404C57.9532 204.816 68.8061 213.793 76.9913 221.009L66.5455 223.07C66.4066 223.097 66.2835 223.18 66.2032 223.3C66.123 223.421 66.092 223.569 66.117 223.713C66.1298 223.784 66.1561 223.851 66.1944 223.912C66.2327 223.972 66.2823 224.024 66.3401 224.064C66.3979 224.104 66.463 224.132 66.5313 224.146C66.5997 224.16 66.6701 224.16 66.7384 224.145L77.9127 221.928H78.0091C84.1801 227.404 88.7227 231.748 89.9762 233.865C90.0547 233.987 90.1765 234.071 90.3149 234.1C90.4534 234.129 90.5973 234.101 90.7154 234.02C90.7749 233.983 90.8267 233.934 90.8676 233.875C90.9085 233.817 90.9378 233.751 90.9538 233.681C90.9697 233.611 90.972 233.538 90.9605 233.467C90.949 233.396 90.924 233.328 90.8868 233.267C88.4441 229.354 76.0699 218.548 62.078 206.877Z" fill="#263238"/>
<path d="M427.765 208.983L426.447 205.547L416.398 217.129H416.334L163.493 214.392C157.193 214.325 148.269 215.932 143.533 217.994L48.9644 259.224H13.7595L14.563 275.96C14.5018 276.122 14.4749 276.296 14.4841 276.47C14.4933 276.644 14.5385 276.814 14.6166 276.968V278.077L16.0951 278.021C17.365 278.434 18.6853 278.658 20.0163 278.686L350.874 295.932C362.369 296.53 374.797 293.117 378.258 288.495L427.765 226.029V208.983Z" fill="#1B9B86"/>
<path d="M414.213 203.941L161.372 197.623C154.633 197.457 149.694 191.062 150.38 183.426L165.186 19.426C165.829 12.1996 171.721 6.126 178.288 6.00408L424.048 0.00801849C425.789 -0.0554213 427.523 0.25814 429.14 0.928601C430.757 1.59906 432.22 2.61163 433.437 3.90138C434.653 5.19114 435.596 6.72962 436.204 8.4182C436.812 10.1068 437.072 11.9082 436.968 13.707L428.88 189.344C428.733 193.267 427.123 196.978 424.389 199.699C421.654 202.421 418.007 203.941 414.213 203.941Z" fill="#D3F3EE"/>
<path d="M349.106 279.75L18.313 262.571C10.5028 262.172 10.942 258.88 19.0093 255.367L141.723 201.834C146.469 199.773 155.383 198.166 161.682 198.232L414.62 200.97C422.933 201.058 428.333 203.098 426.49 205.547L376.533 272.313C373.03 276.935 360.602 280.348 349.106 279.75Z" fill="#F4F4F5"/>
<path opacity="0.47" d="M396.792 204.284L166.45 201.391C159.7 201.302 150.251 203.02 145.215 205.27L94.1759 228.135C87.7478 231.028 88.4441 233.677 96.0508 233.898L361.973 242.521C372.28 242.865 383.197 240.16 386.122 236.614L408.738 209.227C410.924 206.578 405.502 204.395 396.792 204.284ZM189.945 219.069L207.847 219.457L198.912 224.5L180.699 224.045L189.945 219.069ZM179.52 224.023L161.714 223.569L171.357 218.648L188.831 219.036L179.52 224.023ZM208.919 219.457L227.132 219.867L218.561 224.976L199.962 224.511L208.919 219.457ZM228.321 219.889L246.963 220.31L238.82 225.497L219.814 224.998L228.321 219.889ZM248.152 220.332L267.201 220.765L259.487 226.018L240.042 225.519L248.152 220.332ZM268.422 220.787L287.899 221.23L280.635 226.55L260.762 226.107L268.422 220.787ZM289.153 221.252L309.069 221.696L302.266 227.104L281.91 226.583L289.153 221.252ZM310.344 221.729L330.7 222.183L324.4 227.658L303.595 227.215L310.344 221.729ZM310.88 221.308L316.237 216.996L336.196 217.395L331.182 221.751L310.88 221.308ZM309.605 221.308L289.721 220.864L295.495 216.619L315.015 217.007L309.605 221.308ZM288.478 220.842L269.033 220.41L275.161 216.22L294.263 216.597L288.478 220.842ZM267.843 220.377L248.827 219.955L255.255 215.821L273.95 216.187L267.843 220.377ZM247.638 219.933L229.028 219.523L235.831 215.434L254.13 215.799L247.638 219.933ZM227.849 219.457L209.636 219.047L216.761 215.012L234.674 215.367L227.849 219.457ZM208.501 219.024L190.705 218.67L198.119 214.691L215.668 215.035L208.501 219.024ZM189.559 218.603L172.107 218.215L179.81 214.281L196.951 214.624L189.559 218.603ZM171.003 218.193L153.861 217.816L161.843 213.926L178.674 214.259L171.003 218.193ZM152.79 217.794L136.066 217.462L144.294 213.627L160.793 213.948L152.79 217.794ZM152.008 218.171L142.012 223.026L124.956 222.593L135.241 217.794L152.008 218.171ZM153.079 218.171L170.221 218.559L160.579 223.48L143.158 223.037L153.079 218.171ZM159.743 223.89L149.565 229.066L131.781 228.556L142.28 223.436L159.743 223.89ZM160.815 223.89L178.653 224.344L168.839 229.598L150.626 229.077L160.815 223.89ZM179.799 224.378L198.012 224.843L188.584 230.174L169.996 229.631L179.799 224.378ZM199.276 224.998L217.907 225.475L208.919 230.839L189.913 230.296L199.276 224.998ZM219.096 225.497L238.156 225.985L229.585 231.46L210.129 230.906L219.096 225.497ZM239.377 226.018L258.855 226.517L250.702 232.058L230.796 231.493L239.377 226.018ZM260.108 226.55L280.035 227.06L272.354 232.69L251.998 232.103L260.108 226.55ZM281.321 227.093L301.677 227.614L294.488 233.333L273.672 232.757L281.321 227.093ZM303.016 227.647L323.897 228.179L317.222 233.976L295.859 233.366L303.016 227.647ZM325.236 228.213L346.61 228.767L340.471 234.652L318.594 234.02L325.236 228.213ZM325.761 227.758L332.029 222.283L352.877 222.748L347.092 228.29L325.761 227.758ZM332.521 221.851L337.525 217.484L357.934 217.894L353.327 222.327L332.521 221.851ZM337.985 217.074L342.764 212.907L362.755 213.261L358.363 217.473L337.985 217.074ZM336.71 217.074L316.783 216.686L321.936 212.574L341.499 212.907L336.71 217.074ZM315.54 216.653L296.042 216.276L301.559 212.219L320.715 212.552L315.54 216.653ZM294.82 216.254L275.75 215.877L281.621 211.865L300.359 212.197L294.82 216.254ZM274.561 215.855L255.898 215.489L262.09 211.532L280.443 211.843L274.561 215.855ZM254.719 215.467L236.506 215.101L243.02 211.2L260.987 211.51L254.719 215.467ZM235.317 215.023L217.425 214.68L224.25 210.812L241.852 211.122L235.317 215.023ZM216.311 214.658L198.794 214.314L205.897 210.49L223.146 210.79L216.311 214.658ZM197.691 214.292L180.549 213.959L187.931 210.18L204.837 210.479L197.691 214.292ZM179.478 213.937L162.668 213.605L170.307 209.881L186.87 210.169L179.478 213.937ZM161.607 213.583L145.141 213.261L153.036 209.57L169.268 209.859L161.607 213.583ZM144.101 213.239L129.167 212.951L137.287 209.304L152.019 209.559L144.101 213.239ZM143.319 213.605L135.08 217.44L119.899 217.107L128.363 213.306L143.319 213.605ZM134.266 217.816L123.96 222.615L108.5 222.228L119.064 217.484L134.266 217.816ZM123.103 223.014L112.26 228.057L96.5008 227.614L107.621 222.615L123.103 223.014ZM124.174 223.014L141.316 223.458L130.709 228.589L113.31 228.091L124.174 223.014ZM129.874 228.999L119.278 234.153L101.547 233.577L112.453 228.49L129.874 228.999ZM130.945 228.999L148.751 229.509L138.498 234.741L120.371 234.153L130.945 228.999ZM149.897 229.543L168.11 230.075L158.222 235.372L139.677 234.774L149.897 229.543ZM169.268 230.108L316.655 234.375L309.884 240.249L159.422 235.461L169.268 230.108ZM318.026 234.419L339.957 235.051L333.743 241.014L311.298 240.293L318.026 234.419ZM341.36 235.095L363.859 235.738L358.223 241.801L335.2 241.058L341.36 235.095ZM341.874 234.597L347.97 228.711L369.858 229.265L364.298 235.239L341.874 234.597ZM348.442 228.246L354.206 222.704L375.526 223.181L370.287 228.822L348.442 228.246ZM354.656 222.25L359.23 217.816L380.111 218.227L375.965 222.782L354.656 222.25ZM359.659 217.406L364.03 213.195L384.472 213.549L380.497 217.816L359.659 217.406ZM364.437 212.796L368.615 208.761L388.639 209.061L384.847 213.139L364.437 212.796ZM363.194 212.807L343.235 212.463L347.788 208.484L367.394 208.772L363.194 212.807ZM341.981 212.441L322.451 212.109L327.368 208.174L346.556 208.462L341.981 212.441ZM321.219 212.086L302.105 211.754L307.377 207.875L326.168 208.152L321.219 212.086ZM300.863 211.732L282.146 211.41L287.76 207.575L306.155 207.853L300.863 211.732ZM280.978 211.388L262.658 211.078L268.583 207.287L286.603 207.553L280.978 211.388ZM261.501 211.056L243.556 210.745L249.802 206.999L267.458 207.265L261.501 211.056ZM242.431 210.734L224.86 210.424L231.385 206.722L248.687 206.988L242.431 210.734ZM223.757 210.413L206.54 210.114L213.343 206.456L230.303 206.711L223.757 210.413ZM205.458 210.091L188.563 209.825L195.644 206.212L212.272 206.456L205.458 210.091ZM187.524 209.781L171.014 209.482L178.342 205.902L194.648 206.146L187.524 209.781ZM169.975 209.482L153.754 209.205L161.339 205.669L177.324 205.913L169.975 209.482ZM152.736 209.183L138.027 208.939L145.826 205.436L160.332 205.647L152.736 209.183ZM95.2473 228.157L95.558 228.024L111.339 228.479L100.411 233.566L97.0043 233.455C89.9976 233.233 89.3119 230.828 95.2473 228.157ZM384.622 236.569C381.911 239.828 371.883 242.299 362.434 242L359.68 241.911L365.284 235.838L384.632 236.403L385.061 235.893L365.776 235.339L371.305 229.354L390.139 229.842L390.536 229.365L371.765 228.889L376.972 223.247L395.324 223.657L395.699 223.214L377.379 222.804L381.525 218.371L399.471 218.725L399.824 218.293L381.911 217.949L385.864 213.671L403.435 213.971L403.767 213.572L386.229 213.261L390 209.183L407.206 209.437L407.527 209.05L390.386 208.795L394.114 204.76H392.764L389.025 208.795L369.033 208.495L373.147 204.505H371.915L367.769 208.373L348.195 208.13L352.706 204.195H351.495L346.963 208.13L327.84 207.819L332.704 203.94H331.525L326.629 207.83L307.88 207.553L313.098 203.707H311.941L306.702 207.553L288.328 207.265L293.877 203.475H292.742L287.128 207.265L269.14 206.999L275.011 203.242H273.939L268.047 206.988L250.423 206.722L256.605 203.02H255.533L249.33 206.733L232.06 206.478L238.488 202.81H237.417L230.924 206.478L214.018 206.157L220.779 202.521H219.707L212.958 206.157L196.362 205.913L203.38 202.322H202.308L195.269 205.902L178.995 205.669L186.281 202.111H185.349L178.053 205.658L162.089 205.425L169.589 201.912H168.603L161.104 205.414L146.64 205.204C152.771 202.933 159.231 201.756 165.743 201.723L396.46 204.672C404.485 204.771 409.456 206.8 407.431 209.227L384.622 236.569Z" fill="#263238"/>
<path opacity="0.31" d="M217.704 268.401L129.638 264.045C120.885 263.613 119.503 260.155 126.307 256.453L148.194 244.539C154.162 241.291 165.475 238.919 173.564 239.197L254.441 241.945C263.376 242.256 267.062 245.27 262.433 248.828L245.345 261.818C240.053 265.874 227.486 268.889 217.704 268.401Z" stroke="#263238" stroke-miterlimit="10"/>
<path d="M379.747 280.482C379.384 280.471 379.034 280.339 378.75 280.105C378.421 279.825 378.212 279.422 378.17 278.984C378.128 278.545 378.256 278.107 378.525 277.766L414.759 231.959C415.033 231.632 415.419 231.429 415.836 231.393C416.253 231.356 416.667 231.489 416.99 231.763C417.314 232.037 417.521 232.431 417.569 232.861C417.616 233.29 417.5 233.722 417.244 234.065L381.011 279.872C380.858 280.065 380.664 280.219 380.446 280.325C380.227 280.43 379.988 280.484 379.747 280.482Z" fill="#1B9B86"/>
<path d="M419.794 228.214C419.523 228.215 419.257 228.142 419.023 228.003C418.865 227.921 418.727 227.805 418.616 227.663C418.506 227.521 418.426 227.357 418.383 227.18C418.339 227.004 418.332 226.82 418.363 226.64C418.394 226.461 418.462 226.291 418.562 226.141L422.697 220C422.927 219.69 423.257 219.476 423.627 219.397C423.996 219.317 424.381 219.378 424.712 219.568C424.869 219.649 425.007 219.765 425.118 219.907C425.228 220.049 425.308 220.214 425.351 220.39C425.395 220.567 425.402 220.751 425.371 220.93C425.34 221.109 425.272 221.28 425.172 221.43L421.047 227.571C420.903 227.773 420.714 227.937 420.496 228.049C420.278 228.161 420.037 228.217 419.794 228.214Z" fill="#1B9B86"/>
<path d="M346.363 291.355H346.277L327.121 290.247C326.91 290.235 326.703 290.181 326.513 290.087C326.322 289.992 326.151 289.86 326.009 289.698C325.868 289.535 325.759 289.345 325.689 289.139C325.619 288.932 325.589 288.714 325.6 288.495C325.636 288.058 325.832 287.652 326.149 287.361C326.467 287.07 326.88 286.916 327.304 286.932L346.449 288.041C346.875 288.052 347.279 288.239 347.573 288.559C347.866 288.879 348.024 289.307 348.013 289.748C348.002 290.189 347.821 290.607 347.512 290.91C347.203 291.214 346.789 291.378 346.363 291.366V291.355Z" fill="#1B9B86"/>
<path d="M296.085 14.8168C297.28 14.8168 298.249 13.8143 298.249 12.5777C298.249 11.3411 297.28 10.3386 296.085 10.3386C294.889 10.3386 293.92 11.3411 293.92 12.5777C293.92 13.8143 294.889 14.8168 296.085 14.8168Z" fill="#263238"/>
<path d="M303.894 14.8168C305.089 14.8168 306.058 13.8143 306.058 12.5777C306.058 11.3411 305.089 10.3386 303.894 10.3386C302.699 10.3386 301.73 11.3411 301.73 12.5777C301.73 13.8143 302.699 14.8168 303.894 14.8168Z" fill="#188C79"/>
<path opacity="0.19" d="M174.914 35.3194L162.775 172.63C162.775 172.63 158.929 182.062 172.535 183.536C186.142 185.01 408.085 190.951 408.085 190.951C408.085 190.951 363.687 139.846 299.984 140.589C236.281 141.331 230.539 102.074 224.807 90.9575C219.075 79.841 209.519 28.5586 174.914 35.3194Z" fill="#1B9B86"/>
<g opacity="0.33">
<path opacity="0.33" d="M418.584 136.188L415.423 136.088L414.802 78.8875L414.105 79.1313C410.613 80.3394 402.213 78.4996 402.128 78.4774L401.485 78.3333V89.8821H385.414V79.3308L384.622 79.8074C380.593 82.1903 375.301 80.417 375.247 80.3948L374.561 80.162L373.319 134.193H374.39L374.979 104.944H384.268V135.069L223.157 129.804L223.468 110.641L216.557 110.752C219.9 106.64 223.564 101.098 222.835 97.3079C222.535 95.7341 221.893 94.8363 220.939 94.6258C220.485 94.5809 220.027 94.6293 219.592 94.7682C219.156 94.907 218.751 95.1336 218.4 95.4348C220.446 91.7773 222.471 87.078 220.886 85.0165C220.719 84.74 220.475 84.5228 220.186 84.394C219.897 84.2653 219.576 84.2311 219.268 84.2961C218.121 84.5621 217.125 86.5128 216.386 88.6408C216.632 81.9908 216.439 70.9075 212.733 69.0122C212.471 68.8442 212.168 68.7607 211.86 68.7726C211.553 68.7844 211.256 68.8911 211.008 69.0787C209.09 70.5861 209.786 78.7323 210.686 85.2493C209.842 83.3765 208.374 81.8812 206.551 81.0376C206.299 80.9087 206.015 80.8629 205.737 80.9066C205.459 80.9502 205.201 81.081 204.997 81.2815C203.24 83.088 205.951 92.9522 208.126 99.7906C207.003 98.667 205.601 97.8881 204.076 97.5407C203.005 97.3079 202.544 97.6958 202.308 98.0616C201.151 99.8349 204.451 106.053 207.494 110.918L200.905 111.018V129.106L166.568 127.998V129.106L200.937 130.214V130.502L223.21 131.178V130.946L418.573 137.33L418.584 136.188ZM203.197 98.649C203.235 98.6146 203.279 98.5889 203.327 98.5736C203.375 98.5583 203.426 98.5538 203.476 98.5603C203.597 98.5469 203.719 98.5469 203.84 98.5603C205.067 98.8847 206.205 99.4961 207.167 100.347C208.129 101.199 208.89 102.267 209.39 103.47C209.733 104.49 210.011 105.299 210.193 105.82L211.265 105.521C211.067 104.616 210.769 103.738 210.376 102.905C207.483 94.3043 204.515 83.3873 205.833 82.0351C205.833 82.0351 205.951 81.9243 206.262 82.0351C209.604 83.3319 211.158 88.5964 211.747 91.334C211.875 92.0544 211.983 92.6418 212.058 93.0408L213.129 92.8635C213.129 92.7527 213.011 92.0212 212.775 90.9461C211.361 82.8331 210.022 71.2843 211.704 69.8878C211.768 69.8878 211.908 69.7216 212.304 69.8878C216.054 71.8385 215.572 87.5546 215.068 93.4509L216.139 93.6172C216.964 89.7934 218.507 85.5153 219.568 85.2604C219.568 85.2604 219.793 85.2604 220.103 85.6039C221.7 87.6544 217.607 95.1467 214.629 99.447C214.629 99.447 214.629 99.5024 214.565 99.5246L215.443 100.167L215.507 100.068C216.857 98.1392 219.418 95.3018 220.768 95.6343C221.389 95.7673 221.689 96.7427 221.839 97.452C222.525 101.032 218.529 106.695 215.175 110.752L208.747 110.841C205.244 105.144 202.49 99.6908 203.197 98.649ZM201.976 112.093L222.418 111.783L222.128 129.771L201.976 129.117V112.093ZM384.311 103.847H375.044L375.558 81.6805C378.447 82.5073 381.516 82.348 384.311 81.226V103.847ZM402.524 79.7076C404.474 80.0955 410.334 81.1485 413.72 80.3837L414.213 125.426L403.178 126.058L403.242 127.166L414.223 126.535V130.491H403.092L402.556 90.4363L402.524 79.7076ZM385.382 104.955H385.457V103.847H385.382V90.9904H401.453V103.082H401.624L401.817 117.779L385.35 118.366L385.382 104.955ZM385.382 135.113V119.519L401.87 118.931L402.095 135.49H403.167L403.113 131.611H414.309V136.044L385.382 135.113Z" fill="#1B9B86"/>
<path opacity="0.33" d="M384.225 110.818H375.033V111.927H384.225V110.818Z" fill="#1B9B86"/>
</g>
<path d="M228.278 181.974C227.892 168.714 228.375 155.443 229.724 142.251C230.989 129.993 233.41 116.948 241.842 108.247C248.945 100.921 259.176 97.9178 269.097 96.3994C282.843 94.3047 296.77 94.5485 310.698 95.5349C319.633 96.1667 328.654 97.1309 337.139 100.112C345.624 103.094 353.638 108.281 358.706 115.939C367.18 128.752 366.023 145.654 364.534 161.104C363.634 170.517 362.73 179.927 361.823 189.333L228.278 181.974Z" fill="#1B9B86"/>
<mask id="mask0" mask-type="alpha" maskUnits="userSpaceOnUse" x="161" y="16" width="264" height="177">
<path d="M402.374 192.458L173.285 187.315C166.214 187.16 161.05 180.532 161.757 172.575L173.917 35.3413C174.635 27.716 180.742 21.4429 187.652 21.2988L411.191 16.7436C413.011 16.6862 414.821 17.0241 416.506 17.7356C418.191 18.447 419.714 19.5161 420.975 20.8738C422.236 22.2316 423.207 23.8478 423.827 25.6182C424.447 27.3885 424.701 29.2737 424.573 31.1518L417.566 177.451C417.379 181.492 415.698 185.303 412.87 188.096C410.042 190.89 406.284 192.451 402.374 192.458Z" fill="#263238"/>
</mask>
<g mask="url(#mask0)">
<path opacity="0.85" d="M266.923 96.1895L285.811 97.0872L286.529 35.3533C286.529 35.3533 269.526 36.3064 264.876 57.93C260.227 79.5535 261.555 90.4151 266.923 96.1895Z" fill="#263238"/>
<path d="M292.667 82.4121C292.667 82.4121 285.703 111.905 282.189 115.374C278.675 118.843 303.616 135.678 312.841 118.898C312.841 118.898 309.83 105.011 313.376 84.1189C316.923 63.2269 297.574 67.9151 292.667 82.4121Z" fill="#F9B191"/>
<g style="mix-blend-mode:multiply" opacity="0.51">
<path d="M282.286 116.382C289.4 118.366 297.456 106.019 300.628 100.522C305.866 91.4115 307.634 80.9157 309.863 70.6969C304.656 68.0147 295.774 73.246 292.667 82.423C292.667 82.423 285.703 111.916 282.189 115.385C282.07 115.504 281.979 115.65 281.923 115.811C281.867 115.973 281.848 116.145 281.868 116.316C282.009 116.328 282.148 116.35 282.286 116.382Z" fill="#F9B191"/>
</g>
<path d="M277.197 114.166L255.77 118.056L252.631 195.074L314.17 206.478L331.847 127.022L312.745 119.408C312.745 119.408 283.475 114.166 277.197 114.166Z" fill="#27DEBF"/>
<path d="M268.518 64.657C268.518 64.9895 268.518 65.322 268.583 65.6434C268.244 70.7972 268.406 75.9731 269.065 81.0935C269.236 82.0467 269.429 83.0109 269.654 83.9752C270.661 88.1647 271.968 92.9859 274.272 96.6545C277.764 102.196 283.732 99.647 288.778 97.8958C298.763 94.4378 308.319 89.3063 314.994 80.6391C318.619 75.6473 321.531 70.1416 323.64 64.2912C325.536 48.553 316.398 33.9119 302.213 30.864C288.874 27.9824 275.611 36.4057 270.522 50.149C269.62 54.9473 268.951 59.7894 268.518 64.657Z" fill="#F9B191"/>
<path d="M277.197 114.166C277.197 114.166 267.062 191.228 267.223 198.465C267.383 205.703 247.231 195.794 247.231 195.794L249.031 116.826C249.031 116.826 269.558 111.727 277.197 114.166Z" fill="#D3F3EE"/>
<path d="M325.151 181.608C327.561 171.212 330.968 161.092 333.261 150.652C334.879 143.304 336.722 134.481 335.682 126.479C329.19 123.154 316.28 117.059 312.059 117.701C312.059 117.701 297.178 197.18 297.788 204.506C298.399 211.832 320.383 208.607 320.383 208.607L326.019 184.988C325.59 184.56 325.282 184.019 325.129 183.423C324.976 182.827 324.984 182.199 325.151 181.608Z" fill="#D3F3EE"/>
<path opacity="0.13" d="M316.398 187.315C318.926 189.41 321.53 191.361 323.994 193.478L326.019 184.977C325.59 184.549 325.282 184.007 325.129 183.412C324.976 182.816 324.984 182.188 325.151 181.596C326.812 174.414 328.944 167.376 330.861 160.272C323.073 156.349 314.791 153.411 306.092 152.879C305.942 152.879 305.813 152.879 305.674 152.813C304.731 158.089 303.777 163.553 302.877 168.862C307.281 175.401 310.163 182.162 316.398 187.315Z" fill="#1B9B86"/>
<path d="M249.031 116.826C249.031 116.826 199.995 159.341 204.034 165.836C208.073 172.331 213.676 174.791 223.629 170.835C233.582 166.878 260.645 144.401 260.645 144.401C260.645 144.401 260.612 117.003 249.031 116.826Z" fill="#D3F3EE"/>
<path d="M334.45 125.615C334.45 125.615 366.537 182.871 360.623 187.57C354.71 192.27 348.624 192.602 340.557 185.354C332.49 178.105 314.48 147.416 314.48 147.416C314.48 147.416 323.49 121.702 334.45 125.615Z" fill="#D3F3EE"/>
<g opacity="0.32">
<path opacity="0.32" d="M301.827 178.981L300.66 178.416L315.83 145.365C313.955 144.645 310.366 142.982 310.698 141.009C310.827 140.289 311.952 138.704 314.919 134.714C317.705 130.957 324.24 122.157 323.426 120.904C320.555 119.464 312.07 118.377 311.984 118.366L312.145 117.047C312.498 117.047 320.93 118.156 323.93 119.696C324.109 119.788 324.267 119.921 324.391 120.084C324.515 120.246 324.603 120.436 324.647 120.638C325.14 122.855 321.155 128.397 315.894 135.534C314.438 137.339 313.11 139.251 311.92 141.253C311.802 141.918 314.169 143.403 316.88 144.357L317.566 144.589L301.827 178.981Z" fill="#1B9B86"/>
</g>
<g opacity="0.32">
<path opacity="0.32" d="M269.023 173.694C268.198 171.743 262.145 139.79 263.838 137.552C263.927 137.432 264.046 137.34 264.182 137.286C264.318 137.231 264.465 137.216 264.609 137.241C265.477 137.396 268.284 135.124 270.566 132.808C268.423 129.361 260.924 117.191 261.598 114.598C261.633 114.44 261.701 114.291 261.797 114.163C261.893 114.034 262.016 113.929 262.156 113.855C264.298 112.747 275.923 113.423 277.24 113.501L277.165 114.831C272.419 114.543 264.448 114.343 262.831 115.008C262.573 116.538 267.298 125.216 271.926 132.542L272.216 132.985L271.851 133.373C270.684 134.592 266.934 138.35 264.823 138.571C264.213 142.062 268.841 169.948 270.18 173.162L269.023 173.694Z" fill="#1B9B86"/>
</g>
<path d="M360.634 177.961C357.806 173.018 353.584 169.216 349.792 165.038L312.294 148.513L301.773 161.602C323.201 184.689 337.193 194.143 346.267 197.224C356.766 199.152 366.912 188.911 360.634 177.961Z" fill="#D3F3EE"/>
<path d="M330.776 128.364L330.305 127.849C329.666 127.151 328.602 127.12 327.927 127.781L297.379 157.676C296.704 158.336 296.674 159.437 297.313 160.136L297.784 160.651C298.422 161.349 299.487 161.38 300.162 160.719L330.71 130.824C331.385 130.164 331.414 129.062 330.776 128.364Z" fill="#1B9B86"/>
<path d="M326.938 135.013L323.845 131.632C323.683 131.454 323.411 131.446 323.239 131.614L323.115 131.736C322.943 131.904 322.935 132.185 323.098 132.363L326.191 135.745C326.353 135.923 326.624 135.93 326.796 135.762L326.921 135.64C327.093 135.472 327.1 135.191 326.938 135.013Z" fill="#27DEBF"/>
<path d="M325.734 131.626L325.624 131.505C325.482 131.349 325.244 131.342 325.094 131.49L315.173 141.188C315.022 141.335 315.015 141.581 315.158 141.737L315.268 141.858C315.41 142.013 315.648 142.02 315.798 141.873L325.719 132.174C325.87 132.027 325.876 131.782 325.734 131.626Z" fill="#27DEBF"/>
<path d="M205.844 171.455C205.844 171.455 204.773 193.2 259.262 165.138L254.848 152.292L216.14 154.575C216.14 154.575 197.638 162.267 205.844 171.455Z" fill="#D3F3EE"/>
<path d="M311.748 141.649L269.761 134.021L259.71 193.231L301.697 200.859L311.748 141.649Z" fill="#263238"/>
<path d="M298.885 136.44L283.563 133.656L282.376 140.655L297.697 143.438L298.885 136.44Z" fill="#27DEBF"/>
<path d="M255.491 154.675L256.155 154.176L256.83 153.933C256.83 153.146 257.323 150.353 263.173 146.108C270.115 141.054 270.147 140.721 271.058 141.874C271.969 143.027 266.194 148.003 266.065 149.787C266.794 149.51 267.469 149.278 268.058 149.1C271.272 147.925 283.979 143.37 284.225 144.667C284.514 146.108 283.454 147.471 271.24 150.973C271.369 151.228 271.486 151.505 271.626 151.782C276.983 149.854 286.871 146.462 287.075 147.593C287.364 149.122 286.164 150.597 272.826 154.553L273.158 155.362C278.075 153.633 286.014 150.996 286.271 152.037C286.55 153.445 285.543 154.786 274.122 158.111C274.215 158.407 274.301 158.695 274.379 158.975C278.965 157.391 285.361 155.351 285.543 156.216C285.8 157.512 284.878 158.754 274.443 161.757C273.372 162.566 265.198 163.974 260.516 164.65C256.059 162.6 255.32 158.876 255.491 154.675Z" fill="#F9B191"/>
<g opacity="0.42">
<path opacity="0.42" d="M256.937 153.267C253.853 152.861 250.746 152.669 247.638 152.691C247.592 152.59 247.522 152.502 247.434 152.436C247.212 152.281 247.027 152.076 246.893 151.836C246.76 151.596 246.681 151.327 246.663 151.051C246.266 147.437 252.148 139.967 254.452 137.396C254.512 137.334 254.559 137.261 254.592 137.18C254.624 137.099 254.641 137.012 254.641 136.925C254.641 136.837 254.624 136.751 254.592 136.67C254.559 136.589 254.512 136.516 254.452 136.454C254.328 136.331 254.163 136.262 253.991 136.262C253.819 136.262 253.654 136.331 253.53 136.454C253.177 136.853 244.874 146.207 245.409 151.161C245.463 151.701 245.643 152.218 245.934 152.669C237.498 152.776 229.121 154.154 221.068 156.758C220.927 156.801 220.804 156.892 220.72 157.016C220.636 157.141 220.595 157.291 220.606 157.443C220.616 157.594 220.675 157.738 220.775 157.849C220.875 157.96 221.008 158.033 221.154 158.055C221.253 158.077 221.355 158.077 221.454 158.055C232.877 154.367 244.918 153.182 256.809 154.575C256.892 154.589 256.978 154.586 257.061 154.566C257.143 154.546 257.221 154.509 257.29 154.457C257.359 154.406 257.417 154.341 257.461 154.266C257.505 154.191 257.535 154.108 257.548 154.021C257.562 153.929 257.556 153.835 257.532 153.745C257.508 153.656 257.465 153.572 257.408 153.501C257.35 153.43 257.278 153.372 257.197 153.331C257.116 153.291 257.027 153.269 256.937 153.267Z" fill="#1B9B86"/>
<path opacity="0.42" d="M332.2 188.967C325.14 185.342 308.33 165.215 308.159 165.016C308.103 164.949 308.036 164.895 307.96 164.855C307.884 164.816 307.801 164.792 307.717 164.786C307.632 164.78 307.547 164.791 307.467 164.819C307.386 164.847 307.312 164.891 307.248 164.949C307.184 165.005 307.132 165.074 307.094 165.152C307.056 165.229 307.033 165.314 307.027 165.401C307.021 165.487 307.032 165.574 307.059 165.657C307.086 165.739 307.128 165.815 307.184 165.88C307.88 166.722 324.325 186.417 331.632 190.164L331.804 190.219C331.942 190.242 332.084 190.219 332.209 190.153C332.334 190.088 332.436 189.983 332.5 189.853C332.574 189.695 332.583 189.512 332.527 189.346C332.471 189.18 332.353 189.043 332.2 188.967Z" fill="#1B9B86"/>
<path opacity="0.42" d="M353.703 172.763C346.085 165.603 311.416 153.223 309.937 152.691C309.857 152.663 309.773 152.652 309.688 152.658C309.604 152.664 309.522 152.687 309.446 152.726C309.37 152.766 309.303 152.82 309.247 152.886C309.192 152.952 309.15 153.029 309.123 153.112C309.069 153.278 309.079 153.46 309.154 153.617C309.228 153.775 309.36 153.896 309.52 153.954C309.884 154.087 345.41 166.766 352.835 173.749C352.925 173.834 353.036 173.892 353.156 173.915C353.286 173.93 353.417 173.904 353.532 173.84C353.647 173.776 353.74 173.677 353.8 173.556C353.859 173.436 353.881 173.3 353.864 173.166C353.847 173.032 353.79 172.907 353.703 172.807V172.763Z" fill="#1B9B86"/>
</g>
<path d="M282.35 113.512C282.264 114.02 282.035 114.489 281.691 114.862C281.347 115.235 280.904 115.493 280.418 115.605C279.932 115.718 279.425 115.678 278.961 115.492C278.496 115.306 278.096 114.982 277.81 114.56C277.524 114.138 277.365 113.638 277.353 113.123C277.342 112.608 277.478 112.101 277.745 111.667C278.012 111.232 278.398 110.888 278.853 110.68C279.309 110.472 279.813 110.408 280.304 110.497C280.63 110.556 280.941 110.681 281.22 110.864C281.499 111.048 281.741 111.286 281.931 111.566C282.121 111.846 282.256 112.162 282.328 112.496C282.4 112.83 282.407 113.175 282.35 113.512Z" fill="white"/>
<path d="M285.35 120.007C285.264 120.515 285.034 120.985 284.689 121.357C284.345 121.73 283.901 121.988 283.414 122.099C282.928 122.211 282.42 122.17 281.956 121.983C281.492 121.796 281.092 121.47 280.806 121.048C280.521 120.625 280.363 120.124 280.353 119.609C280.343 119.093 280.481 118.586 280.749 118.152C281.018 117.718 281.405 117.376 281.862 117.169C282.318 116.963 282.824 116.901 283.314 116.992C283.64 117.051 283.951 117.176 284.229 117.359C284.508 117.543 284.749 117.782 284.938 118.062C285.127 118.342 285.261 118.658 285.332 118.992C285.402 119.326 285.408 119.671 285.35 120.007Z" fill="white"/>
<path d="M291.221 124.795C291.135 125.303 290.906 125.772 290.562 126.145C290.218 126.518 289.775 126.776 289.289 126.888C288.803 127.001 288.296 126.961 287.831 126.775C287.367 126.589 286.967 126.265 286.68 125.843C286.394 125.421 286.235 124.921 286.224 124.406C286.212 123.891 286.349 123.384 286.616 122.949C286.883 122.515 287.268 122.171 287.724 121.963C288.179 121.755 288.684 121.691 289.175 121.78C289.501 121.838 289.813 121.962 290.093 122.145C290.373 122.328 290.615 122.566 290.805 122.846C290.995 123.127 291.13 123.443 291.201 123.778C291.273 124.112 291.279 124.458 291.221 124.795Z" fill="white"/>
<path d="M298.281 126.358C298.195 126.865 297.966 127.335 297.622 127.707C297.278 128.08 296.835 128.339 296.349 128.451C295.863 128.563 295.356 128.524 294.891 128.338C294.427 128.151 294.027 127.827 293.74 127.406C293.454 126.984 293.295 126.484 293.284 125.969C293.272 125.454 293.409 124.947 293.676 124.512C293.943 124.077 294.328 123.734 294.784 123.526C295.239 123.318 295.744 123.254 296.235 123.343C296.56 123.402 296.872 123.526 297.151 123.71C297.43 123.893 297.671 124.132 297.861 124.412C298.051 124.692 298.186 125.008 298.258 125.341C298.33 125.675 298.338 126.021 298.281 126.358Z" fill="white"/>
<path d="M306.274 125.017C306.188 125.525 305.958 125.994 305.613 126.367C305.268 126.739 304.825 126.998 304.338 127.109C303.852 127.221 303.344 127.18 302.88 126.993C302.416 126.806 302.015 126.48 301.73 126.057C301.445 125.635 301.287 125.134 301.277 124.619C301.267 124.103 301.405 123.596 301.673 123.162C301.942 122.728 302.329 122.386 302.786 122.179C303.242 121.973 303.748 121.911 304.238 122.002C304.564 122.061 304.875 122.185 305.153 122.369C305.432 122.553 305.673 122.791 305.862 123.071C306.051 123.352 306.185 123.668 306.255 124.002C306.326 124.335 306.332 124.68 306.274 125.017Z" fill="white"/>
<path d="M313.473 120.306C313.387 120.814 313.158 121.284 312.814 121.656C312.47 122.029 312.027 122.288 311.541 122.4C311.055 122.512 310.548 122.472 310.084 122.286C309.62 122.1 309.219 121.776 308.933 121.354C308.647 120.933 308.488 120.433 308.476 119.918C308.465 119.403 308.601 118.896 308.868 118.461C309.135 118.026 309.521 117.683 309.976 117.475C310.432 117.266 310.936 117.203 311.427 117.291C311.753 117.35 312.064 117.475 312.343 117.658C312.622 117.842 312.864 118.08 313.054 118.36C313.244 118.64 313.379 118.956 313.451 119.29C313.523 119.624 313.53 119.969 313.473 120.306Z" fill="white"/>
<path d="M279.061 60.1013C277.571 63.8915 275.876 67.5919 273.983 71.1846L272.58 73.8779L272.237 74.5318L272.076 74.8532C272.076 74.9419 271.969 75.097 272.001 75.0305C272.033 74.964 272.001 75.0305 272.001 75.097C272.001 75.1635 272.065 75.2189 272.13 75.2965C272.263 75.4579 272.41 75.6063 272.569 75.7399C273.321 76.3117 274.161 76.7465 275.054 77.0255C275.963 77.3833 276.951 77.4678 277.904 77.2693C276.973 77.7227 275.927 77.8623 274.915 77.6683C273.878 77.5061 272.883 77.1291 271.99 76.56C271.746 76.3977 271.52 76.2081 271.315 75.9948C271.201 75.8659 271.1 75.7247 271.015 75.5736C270.906 75.3673 270.857 75.1321 270.876 74.8975C270.886 74.7085 270.933 74.5236 271.015 74.3544L271.176 73.9776L271.487 73.2683C271.926 72.3373 272.387 71.4395 272.837 70.5307C274.683 66.9139 276.763 63.4295 279.061 60.1013Z" fill="#F69571"/>
<path d="M272.793 86.5578C272.793 86.5578 272.236 82.7447 274.797 83.3544C277.357 83.964 283.143 86.6797 284.257 86.6797C285.371 86.6797 272.793 86.5578 272.793 86.5578Z" fill="#E6452D"/>
<path opacity="0.61" d="M273.48 86.8674C273.48 86.8674 274.605 93.5957 284.033 86.7233C284.033 86.7233 273.951 84.7835 273.48 86.8674Z" fill="#DE3227"/>
<path d="M298.184 50.0932C297.477 50.2484 282.531 21.4983 269.911 55.5684C257.29 89.6385 266.804 95.4018 266.922 96.1887C267.04 96.9756 250.851 82.8887 264.565 52.5759C278.278 22.2631 299.288 22.0192 316.558 36.7711C316.558 36.7711 313.912 46.6463 298.184 50.0932Z" fill="#263238"/>
<path d="M298.185 50.0939C298.185 50.0939 302.406 59.7032 301.452 65.3335C300.499 70.9638 295.421 77.8798 296.846 82.435C298.167 80.6633 299.599 78.9824 301.131 77.4032C303.81 74.5991 306.059 69.9552 306.006 67.4282C305.952 64.9012 308.459 61.5541 310.291 64.9234C312.123 68.2927 314.03 76.0067 305.427 79.1987C305.427 79.1987 305.62 98.1733 303.702 100.855C301.785 103.538 326.394 95.1254 326.394 95.1254C326.394 95.1254 344.607 64.0922 314.845 35.198C314.866 35.198 297.403 44.6521 298.185 50.0939Z" fill="#263238"/>
<path d="M298.967 51.2457C298.967 51.2457 294.21 20.3344 278.557 27.8378C262.905 35.3412 255.32 65.2883 257.184 74.4652C257.184 74.4652 266.312 37.9901 280.529 39.0652C294.746 40.1403 297.842 47.5217 298.967 51.2457Z" fill="#263238"/>
<g style="mix-blend-mode:multiply" opacity="0.5">
<path d="M305.749 69.3232C305.749 69.3232 307.806 65.0667 309.52 67.5497C311.234 70.0326 308.449 75.7078 305.074 75.7078C301.699 75.7078 305.749 69.3232 305.749 69.3232Z" fill="#F9B191"/>
</g>
<path d="M284.985 57.5302C284.985 57.5302 293.556 56.0005 299.899 59.3591C299.899 59.3591 290.61 57.9736 284.792 58.9157C284.803 58.9157 283.507 57.3085 284.985 57.5302Z" fill="#263238"/>
<path d="M274.122 55.9783C274.122 55.9783 266.622 53.8501 261.266 57.4415C261.266 57.4415 269.269 56.2444 274.358 57.5745C274.347 57.5745 275.397 55.7899 274.122 55.9783Z" fill="#263238"/>
<path d="M308.556 80.4062C308.47 80.9137 308.24 81.3834 307.897 81.756C307.553 82.1286 307.11 82.3873 306.624 82.4995C306.138 82.6116 305.631 82.5722 305.166 82.3861C304.702 82.2 304.302 81.8757 304.015 81.4541C303.729 81.0325 303.57 80.5325 303.559 80.0175C303.547 79.5025 303.684 78.9954 303.951 78.5606C304.217 78.1257 304.603 77.7825 305.059 77.5744C305.514 77.3662 306.019 77.3025 306.509 77.3912C306.835 77.4502 307.146 77.5749 307.426 77.7583C307.705 77.9417 307.946 78.1802 308.136 78.4602C308.326 78.7402 308.461 79.0561 308.533 79.39C308.605 79.7239 308.613 80.0692 308.556 80.4062Z" fill="white"/>
<path d="M283.335 68.658C283.335 68.658 288.596 61.1316 294.842 66.962C294.842 66.962 288.596 75.9404 283.335 68.658Z" fill="white"/>
<path d="M283.1 68.658C283.1 68.658 288.95 63.1158 294.607 66.9621C296.139 69.2455 291.125 57.1412 283.1 68.658Z" fill="#263238"/>
<mask id="mask1" mask-type="alpha" maskUnits="userSpaceOnUse" x="283" y="64" width="12" height="8">
<path d="M283.335 68.658C283.335 68.658 288.596 61.1316 294.842 66.9621C294.842 66.9621 288.596 75.9405 283.335 68.658Z" fill="white"/>
</mask>
<g mask="url(#mask1)">
<path d="M286.129 72.4463C287.62 72.4463 288.828 70.6498 288.828 68.4337C288.828 66.2176 287.62 64.4211 286.129 64.4211C284.638 64.4211 283.429 66.2176 283.429 68.4337C283.429 70.6498 284.638 72.4463 286.129 72.4463Z" fill="#263238"/>
</g>
<path d="M267.951 68.7248C268.862 68.8423 269.787 68.7359 270.65 68.4143C271.514 68.0926 272.292 67.5648 272.922 66.8737C272.922 66.8737 271.165 62.8611 267.715 61.8081C267.607 64.1164 267.685 66.4301 267.951 68.7248Z" fill="white"/>
<path d="M267.843 60.6555C267.779 61.328 267.736 62.0041 267.715 62.684C269.885 63.5417 271.783 65.0032 273.2 66.9072C271.411 62.9167 269.525 61.1987 267.843 60.6555Z" fill="#263238"/>
<mask id="mask2" mask-type="alpha" maskUnits="userSpaceOnUse" x="267" y="61" width="6" height="8">
<path d="M267.95 68.7248C268.861 68.8423 269.786 68.7359 270.65 68.4143C271.514 68.0926 272.292 67.5648 272.922 66.8737C272.922 66.8737 271.164 62.8611 267.715 61.8081C267.606 64.1164 267.685 66.4301 267.95 68.7248Z" fill="white"/>
</mask>
<g mask="url(#mask2)">
<path d="M264.876 66.253C265.144 68.4699 266.547 70.0772 268.09 69.8887C269.633 69.7003 270.554 67.7605 270.233 65.5658C269.911 63.3711 268.561 61.7417 267.083 61.9301C265.604 62.1185 264.63 64.0583 264.876 66.253Z" fill="#263238"/>
</g>
</g>
<g opacity="0.5">
<path opacity="0.5" d="M402.374 192.458L173.285 187.315C166.214 187.16 161.05 180.533 161.757 172.575L173.917 35.3413C174.635 27.716 180.742 21.4429 187.652 21.2988L411.191 16.7436C413.011 16.6862 414.821 17.0241 416.506 17.7356C418.191 18.447 419.714 19.5161 420.975 20.8738C422.236 22.2316 423.207 23.8478 423.827 25.6182C424.447 27.3885 424.701 29.2737 424.573 31.1518L417.566 177.451C417.379 181.492 415.698 185.303 412.87 188.096C410.042 190.89 406.284 192.451 402.374 192.458ZM187.556 22.4071C181.192 22.5401 175.535 28.3256 174.914 35.3192L162.775 172.63C162.132 179.967 166.878 186.052 173.382 186.196L402.428 191.228C406.037 191.217 409.504 189.768 412.108 187.182C414.711 184.596 416.252 181.071 416.409 177.341L423.437 31.1408C423.55 29.4157 423.313 27.6852 422.74 26.0607C422.168 24.4362 421.273 22.9536 420.114 21.7082C418.954 20.4628 417.556 19.4823 416.008 18.8296C414.46 18.1769 412.798 17.8665 411.127 17.9184L187.556 22.4071Z" fill="#263238"/>
</g>
<path d="M93.9833 105.255C101.989 105.255 108.479 98.5408 108.479 90.2589C108.479 81.977 101.989 75.2632 93.9833 75.2632C85.9776 75.2632 79.4878 81.977 79.4878 90.2589C79.4878 98.5408 85.9776 105.255 93.9833 105.255Z" fill="#D3F3EE"/>
<path d="M96.7046 103.382C96.7046 103.382 98.2152 109.012 97.6045 110.885C96.9939 112.758 102.436 104.634 102.136 100.578C101.836 96.5211 97.0046 99.6355 96.7046 103.382Z" fill="#D3F3EE"/>
<path d="M95.1834 98.4387C94.8553 98.4395 94.5294 98.3833 94.2192 98.2725C93.8503 98.1451 93.5085 97.9457 93.2121 97.6851C92.0669 97.8449 90.9014 97.7312 89.8052 97.3526C88.7734 97.0075 87.8468 96.3892 87.1176 95.5589C86.3884 94.7287 85.8818 93.7155 85.6483 92.62C85.451 91.5036 85.6123 90.3512 86.1076 89.3385C86.6028 88.3259 87.4048 87.5087 88.391 87.0118C88.6582 86.8962 88.9341 86.8035 89.216 86.7348C89.3624 86.3861 89.5456 86.0553 89.7624 85.7483C90.3598 84.9676 91.1125 84.3288 91.9694 83.8753C92.9123 83.2192 94.0651 82.9687 95.1834 83.177C96.0135 83.4905 96.7362 84.0494 97.2619 84.7841C98.1736 85.8767 98.9877 87.0527 99.6939 88.2975C100.596 86.5416 101.293 84.6815 101.772 82.7559L102.383 82.9332C101.867 85.0187 101.085 87.0239 100.058 88.896C100.088 88.9492 100.113 89.0048 100.133 89.0623C100.208 89.2063 100.272 89.3504 100.347 89.4834C100.866 90.4136 101.14 91.4685 101.14 92.5424C100.78 94.007 100.023 95.3347 98.9583 96.3694C97.8935 97.4041 96.5653 98.1028 95.1299 98.3833L95.1834 98.4387ZM94.1121 97.5188C94.1999 97.5707 94.2934 97.6117 94.3906 97.6407C95.9441 98.1727 97.6047 96.9314 98.6761 95.7898C99.6318 94.9641 100.28 93.8198 100.508 92.5535C100.531 92.1418 100.484 91.7291 100.369 91.3343C100.251 92.0453 100.02 92.7309 99.6832 93.3626C99.2329 94.3238 98.5871 95.173 97.7902 95.8521C96.9932 96.5311 96.0638 97.0241 95.0656 97.2971C94.9354 97.3301 94.8028 97.3523 94.6692 97.3636C94.4972 97.4317 94.322 97.4909 94.1442 97.541L94.1121 97.5188ZM88.9267 87.5438L88.616 87.6658C87.7618 88.1009 87.0683 88.8127 86.6409 89.6929C86.2135 90.5732 86.0757 91.5737 86.2483 92.5424C86.4694 93.5155 86.9313 94.4123 87.5887 95.1449C88.2462 95.8775 89.0764 96.4206 89.9981 96.7208C90.745 96.9884 91.5329 97.1123 92.3229 97.0866C91.2713 96.7174 90.3944 95.9489 89.8695 94.9364C89.5197 94.6672 89.2217 94.3326 88.991 93.95C88.4899 92.8762 88.3251 91.6673 88.5196 90.492C88.551 89.4823 88.6875 88.479 88.9267 87.4995V87.5438ZM93.1157 96.6876C93.5838 96.7919 94.0654 96.8144 94.5406 96.7541C94.9396 96.6307 95.3298 96.4789 95.7084 96.2996C97.219 95.5682 98.9225 94.083 99.0725 92.1323C99.1131 91.6465 99.0621 91.1572 98.9225 90.6915C98.6288 91.0824 98.3102 91.4527 97.969 91.7998C98.0731 92.7478 97.8655 93.7043 97.3797 94.5152C96.8601 95.2272 96.1537 95.7697 95.3446 96.0782C94.5355 96.3867 93.6577 96.4482 92.8157 96.2553C92.9156 96.3941 93.0267 96.5239 93.1479 96.6432L93.1157 96.6876ZM91.2944 95.7898C91.5623 96.0199 91.8575 96.2136 92.1729 96.3662C92.1729 96.2553 92.0765 96.1556 92.0336 96.0447C91.8194 95.9228 91.5622 95.8452 91.3265 95.7455L91.2944 95.7898ZM92.5265 95.4795C93.2934 95.7086 94.1085 95.6995 94.8705 95.4532C95.6324 95.2068 96.3076 94.7342 96.8119 94.0941C97.1378 93.5591 97.3157 92.9419 97.3262 92.3097L97.2512 92.3651C97.0154 92.9197 96.6185 93.3846 96.1155 93.6951C95.9655 93.8281 95.8156 93.9611 95.6656 94.0719C94.7094 94.7731 93.6093 95.2359 92.4515 95.4241L92.5265 95.4795ZM90.823 94.8367C91.1298 94.8588 91.4376 94.8588 91.7444 94.8367C91.7444 94.6926 91.7444 94.5485 91.7444 94.4044C91.2471 94.4209 90.7508 94.3497 90.2766 94.1938C90.3094 94.307 90.3488 94.418 90.3945 94.5263C90.5337 94.5928 90.6837 94.6926 90.8552 94.7923L90.823 94.8367ZM92.3443 94.3822C92.3443 94.5042 92.3443 94.6372 92.3443 94.7702C93.0568 94.6525 93.7472 94.4207 94.3906 94.083H94.2835C93.6566 94.2273 93.0183 94.3127 92.3765 94.3379L92.3443 94.3822ZM90.0623 93.3847C90.4985 93.6212 90.9841 93.7431 91.4765 93.7394C91.2574 93.5183 91.0954 93.244 91.0051 92.9414C90.9313 92.69 90.8952 92.4283 90.898 92.1656C90.902 92.1325 90.902 92.0989 90.898 92.0658C90.776 91.6126 90.776 91.1336 90.898 90.6804C91.077 89.7835 91.4796 88.9506 92.0658 88.2643C91.796 88.4565 91.5512 88.6837 91.3373 88.9403C90.495 90.0064 90.0604 91.3552 90.1159 92.7308C90.0946 92.9332 90.0874 93.1369 90.0945 93.3404L90.0623 93.3847ZM92.3229 93.5177H92.4729H92.3443H92.3229ZM92.3229 92.7641L92.6657 92.9414C93.0867 93.1397 93.5291 93.2848 93.9835 93.3737C94.4915 93.2226 94.9833 93.0183 95.4513 92.7641C95.7829 92.5295 96.0759 92.2414 96.3191 91.9107C95.7136 92.038 95.0843 91.9509 94.5324 91.6634C93.9805 91.376 93.5381 90.9048 93.2764 90.3257C93.2764 90.2149 93.1907 90.1041 93.1586 89.9933L92.8157 90.1928C92.5927 90.8448 92.4453 91.5219 92.3765 92.2099C92.4408 92.3429 92.4193 92.5313 92.4086 92.7197L92.3229 92.7641ZM90.1802 89.1509C89.6897 89.7001 89.356 90.3791 89.216 91.1127C89.1013 91.5518 89.1013 92.0146 89.216 92.4537C89.2758 91.2536 89.6579 90.0944 90.3195 89.1066L90.1802 89.1509ZM91.5837 91.9993C91.6425 92.1078 91.7186 92.2052 91.8087 92.2875C91.8034 92.2211 91.8034 92.1544 91.8087 92.088C91.8496 91.7154 91.9104 91.3454 91.9908 90.9797C91.8952 91.0993 91.8126 91.2294 91.7444 91.3676C91.6563 91.5671 91.6019 91.7808 91.5837 91.9993ZM99.426 90.0376C99.6009 90.4836 99.7092 90.9544 99.7474 91.4341C99.8316 91.0413 99.8533 90.6371 99.8117 90.2371C99.7905 90.0405 99.7474 89.8471 99.6832 89.6608L99.5546 89.8603L99.426 90.0376ZM93.8442 89.6718C93.8636 89.7947 93.8997 89.9141 93.9514 90.0265C94.1799 90.4836 94.5551 90.8441 95.0125 91.0463C95.4699 91.2486 95.9811 91.2799 96.4584 91.1348C96.6053 91.0854 96.7429 91.0104 96.8655 90.9132L96.9298 90.6361C96.9142 90.4632 96.8819 90.2924 96.8333 90.1262C96.7617 89.8869 96.6647 89.6564 96.5441 89.4391C96.1044 89.2771 95.6365 89.213 95.1712 89.2512C94.706 89.2894 94.2537 89.429 93.8442 89.6608V89.6718ZM97.819 90.5585C97.819 90.6693 97.819 90.7802 97.894 90.891C98.1744 90.5919 98.439 90.2774 98.6868 89.9489C98.2971 89.1723 97.6979 88.5293 96.9619 88.098C97.4337 88.6279 97.7302 89.2995 97.8083 90.0154C97.8272 90.1921 97.8308 90.3701 97.819 90.5474V90.5585ZM93.5978 87.699C92.591 88.33 91.8523 89.3318 91.5301 90.5031C91.7759 90.1945 92.0648 89.9255 92.3872 89.7051C92.5 89.4449 92.6363 89.1962 92.7943 88.9625C92.9329 88.7418 93.1026 88.5438 93.2979 88.3751C93.3636 88.1316 93.4648 87.8999 93.5978 87.6879V87.699ZM89.6874 87.3222C89.4529 88.0389 89.3088 88.7839 89.2588 89.5388C89.8715 88.5027 90.787 87.6953 91.8729 87.2335H91.0694C90.6076 87.2273 90.1459 87.2532 89.6874 87.3111V87.3222ZM96.2977 87.0673C96.9371 87.2916 97.5323 87.6333 98.0547 88.0758C98.4746 88.4438 98.8361 88.8776 99.1261 89.3615L99.3832 88.9625C99.3503 88.8887 99.3109 88.8182 99.2653 88.7519C98.9183 88.2452 98.4677 87.8237 97.9456 87.5172C97.4235 87.2107 96.8426 87.0269 96.2441 86.9786L96.2977 87.0673ZM93.8657 88.7408C93.8606 88.8146 93.8606 88.8887 93.8657 88.9625C94.5057 88.6845 95.197 88.5559 95.8905 88.5857L95.3549 88.2088C94.8126 88.181 94.2804 88.3672 93.8657 88.7298V88.7408ZM95.9441 86.3025H96.1905C96.8364 86.3341 97.4683 86.5079 98.044 86.8123C97.6583 86.2582 97.2619 85.704 96.8333 85.2163C96.381 84.5827 95.7644 84.0947 95.0549 83.8088C94.5742 83.7217 94.0817 83.7337 93.6055 83.844C93.1293 83.9543 92.6789 84.1608 92.2801 84.4516C91.504 84.8643 90.8213 85.4422 90.2766 86.1473C90.1802 86.2914 90.0838 86.4355 89.9981 86.5907L91.0694 86.5242C91.9314 86.4938 92.794 86.5644 93.6407 86.7348C93.7585 86.7348 93.8871 86.7348 94.0157 86.7348C94.6233 86.455 95.2791 86.3043 95.9441 86.2914V86.3025Z" fill="#263238"/>
<path opacity="0.25" d="M60.8569 236.769L266.365 244.682L316.89 202.256L127.795 206.988L60.8569 236.769Z" fill="#1B9B86"/>
<path d="M98.9438 214.37C98.9438 214.37 102.822 238.021 104.911 239.473C107 240.925 107.45 214.525 107.45 214.525C107.45 214.525 100.947 208.95 98.9438 214.37Z" fill="#37474F"/>
<path d="M257.665 218.67C257.665 218.67 261.533 242.322 263.633 243.785C265.733 245.248 266.172 218.825 266.172 218.825C266.172 218.825 259.658 213.25 257.665 218.67Z" fill="#37474F"/>
<path d="M304.023 186.351C304.023 186.351 307.355 206.911 309.294 208.141C311.233 209.371 312.026 186.362 312.026 186.362C312.026 186.362 305.984 181.597 304.023 186.351Z" fill="#37474F"/>
<path d="M313.912 183.492L308.341 187.87C276.114 187.87 135.852 187.105 121.217 174.404C104.74 160.051 99.5328 137.618 99.5328 137.618L48.3004 157.058C47.5328 155.523 46.4329 154.192 45.0863 153.168C41.8722 150.951 42.3329 159.33 42.3329 159.33C42.3908 159.475 42.4744 159.606 42.5793 159.718C54.7928 178.637 66.1493 199.175 85.7873 210.07C90.3766 212.606 95.1222 214.828 99.9935 216.72C158.126 221.763 269.483 225.586 269.483 225.586L314.887 187.903L313.912 183.492Z" fill="#1B9B86"/>
<g style="mix-blend-mode:multiply">
<path d="M313.912 183.492L308.341 187.87C276.114 187.87 135.852 187.105 121.217 174.404C104.74 160.051 99.5328 137.618 99.5328 137.618L48.3004 157.058C47.5328 155.523 46.4329 154.192 45.0863 153.168C41.8722 150.951 42.3329 159.33 42.3329 159.33C42.3908 159.475 42.4744 159.606 42.5793 159.718C54.7928 178.637 66.1493 199.175 85.7873 210.07C90.3766 212.606 95.1222 214.828 99.9935 216.72C158.126 221.763 269.483 225.586 269.483 225.586L314.887 187.903L313.912 183.492Z" fill="#1B9B86"/>
</g>
<path d="M123.928 168.241C107.45 153.888 102.243 131.456 102.243 131.456L45.0757 153.168C57.3856 172.198 68.7849 192.935 88.53 203.941C93.1192 206.477 97.8649 208.699 102.736 210.591C160.868 215.645 267.897 221.208 267.897 221.208L313.869 183.525C313.869 183.525 140.405 182.594 123.928 168.241Z" fill="#1B9B86"/>
<path d="M188.295 198.875C182.403 195.728 132.906 185.198 132.906 185.198C132.906 185.198 131.138 185.542 128.792 186.196C125.642 190.09 121.926 193.455 117.778 196.171C120.178 202.001 154.347 211 188.295 208C191.038 207.758 194.198 202.023 188.295 198.875Z" fill="#263238"/>
<path d="M193.936 182C188.097 179.661 140.564 176.043 135.304 175.5C132.118 180.857 128.259 187.221 123.788 191.483C128.513 197.324 150.839 196 198.446 193.5C198.446 193.5 200.117 184.483 193.936 182Z" fill="#263238"/>
<path d="M248.511 186.395C249.819 185.92 248.826 184.858 249.63 183.688C250.434 182.519 252.633 179.123 252.637 177.688C253.639 173.688 254.641 171 256.546 171C260.681 171.82 257.648 191.688 257.648 191.688C257.648 191.688 254.561 192.044 252.637 191.688C250.876 191.363 248.328 190.119 248.328 190.119C248.328 190.119 246.475 187.071 248.511 186.395Z" fill="#E2E2E2"/>
<path d="M249.223 183.747C237.063 183.026 174.893 179.5 174.893 179.5C174.893 179.5 182.801 193.586 192.432 192.5C192.432 192.5 203.958 197 250.062 193C249.88 191.714 249.406 185.099 249.223 183.747Z" fill="#263238"/>
<path d="M241.927 204.206C243.235 203.732 242.242 202.669 243.046 201.5C243.85 200.331 246.049 196.935 246.053 195.5C247.055 191.5 248.057 188.812 249.962 188.812C254.097 189.632 251.064 209.5 251.064 209.5C251.064 209.5 247.977 209.855 246.053 209.5C244.292 209.175 241.744 207.93 241.744 207.93C241.744 207.93 239.891 204.882 241.927 204.206Z" fill="white"/>
<path d="M243.443 201C228.594 198.606 169.882 192.5 169.882 192.5C169.882 192.5 173.727 208.307 183.412 208.296C183.412 208.296 195.066 213.416 242.441 208.296C242.489 206.837 243.227 202.442 243.443 201Z" fill="#263238"/>
<path d="M86.5158 147.172C86.5158 147.172 91.9904 154.609 93.3939 157.224C94.7974 159.84 104.772 153.82 103.733 148.5L96.7172 138C96.7172 138 82.7553 141.242 86.5158 147.172Z" fill="#F9B191"/>
<g style="mix-blend-mode:multiply" opacity="0.5">
<path d="M100.711 154.298C101.436 153.158 103.475 151.341 103.232 150L95.7151 138.5C93.4671 138.86 90.0229 140.634 88.0159 141.741C91.8076 146.378 96.0632 150.588 100.711 154.298Z" fill="#F9B191"/>
</g>
<path d="M96.2009 118.3C94.1068 114.657 90.6993 112.023 86.7281 110.978C82.757 109.934 78.5474 110.564 75.0254 112.731C71.5035 114.897 68.9577 118.422 67.9481 122.53C66.9384 126.638 67.5477 130.993 69.6418 134.637C70.8679 136.931 72.5915 138.9 74.6772 140.389C77.8056 143.116 84.8873 148.735 88.8621 147.471C94.0796 145.82 104.932 142.805 105.607 138.172C106.218 134.36 100.518 124.063 96.2009 118.3Z" fill="#F9B191"/>
<g style="mix-blend-mode:multiply" opacity="0.5">
<path d="M93.7582 145.299C90.8663 146.705 87.6594 147.272 84.4802 146.939C85.8585 147.601 87.4058 147.788 88.8942 147.471C94.1117 145.82 104.965 142.805 105.64 138.172C102.447 141.464 97.1437 143.736 93.7582 145.299Z" fill="#F9B191"/>
</g>
<path d="M86.5156 147.172C86.5156 147.172 87.4691 142.949 81.7695 139.48C81.7695 139.48 75.0628 138.094 76.7448 131.854C77.7838 128 81.3466 129.927 82.6858 132C84.025 134.073 85.3556 133.687 86.6948 133C88.034 132.313 80.4303 128.385 80.4303 125.615C80.4303 122.844 87.0366 122.511 84.6903 113.5C84.6903 113.5 86.1299 120.76 86.1299 121.791C86.1299 122.822 96.5531 117.542 95.2139 112C95.2139 112 78.6768 96.4999 67.652 117.5C64.2775 122.428 61.0979 127.12 62.1396 131.5C64.6168 141.917 79.4789 149.684 86.5156 147.172Z" fill="#263238"/>
<path d="M97.2185 121C97.2185 121 102.23 122.5 104.55 123.648C105.237 125.5 103.064 127.307 101.228 128" fill="#F9B191"/>
<path d="M93.2576 120.797L91.7893 120.157C91.7893 120.157 88.4112 124.092 88.8822 126.222C88.8822 126.222 91.7486 121.99 93.2576 120.797Z" fill="#263238"/>
<path d="M92.3011 128.098C93.1176 126.409 94.3808 124.994 95.9437 124.019C95.9146 123.765 95.8717 123.514 95.8151 123.265C95.8151 123.265 92.0654 121.558 91.3154 128.076C91.6432 128.105 91.9724 128.112 92.3011 128.098Z" fill="white"/>
<path d="M91.2048 128C91.2048 128 92.0224 123.087 95.815 123.265C95.815 123.265 93.6722 121.879 91.7331 125.482C91.4542 126 90.7442 126.925 91.2048 128Z" fill="#263238"/>
<path d="M96.2158 124.373C96.2058 124.641 96.1197 124.9 95.9683 125.118C95.8169 125.336 95.6068 125.502 95.3643 125.598C95.1218 125.693 94.8576 125.712 94.6048 125.652C94.3519 125.593 94.1215 125.458 93.9423 125.264C93.7632 125.07 93.6432 124.826 93.5974 124.562C93.5516 124.298 93.582 124.025 93.6848 123.779C93.7875 123.533 93.9582 123.323 94.1753 123.177C94.3925 123.03 94.6466 122.953 94.9059 122.955C95.0819 122.959 95.2554 122.999 95.4166 123.072C95.5777 123.146 95.7232 123.251 95.8448 123.383C95.9665 123.515 96.0619 123.67 96.1255 123.84C96.1892 124.01 96.2198 124.191 96.2158 124.373Z" fill="#263238"/>
<path d="M102.725 129.416C102.033 130.046 102.033 130.599 101.729 131.5C101.425 132.401 101.228 133.5 100.99 134.559C100.99 134.559 104.234 133.5 104.579 133.24C104.579 133.24 103.529 128.94 102.725 129.416Z" fill="#F69672"/>
<path d="M103.647 130.491C102.977 131.277 102.431 132.168 102.029 133.129L104.343 132.021L103.647 130.491Z" fill="#263238"/>
<path d="M84.6904 147.5C85.6926 147.5 87.004 147.646 87.5665 146.839C88.129 146.032 88.4829 145.09 88.5948 144.102C88.7234 142.905 88.5948 140.089 87.3842 139.402C86.1735 138.715 83.538 139.857 82.1452 139.402C81.2164 139.095 80.3882 138.527 79.7527 137.762C79.1172 136.997 78.6993 136.065 78.5454 135.069C78.4457 134.618 78.438 134.15 78.5228 133.696C78.6077 133.242 78.7832 132.811 79.0382 132.431C79.2706 132.048 79.5956 131.735 79.981 131.522C80.5006 131.183 81.0931 130.981 81.7059 130.935C80.7524 129.383 79.1347 124.717 75.0528 130.347C70.5424 136.576 75.3712 142.158 77.6746 143C78.2107 143.154 81.7527 144.592 82.1452 145C82.5377 145.408 84.5438 146.945 84.6904 147.5Z" fill="#263238"/>
<g style="mix-blend-mode:multiply" opacity="0.5">
<path d="M82.3696 134.116C82.3696 134.116 80.2269 133.273 80.0555 134.958C79.8841 136.643 83.066 139.625 85.0266 137.175L82.3696 134.116Z" fill="#F9B191"/>
</g>
<path d="M127.934 115.327L127.78 114.856C127.78 114.627 127.78 114.446 127.78 114.41C127.354 114.265 125.9 113.457 124.636 109.307C123.122 104.373 122.945 104.288 123.749 103.987C124.553 103.685 126.231 107.932 127.189 108.342C127.189 107.871 127.189 107.437 127.189 107.135C127.189 105.061 126.941 96.9297 127.685 97.0262C128.43 97.1227 129.092 98.0034 128.785 105.652H129.293C129.222 102.214 129.163 95.9164 129.813 96.0008C130.711 96.1335 131.302 97.0986 130.995 105.483H131.503C131.503 102.334 131.503 97.2554 132.047 97.3399C132.875 97.4485 133.418 98.2688 133.158 105.447H133.69C133.69 102.527 133.69 98.4739 134.21 98.5342C134.967 98.6307 135.475 99.3907 135.251 105.941C135.487 106.737 134.754 111.647 134.293 114.47C132.402 116.485 130.215 116.219 127.934 115.327Z" fill="#F9B191"/>
<path d="M139.109 144.301C138.712 136.676 135.304 113.5 135.304 113.5L125.783 114.5C125.783 131 126.702 136.798 128.085 141.42C111.751 139 100.079 147.992 100.101 152.846C100.101 153.955 106.529 165.614 136.345 150.242C136.323 150.242 140.352 147.693 139.109 144.301Z" fill="#27DEBF"/>
<g style="mix-blend-mode:multiply" opacity="0.4">
<path d="M100.711 154.066C102.854 157.036 111.36 163.143 136.366 150.253C137.707 149.38 138.728 148.069 139.269 146.529C126.745 150.663 113.567 151.849 100.711 154.066Z" fill="#27DEBF"/>
</g>
<path d="M143.322 175.5C142.979 173.228 136.126 171.646 129.29 163.5C125.281 155.117 121.774 151 121.774 151C121.774 151 118.521 148.764 116.261 148.313C113.526 146.415 108.569 148.774 105.382 147.914L104.718 148.313C103.647 146.507 101.808 143.504 100.726 145C99.3871 146.84 88.9048 149.942 87.3084 150.641C86.0764 151.184 89.5904 154.331 91.101 155.617L88.7226 158.033C86.9494 161.947 86.6775 166.411 87.962 170.524C95.7507 177.673 107.621 193.223 121.174 201.136C121.196 201.136 144.061 180.332 143.322 175.5Z" fill="#27DEBF"/>
<g style="mix-blend-mode:multiply" opacity="0.4">
<path d="M141.477 177.85C141.273 176.476 137.759 174.691 133.506 171.71C128.974 177.906 122.213 181.884 113.76 181.12C102.565 180.122 92.4725 170.613 88.0478 159.851C86.9152 163.308 86.8889 167.05 87.9728 170.524C95.7616 177.673 107.632 193.223 121.185 201.136C121.196 201.136 142.216 182.682 141.477 177.85Z" fill="#27DEBF"/>
</g>
<path opacity="0.31" d="M95.896 154.634C97.5566 153.781 99.1958 153.082 100.728 152.184C102.311 151.403 103.649 150.173 104.585 148.637C104.523 149.629 104.146 150.572 103.513 151.32C102.887 152.067 102.131 152.688 101.285 153.149C100.47 153.631 99.5984 154.003 98.6923 154.257C97.7831 154.524 96.8409 154.651 95.896 154.634Z" fill="#263238"/>
<path d="M123.277 172.783L123.578 172.38L123.926 172.115C123.81 171.649 123.683 169.885 126.324 166.382C129.474 162.199 129.451 161.997 130.123 162.602C130.795 163.207 128.293 167.075 128.478 168.159C128.837 167.882 129.185 167.63 129.486 167.428C131.107 166.168 137.594 161.354 137.872 162.073C138.15 162.791 137.872 163.875 131.536 167.995L131.86 168.423C134.583 166.37 139.598 162.715 139.876 163.383C140.258 164.253 139.807 165.336 132.926 169.91C133.03 170.062 133.135 170.2 133.227 170.351C135.729 168.499 139.807 165.588 140.061 166.155C140.421 166.949 140.061 167.919 134.154 171.8C134.258 171.964 134.351 172.128 134.432 172.279C136.749 170.578 140.038 168.285 140.224 168.776C140.56 169.52 140.224 170.402 134.837 173.955C134.328 174.636 129.995 176.79 127.482 178C124.76 177.42 123.787 175.329 123.277 172.783Z" fill="#F9B191"/>
<path d="M123.778 171.5C112.252 176.818 107.61 180.244 103.411 182.971C101.546 171.367 95.8254 155.263 91.2614 155.462C82.1846 161 78.1756 167 95.3969 192.802C96.0393 193.712 96.8472 194.484 97.7753 195.074C98.6123 195.96 99.7311 196.504 100.925 196.603C104.525 196.781 130.077 177.318 130.077 177.318L123.778 171.5Z" fill="#27DEBF"/>
<path opacity="0.31" d="M95.073 162.571C96.1044 164.111 97.0011 165.725 97.9097 167.348C98.8183 168.97 99.5986 170.627 100.339 172.317C101.1 174.001 101.76 175.722 102.316 177.474C102.878 179.237 103.258 181.047 103.451 182.881L102.588 182.547C105.855 180.369 109.172 178.255 112.594 176.285C114.311 175.3 116.041 174.343 117.777 173.434C119.54 172.519 121.369 171.715 123.253 171.029C121.467 171.879 119.735 172.818 118.065 173.842C116.36 174.826 114.691 175.845 113.038 176.902C109.742 179.014 106.458 181.134 103.225 183.318L102.441 183.885L102.342 183.005C102.164 181.23 101.812 179.477 101.292 177.764C100.821 176.024 100.157 174.326 99.5365 172.622C98.9159 170.918 98.1552 169.24 97.3966 167.582C96.638 165.923 95.8848 164.214 95.073 162.571Z" fill="#263238"/>
</svg>
