<svg width="120" height="120" viewBox="0 0 120 120" fill="none" xmlns="http://www.w3.org/2000/svg">
<g clip-path="url(#clip0)">
<path d="M88.9634 54.2454V47.8104H72.4163V54.2454L80.6897 61.5996L88.9634 54.2454Z" fill="#E6AF78"/>
<path d="M101.756 57.2555L90.3811 54.5789C90.2093 54.5386 90.0513 54.4697 89.9034 54.3867L80.6901 59.761L71.8359 54.1263C71.6067 54.342 71.3224 54.5028 70.999 54.5787L59.6236 57.2553C57.9626 57.646 56.7886 59.1281 56.7886 60.8346V69.8731L80.6901 74.4827L104.592 69.8731V60.8346C104.591 59.1284 103.417 57.6464 101.756 57.2555Z" fill="#B4E1FA"/>
<path d="M72.4163 47.8104V54.6C82.8387 58.3552 88.9634 48.957 88.9634 48.957V47.8104H72.4163Z" fill="#D29B6E"/>
<path d="M68.7388 26.6667L69.5399 44.2907C69.6146 45.9372 70.422 47.4639 71.7404 48.453L75.5413 51.3037C76.4961 52.0197 77.6572 52.4069 78.8506 52.4069H82.5277C83.7212 52.4069 84.8825 52.0197 85.8371 51.3037L89.638 48.453C90.9563 47.4639 91.7638 45.9375 91.8385 44.2907L92.6396 26.6667H68.7388Z" fill="#F0C087"/>
<path d="M77.9317 30.344C81.6088 30.344 87.1245 29.4246 88.4326 26.6669H68.7385L69.5394 44.291C69.6141 45.9375 70.4216 47.4642 71.7399 48.453L75.5408 51.3037C76.4956 52.0197 77.6567 52.4069 78.8502 52.4069H80.6893C78.8509 52.4069 75.1738 48.7298 75.1738 44.1335C75.1738 41.8856 75.1738 35.8601 75.1738 33.1019C75.1738 32.1825 76.0932 30.344 77.9317 30.344Z" fill="#E6AF78"/>
<path d="M97.8425 63.9071L103.799 58.5561C104.299 59.1882 104.591 59.9834 104.591 60.8352V68.0349C104.591 69.0502 103.768 69.8734 102.753 69.8734H96.3179V67.3264C96.3176 66.0221 96.8719 64.779 97.8425 63.9071Z" fill="#A0D2F0"/>
<path d="M63.5372 63.9071L57.5803 58.5561C57.0811 59.1882 56.7883 59.9834 56.7883 60.8352V68.0349C56.7883 69.0502 57.6115 69.8734 58.6268 69.8734H65.0618V67.3264C65.062 66.0221 64.5077 64.779 63.5372 63.9071Z" fill="#A0D2F0"/>
<path d="M82.9874 74.0109H78.3911L78.9658 61.5995H82.4132L82.9874 74.0109Z" fill="#5B5D6E"/>
<path d="M82.9874 59.7609H78.3911V60.8449C78.3911 61.7695 79.1406 62.519 80.0653 62.519H81.3135C82.2381 62.519 82.9877 61.7695 82.9877 60.8449L82.9874 59.7609Z" fill="#515262"/>
<path d="M72.287 52.1988L80.6898 59.7612C80.6898 59.7612 78.3366 60.949 75.4325 63.3436C74.8334 63.8377 73.9273 63.6375 73.606 62.9306L69.6582 54.2456L70.9072 52.3723C71.218 51.9056 71.8705 51.8238 72.287 52.1988Z" fill="#A0D2F0"/>
<path d="M89.0925 52.1988L80.6899 59.7612C80.6899 59.7612 83.0431 60.949 85.9472 63.3436C86.5463 63.8377 87.4524 63.6375 87.7737 62.9306L91.7215 54.2456L90.4725 52.3723C90.1617 51.9056 89.5092 51.8238 89.0925 52.1988Z" fill="#A0D2F0"/>
<path d="M86.2627 20.5765L87.1245 26.6667C91.0585 27.4535 91.6254 33.6272 91.7072 35.3909C91.722 35.7108 91.8242 36.0199 91.9978 36.289L93.4988 38.6173C93.4988 38.6173 92.9848 34.7677 95.3372 32.1823C95.3372 32.1825 96.1449 16.8994 86.2627 20.5765Z" fill="#785550"/>
<path d="M94.4213 38.2242L93.3832 42.3769C93.2602 42.8688 92.8181 43.2141 92.3109 43.2141C91.7536 43.2141 91.2835 42.799 91.2143 42.2461L90.6834 37.9988C90.5414 36.863 91.4269 35.8596 92.5716 35.8596H92.5751C93.8133 35.8596 94.7215 37.0231 94.4213 38.2242Z" fill="#F0C087"/>
<path d="M69.6203 18.9295L70.9801 19.8585C64.8324 24.3977 65.9816 32.1829 65.9816 32.1829C67.82 34.0213 67.82 38.6179 67.82 38.6179L69.6585 36.7795C69.6585 36.7795 68.9488 31.4685 72.4163 29.425C75.6338 27.5292 78.4491 28.5056 81.3219 28.5056C89.0211 28.5056 91.1757 25.604 90.8021 22.0706C90.609 20.2422 87.8136 16.4336 80.69 16.555C77.8152 16.6033 72.4166 17.4738 69.6203 18.9295Z" fill="#694B4B"/>
<path d="M69.0837 27.7008C69.0837 27.7008 68.1069 23.8512 70.9796 19.8582C64.8319 24.3973 65.9811 32.1825 65.9811 32.1825C67.8195 34.021 67.8195 38.6175 67.8195 38.6175L69.658 36.7791C69.658 36.7791 68.9483 31.4682 72.4158 29.4246C75.6333 27.5288 78.4487 28.5052 81.3214 28.5052C82.5734 28.5052 83.6647 28.4213 84.6364 28.2776C78.7074 28.4766 75.2124 23.9855 69.0837 27.7008Z" fill="#5A4146"/>
<path d="M66.9582 38.2242L67.9963 42.3769C68.1193 42.8688 68.5613 43.2141 69.0685 43.2141C69.6259 43.2141 70.096 42.799 70.1652 42.2461L70.696 37.9988C70.838 36.863 69.9526 35.8596 68.8079 35.8596H68.8044C67.5662 35.8596 66.6577 37.0231 66.9582 38.2242Z" fill="#E6AF78"/>
<path d="M92.2201 68.0347H86.6249C85.8852 68.0347 85.2856 68.6342 85.2856 69.3739V72.414H93.5591V69.3741C93.5593 68.6344 92.9598 68.0347 92.2201 68.0347Z" fill="#A0D2F0"/>
<path d="M57.4723 67.8194L52.1792 62.5262L38.731 75.9745L44.0241 81.2676L57.4723 67.8194Z" fill="#EEF2FB"/>
<path d="M47.447 67.2598C49.0569 69.1725 50.8274 70.9432 52.7401 72.5531L57.4745 67.8187L52.1814 62.5254L47.447 67.2598Z" fill="#C7CFE2"/>
<path d="M80.6899 0C58.9796 0 41.3796 17.5999 41.3796 39.3103C41.3796 61.0207 58.9796 78.6206 80.6899 78.6206C102.4 78.6206 120 61.0207 120 39.3103C120 17.5999 102.4 0 80.6899 0ZM80.6899 72.4139C62.4075 72.4139 47.5866 57.593 47.5866 39.3105C47.5866 21.0279 62.4075 6.20719 80.6899 6.20719C98.9726 6.20719 113.793 21.0279 113.793 39.3105C113.794 57.5927 98.9726 72.4139 80.6899 72.4139Z" fill="#EEF2FB"/>
<path d="M5.60135 118.788L1.21197 114.4C-0.404043 112.784 -0.404512 110.164 1.21174 108.547L36.1334 73.6258C37.7492 72.01 40.369 72.01 41.985 73.6256L46.3744 78.014C47.9904 79.6298 47.9909 82.2501 46.3746 83.8664L11.453 118.788C9.83721 120.404 7.21736 120.404 5.60135 118.788Z" fill="#707487"/>
<path d="M5.34963 112.685L40.2713 77.7637C41.8871 76.1479 44.5067 76.1477 46.1229 77.7635L46.3788 78.0192C46.3788 78.0192 46.3763 78.0156 46.3744 78.014L41.985 73.6256C40.369 72.01 37.7494 72.01 36.1334 73.6258L1.21174 108.548C-0.404277 110.164 -0.404277 112.784 1.21197 114.4L5.34658 118.534C3.73408 116.917 3.73455 114.3 5.34963 112.685Z" fill="#5B5D6E"/>
<path d="M43.8253 86.4159L46.3748 83.8664C47.9908 82.2503 47.9906 79.6303 46.3746 78.0143L41.9852 73.6258C40.3692 72.0103 37.7496 72.0103 36.1335 73.6261L33.5845 76.1754L43.8253 86.4159Z" fill="#C7CFE2"/>
<g opacity="0.97">
<path opacity="0.97" d="M37.7221 80.313L40.2714 77.7637C41.8872 76.1479 44.5068 76.1477 46.1231 77.7635L46.3785 78.0189C46.3769 78.0173 46.3762 78.0156 46.3746 78.014L41.9852 73.6256C40.3692 72.01 37.7496 72.01 36.1335 73.6258L33.5845 76.1751L37.7221 80.313Z" fill="#AFB9D2"/>
</g>
</g>
<defs>
<clipPath id="clip0">
<rect width="120" height="120" fill="white"/>
</clipPath>
</defs>
</svg>
