<svg width="120" height="120" viewBox="0 0 120 120" fill="none" xmlns="http://www.w3.org/2000/svg">
<path d="M70.7488 4.7417C53.5801 4.7417 38.4657 12.4686 29.6506 24.1815L90.1035 87.8848C107.682 81.2719 120 65.9267 120 48.0502C120 24.1315 97.9492 4.7417 70.7488 4.7417Z" fill="#8D9CA8"/>
<path d="M98.3698 63.8836C98.3698 39.9971 76.3488 20.633 49.1848 20.633C22.0207 20.633 0 39.9968 0 63.8836C0 83.0515 14.1813 99.3045 33.8201 104.979L30.8674 114.027C30.6293 114.757 31.3207 115.449 32.0508 115.211L60.0562 106.072C81.9888 101.72 98.3698 84.485 98.3698 63.8836Z" fill="#EEF2FB"/>
<path d="M70.7488 4.7417C53.5801 4.7417 38.4657 12.4686 29.6506 24.1815C61.9817 11.8641 98.3694 32.7268 98.3694 63.8837C98.3694 72.7641 95.3235 81.0176 90.1035 87.8848C107.682 81.2719 120 65.9267 120 48.0502C120 24.1315 97.9492 4.7417 70.7488 4.7417Z" fill="#A0D2F0"/>
<path d="M49.1856 70.2495C52.5444 70.2495 55.2674 67.5266 55.2674 64.1677C55.2674 60.8088 52.5444 58.0859 49.1856 58.0859C45.8267 58.0859 43.1038 60.8088 43.1038 64.1677C43.1038 67.5266 45.8267 70.2495 49.1856 70.2495Z" fill="#707487"/>
<path d="M24.4568 70.2495C27.8157 70.2495 30.5386 67.5266 30.5386 64.1677C30.5386 60.8088 27.8157 58.0859 24.4568 58.0859C21.0979 58.0859 18.375 60.8088 18.375 64.1677C18.375 67.5266 21.0979 70.2495 24.4568 70.2495Z" fill="#707487"/>
<path d="M73.9131 70.2495C77.272 70.2495 79.9949 67.5266 79.9949 64.1677C79.9949 60.8088 77.272 58.0859 73.9131 58.0859C70.5542 58.0859 67.8313 60.8088 67.8313 64.1677C67.8313 67.5266 70.5542 70.2495 73.9131 70.2495Z" fill="#707487"/>
<path d="M62.4352 22.2225C78.8374 29.2343 90.1439 44.0262 90.1439 61.1414C90.1439 81.7428 73.763 98.978 51.8304 103.33L32.2762 109.711L30.8676 114.027C30.6295 114.757 31.3209 115.449 32.051 115.211L60.0565 106.072C81.9891 101.72 98.37 84.4852 98.37 63.8836C98.3698 44.0339 83.1626 27.3094 62.4352 22.2225Z" fill="#C7CFE2"/>
</svg>
