<svg width="120" height="120" viewBox="0 0 120 120" fill="none" xmlns="http://www.w3.org/2000/svg">
<path d="M120 50.6282C120 37.0427 113.716 24.2903 102.305 14.7201C90.99 5.2298 75.9656 0.00323486 60 0.00323486C44.0344 0.00323486 29.01 5.2298 17.6946 14.7201C6.28406 24.2901 0 37.0427 0 50.6282C0 64.2138 6.28406 76.9661 17.6946 86.5364C28.9348 95.9636 43.834 101.184 59.6808 101.253L85.1524 119.648C85.8042 120.119 86.7251 120.109 87.3701 119.631C88.0174 119.152 88.286 118.267 88.0195 117.508L81.1793 98.0106C104.484 90.6077 120 71.7792 120 50.6282Z" fill="#EEF2FB"/>
<path d="M81.1791 98.011C88.2759 95.7565 94.6486 92.4411 100.083 88.3247C90.3312 94.107 78.4488 97.5036 65.6248 97.5036C32.4877 97.5036 5.62477 74.8381 5.62477 46.8786C5.62477 31.8047 13.4358 18.2724 25.8255 8.99817C22.9505 10.6854 20.2289 12.5951 17.6946 14.7207C6.28406 24.2907 0 37.0433 0 50.6288C0 64.2143 6.28406 76.9667 17.6946 86.5369C28.9348 95.9642 43.834 101.184 59.6808 101.253L85.1524 119.649C85.8042 120.12 86.7251 120.11 87.3701 119.632C88.0174 119.152 88.286 118.268 88.0195 117.508L81.1791 98.011Z" fill="#C7CFE2"/>
<path d="M98.0545 50.6288C101.269 47.8093 103.125 43.7656 103.125 39.3788C103.125 31.0635 96.33 24.3043 87.9916 24.3793C87.0797 18.0266 81.6012 13.1288 75 13.1288C67.763 13.1288 61.875 19.0168 61.875 26.2538V75.0038C61.875 82.2409 67.763 88.1288 75 88.1288C81.6012 88.1288 87.0797 83.2311 87.9916 76.8784C88.0362 76.8786 88.0807 76.8788 88.125 76.8788C96.3961 76.8788 103.125 70.1499 103.125 61.8788C103.125 57.4921 101.269 53.4481 98.0545 50.6288Z" fill="#7ECFC5"/>
<path d="M98.0545 50.6287C101.269 47.8092 103.125 43.7655 103.125 39.3787C103.125 32.7672 98.8275 27.1438 92.8762 25.1528C96.7992 27.861 99.375 32.3861 99.375 37.5037C99.375 41.8905 97.5187 45.9342 94.3045 48.7537C97.5187 51.5732 99.375 55.6169 99.375 60.0037C99.375 68.2748 92.6461 75.0037 84.375 75.0037C84.3307 75.0037 84.2861 75.0035 84.2416 75.0032C83.3296 81.356 77.8511 86.2537 71.25 86.2537C69.8955 86.2537 68.5884 86.0472 67.3584 85.6647C69.5125 87.2132 72.1507 88.1287 75 88.1287C81.6011 88.1287 87.0796 83.231 87.9916 76.8782C88.0361 76.8785 88.0807 76.8787 88.125 76.8787C96.3961 76.8787 103.125 70.1498 103.125 61.8787C103.125 57.4919 101.269 53.448 98.0545 50.6287Z" fill="#33C0C4"/>
<path d="M45 13.1288C38.3988 13.1288 32.9203 18.0266 32.0084 24.3793C23.6756 24.3027 16.875 31.0635 16.875 39.3788C16.875 43.7656 18.7313 47.8093 21.9455 50.6288C18.7313 53.4481 16.875 57.4921 16.875 61.8788C16.875 70.1942 23.6775 76.9398 32.0084 76.8784C32.9203 83.2311 38.3988 88.1288 45 88.1288C52.237 88.1288 58.125 82.2409 58.125 75.0038V26.2538C58.125 19.0166 52.237 13.1288 45 13.1288Z" fill="#B4E1FA"/>
<path d="M48.75 86.2537C42.1488 86.2537 36.6703 81.356 35.7584 75.0033C27.4275 75.0647 20.625 68.3191 20.625 60.0037C20.625 55.6169 22.4813 51.5733 25.6955 48.7537C22.4813 45.9342 20.625 41.8905 20.625 37.5037C20.625 32.3864 23.2029 27.8606 27.1263 25.1522C21.176 27.1427 16.875 32.7672 16.875 39.3787C16.875 43.7655 18.7313 47.8092 21.9455 50.6287C18.7313 53.448 16.875 57.4919 16.875 61.8787C16.875 70.1941 23.6775 76.9397 32.0084 76.8783C32.9203 83.231 38.3988 88.1287 45 88.1287C47.8495 88.1287 50.4874 87.213 52.6416 85.6647C51.4116 86.0472 50.1045 86.2537 48.75 86.2537Z" fill="#A0D2F0"/>
</svg>
