<svg width="24" height="24" viewBox="0 0 24 24" fill="none" xmlns="http://www.w3.org/2000/svg">
<path d="M24 12C24 14.4112 24 16.0374 23.9439 16.9346C23.8318 19.1215 23.215 20.8037 21.9813 21.9813C20.7477 23.1589 19.1215 23.8318 16.9346 23.9439C16.0374 24 14.3551 24 12 24C9.58879 24 7.96262 24 7.06542 23.9439C4.8785 23.8318 3.19626 23.215 2.01869 21.9813C0.841121 20.8037 0.168224 19.1215 0.0560747 16.9346C-5.43126e-08 16.0374 0 14.3551 0 12C0 9.64486 -5.43126e-08 7.96262 0.0560747 7.06542C0.168224 4.87851 0.785046 3.19626 2.01869 2.01869C3.19626 0.841122 4.8785 0.168224 7.06542 0.0560747C7.96262 -5.43126e-08 9.64486 0 12 0C14.4112 0 16.0374 -5.43126e-08 16.9346 0.0560747C19.1215 0.168224 20.8037 0.785047 21.9813 2.01869C23.1589 3.25234 23.8318 4.87851 23.9439 7.06542C23.9439 7.96262 24 9.58879 24 12ZM13.1776 2.13084C12.4486 2.13084 12.0561 2.13084 12 2.13084C11.9439 2.13084 11.5514 2.13084 10.8224 2.13084C10.0935 2.13084 9.53271 2.13084 9.19626 2.13084C8.80374 2.13084 8.29907 2.13084 7.68224 2.18692C7.06542 2.18692 6.50467 2.24299 6.05608 2.35514C5.60748 2.41122 5.21495 2.52336 4.93458 2.63551C4.42991 2.85981 3.98131 3.14019 3.53271 3.53271C3.14019 3.92523 2.85981 4.37383 2.63551 4.93458C2.52336 5.21495 2.41121 5.60748 2.35514 6.05607C2.29907 6.50467 2.24299 7.00935 2.18692 7.68224C2.18692 8.29907 2.13084 8.80374 2.13084 9.19626C2.13084 9.58879 2.13084 10.1495 2.13084 10.8224C2.13084 11.5514 2.13084 11.9439 2.13084 12C2.13084 12.0561 2.13084 12.4486 2.13084 13.1776C2.13084 13.9065 2.13084 14.4673 2.13084 14.8037C2.13084 15.1963 2.13084 15.7009 2.18692 16.3178C2.18692 16.9346 2.24299 17.4953 2.35514 17.9439C2.46729 18.3925 2.52336 18.785 2.63551 19.0654C2.85981 19.5701 3.14019 20.0187 3.53271 20.4673C3.92523 20.8598 4.37383 21.1402 4.93458 21.3645C5.21495 21.4766 5.60748 21.5888 6.05608 21.6449C6.50467 21.7009 7.00935 21.757 7.68224 21.8131C8.35514 21.8692 8.80374 21.8692 9.19626 21.8692C9.58879 21.8692 10.1495 21.8692 10.8224 21.8692C11.5514 21.8692 11.9439 21.8692 12 21.8692C12.0561 21.8692 12.4486 21.8692 13.1776 21.8692C13.9065 21.8692 14.4673 21.8692 14.8037 21.8692C15.1963 21.8692 15.7009 21.8692 16.3178 21.8131C16.9346 21.8131 17.4953 21.757 17.9439 21.6449C18.3925 21.5888 18.785 21.4766 19.0654 21.3645C19.5701 21.1402 20.0187 20.8598 20.4673 20.4673C20.8598 20.0748 21.1402 19.6262 21.3645 19.0654C21.4766 18.785 21.5888 18.3925 21.6449 17.9439C21.7009 17.4953 21.757 16.9907 21.8131 16.3178C21.8131 15.7009 21.8692 15.1963 21.8692 14.8037C21.8692 14.4112 21.8692 13.8505 21.8692 13.1776C21.8692 12.4486 21.8692 12.0561 21.8692 12C21.8692 11.9439 21.8692 11.5514 21.8692 10.8224C21.8692 10.0935 21.8692 9.53271 21.8692 9.19626C21.8692 8.80374 21.8692 8.29907 21.8131 7.68224C21.8131 7.06542 21.757 6.50467 21.6449 6.05607C21.5888 5.60748 21.4766 5.21495 21.3645 4.93458C21.1402 4.42991 20.8598 3.98131 20.4673 3.53271C20.0748 3.14019 19.6262 2.85981 19.0654 2.63551C18.785 2.52336 18.3925 2.41122 17.9439 2.35514C17.4953 2.29907 16.9907 2.24299 16.3178 2.18692C15.7009 2.18692 15.1963 2.13084 14.8037 2.13084C14.4673 2.13084 13.9065 2.13084 13.1776 2.13084ZM16.3178 7.62617C17.4953 8.80374 18.1122 10.2617 18.1122 12C18.1122 13.7383 17.4953 15.1402 16.3178 16.3738C15.1402 17.5514 13.6822 18.1682 11.9439 18.1682C10.2056 18.1682 8.80374 17.5514 7.57009 16.3738C6.39252 15.1963 5.7757 13.7383 5.7757 12C5.7757 10.2617 6.39252 8.85981 7.57009 7.62617C8.74766 6.4486 10.2056 5.83178 11.9439 5.83178C13.6822 5.83178 15.1402 6.39252 16.3178 7.62617ZM14.8037 14.8037C15.5888 14.0187 15.9813 13.0654 15.9813 12C15.9813 10.9346 15.5888 9.92523 14.8037 9.14019C14.0187 8.35514 13.0654 7.96262 11.9439 7.96262C10.8224 7.96262 9.86916 8.35514 9.08411 9.14019C8.29907 9.92523 7.90654 10.8785 7.90654 12C7.90654 13.1215 8.29907 14.0748 9.08411 14.8037C9.86916 15.5888 10.8224 15.9813 11.9439 15.9813C13.0654 15.9813 14.0187 15.5888 14.8037 14.8037ZM19.4019 4.54206C19.6822 4.82243 19.8505 5.15888 19.8505 5.5514C19.8505 5.94393 19.6822 6.28037 19.4019 6.56075C19.1215 6.84112 18.785 7.00935 18.3925 7.00935C18 7.00935 17.6636 6.84112 17.3832 6.56075C17.1028 6.28037 16.9346 5.94393 16.9346 5.5514C16.9346 5.15888 17.1028 4.82243 17.3832 4.54206C17.6636 4.26168 18 4.09346 18.3925 4.09346C18.785 4.09346 19.1215 4.26168 19.4019 4.54206Z" fill="white"/>
</svg>
