<svg width="24" height="24" viewBox="0 0 24 24" fill="none" xmlns="http://www.w3.org/2000/svg">
<path d="M7.09776 14.0642L2.58376 18.5782C1.80476 19.3582 1.80476 20.6352 2.58376 21.4162C3.36376 22.1952 4.64076 22.1952 5.42076 21.4162L9.93376 16.9012C11.1818 17.6352 12.5858 18.0002 13.9898 18.0002C14.1738 18.0002 14.3548 17.9942 14.5368 17.9822C16.4008 17.8572 18.2298 17.0872 19.6558 15.6642C22.7808 12.5372 22.7808 7.47024 19.6558 4.34324C18.0938 2.78024 16.0438 2.00024 13.9958 2.00024C11.9478 2.00024 9.89876 2.78024 8.33576 4.34324C6.90776 5.77224 6.13876 7.60724 6.01676 9.47724C5.91376 11.0562 6.27176 12.6592 7.09776 14.0642ZM13.9968 4.00024C15.6008 4.00024 17.1088 4.62424 18.2438 5.75724C20.5848 8.09924 20.5848 11.9082 18.2448 14.2482C17.2208 15.2722 15.8568 15.8892 14.4038 15.9862C14.2668 15.9952 14.1288 16.0002 13.9908 16.0002C12.3858 16.0002 10.8788 15.3792 9.74976 14.2502C8.53276 13.0312 7.89976 11.3392 8.01276 9.60724C8.10776 8.14924 8.72576 6.78224 9.74976 5.75824C10.8838 4.62424 12.3928 4.00024 13.9968 4.00024Z" fill="white"/>
</svg>
