<svg width="24" height="24" viewBox="0 0 24 24" fill="none" xmlns="http://www.w3.org/2000/svg">
<path fill-rule="evenodd" clip-rule="evenodd" d="M1.77383 0C0.794422 0 0 0.770223 0 1.71923V22.2814C0 23.2304 0.794422 24 1.77383 24H22.2262C23.2059 24 24 23.2304 24 22.2811V1.71923C24 0.770223 23.2059 0 22.2262 0H1.77383ZM7.27529 9.25298V20.0902H3.65033V9.25298H7.27529ZM7.51412 5.90139C7.51412 6.94137 6.7273 7.7736 5.46345 7.7736H5.46313H5.43969C4.22303 7.7736 3.43652 6.94137 3.43652 5.90139C3.43652 4.83781 4.24678 4.02887 5.48752 4.02887C6.7273 4.02887 7.49037 4.83781 7.51412 5.90139ZM12.9063 20.0902H9.28162C9.28193 20.0264 9.32898 10.2667 9.28194 9.25329H12.9066V10.7875C13.3884 10.0491 14.2507 8.99897 16.1736 8.99897C18.5585 8.99897 20.3465 10.5479 20.3465 13.8765V20.0902H16.7219V14.2933C16.7219 12.8362 16.197 11.8425 14.8857 11.8425C13.8841 11.8425 13.2876 12.5127 13.0257 13.1601C12.93 13.3912 12.9063 13.7154 12.9063 14.0389V20.0902ZM9.28162 20.0906V20.0902V20.0906Z" fill="white"/>
</svg>
