<svg width="24" height="24" viewBox="0 0 24 24" fill="none" xmlns="http://www.w3.org/2000/svg">
<path fill-rule="evenodd" clip-rule="evenodd" d="M24 4.36915C23.1156 4.76951 22.1668 5.04132 21.1714 5.16253C22.1883 4.53811 22.9688 3.54637 23.334 2.36731C22.3816 2.94766 21.329 3.36639 20.2083 3.59412C19.3096 2.61341 18.0313 2 16.6135 2C13.8959 2 11.6903 4.26263 11.6903 7.05051C11.6903 7.4472 11.7333 7.83287 11.8192 8.20018C7.72669 7.99082 4.09966 5.97796 1.67209 2.92195C1.24959 3.66758 1.00612 4.53444 1.00612 5.46006C1.00612 7.21212 1.87617 8.75849 3.19737 9.66208C2.39176 9.63636 1.6327 9.40863 0.966731 9.0303C0.966731 9.05234 0.966731 9.07071 0.966731 9.09275C0.966731 11.539 2.66388 13.5813 4.91601 14.0441C4.50425 14.1579 4.06743 14.2204 3.61987 14.2204C3.30121 14.2204 2.99329 14.1873 2.69253 14.1286C3.31911 16.1341 5.138 17.596 7.28987 17.6364C5.60346 18.9917 3.48381 19.7998 1.1744 19.7998C0.776966 19.7998 0.386693 19.7741 0 19.73C2.17694 21.1625 4.76563 22 7.54767 22C16.6027 22 21.5545 14.3049 21.5545 7.63085C21.5545 7.41047 21.5509 7.19376 21.5402 6.97704C22.5034 6.26446 23.3376 5.37557 23.9964 4.3618L24 4.36915Z" fill="white"/>
</svg>
