<svg width="24" height="24" viewBox="0 0 24 24" fill="none" xmlns="http://www.w3.org/2000/svg">
<path fill-rule="evenodd" clip-rule="evenodd" d="M24 22.6775C24 23.404 23.4133 24 22.6775 24H1.32247C0.596042 24 0 23.4133 0 22.6775V1.32247C0 0.596042 0.596042 0 1.32247 0H22.6775C23.404 0 24 0.586729 24 1.32247V22.6775ZM16.5588 14.7055V24H12.8242V14.7055H9.69499V11.0826H12.8242V8.40976C12.8242 5.30848 14.7148 3.6228 17.4808 3.6228C18.8033 3.6228 19.9395 3.71593 20.2747 3.7625V7.01279H18.3562C16.8475 7.01279 16.5588 7.72059 16.5588 8.77298V11.0826H20.1444L19.6787 14.7055H16.5588Z" fill="white"/>
</svg>
