<svg width="24" height="24" viewBox="0 0 24 24" fill="none" xmlns="http://www.w3.org/2000/svg">
<path d="M17.9999 14.7226C17.1085 14.7226 16.3067 15.0976 15.7375 15.6961L9.08612 12.4396C9.109 12.2866 9.12475 12.1317 9.12475 11.9723C9.12475 11.8171 9.10975 11.6656 9.088 11.5167L15.7296 8.29582C16.2992 8.8992 17.1047 9.27795 17.9999 9.27795C19.7256 9.27795 21.1248 7.87882 21.1248 6.15307C21.1248 4.42695 19.7256 3.0282 17.9999 3.0282C16.2741 3.0282 14.875 4.42695 14.875 6.15307C14.875 6.30832 14.89 6.45945 14.9117 6.6087L8.27013 9.82957C7.7005 9.2262 6.89538 8.84745 5.99988 8.84745C4.27375 8.84745 2.875 10.2466 2.875 11.9723C2.875 13.6984 4.27375 15.0972 5.99988 15.0972C6.89125 15.0972 7.693 14.7222 8.26225 14.1237L14.9136 17.3802C14.8907 17.5328 14.875 17.6881 14.875 17.8474C14.875 19.5736 16.2741 20.9723 17.9999 20.9723C19.7256 20.9723 21.1248 19.5736 21.1248 17.8474C21.1248 16.1213 19.7256 14.7226 17.9999 14.7226Z" fill="#5AB9AC"/>
</svg>
