<svg width="208" height="32" viewBox="0 0 208 32" fill="none" xmlns="http://www.w3.org/2000/svg">
<mask id="mask0" mask-type="alpha" maskUnits="userSpaceOnUse" x="0" y="1" width="30" height="31">
<path fill-rule="evenodd" clip-rule="evenodd" d="M29.8257 31.3587H0V1.03027H29.8257V31.3587Z" fill="white"/>
</mask>
<g mask="url(#mask0)">
<path fill-rule="evenodd" clip-rule="evenodd" d="M13.0488 6.29604C14.56 6.29604 15.7531 6.60939 16.5515 7.21112C17.3001 7.77599 17.7086 8.61556 17.7086 9.70784C17.7086 10.5182 17.4868 11.2033 17.0699 11.7419C16.6423 12.2949 16.0037 12.7082 15.1837 12.9597C14.7514 13.0923 14.392 13.3515 14.1414 13.6899C13.8903 14.0282 13.7479 14.4444 13.7479 14.8927V16.3881V16.4161V16.7152C13.7479 17.1945 13.9129 17.6374 14.1964 17.9871C14.4798 18.3366 14.8811 18.5912 15.353 18.6928C16.4958 18.939 17.3857 19.3814 17.9807 19.9926C18.5489 20.5753 18.8526 21.3263 18.8526 22.2176C18.8526 23.449 18.3443 24.4009 17.4108 25.0449C16.4121 25.7334 14.9272 26.0932 13.0488 26.0932H12.0345C11.7069 26.0932 11.4096 25.9606 11.1955 25.7459C10.9803 25.5319 10.8468 25.2364 10.8468 24.9117V7.47751C10.8468 7.15285 10.9803 6.85734 11.1955 6.6415C11.4096 6.42863 11.7069 6.29604 12.0345 6.29604H13.0488ZM19.0171 30.5443C20.0678 30.1822 20.9923 29.7024 21.7763 29.1161C23.7426 27.6439 24.8263 25.5111 24.8263 22.8503C24.8263 20.9956 24.3461 19.571 23.6685 18.4847C22.6704 16.8835 21.2489 16.0302 20.2992 15.6092C20.078 15.5111 19.9009 15.3606 19.7802 15.1757C19.6916 15.0396 19.6324 14.8826 19.6079 14.7114C19.636 14.5163 19.7108 14.3374 19.8214 14.1881L19.8226 14.1869C19.9679 13.9913 20.1779 13.8409 20.432 13.763C21.4223 13.4591 22.2033 12.9478 22.7385 12.2539C23.2714 11.5642 23.5555 10.7068 23.5555 9.70784C23.5555 8.33788 23.028 7.27236 22.0604 6.54279C21.1102 5.8263 19.7437 5.45349 18.0483 5.45349H12.0345C11.4754 5.45349 10.9664 5.68122 10.5963 6.0469C10.2279 6.41377 9.99888 6.91977 9.99888 7.4775V24.9117C9.99888 25.3523 10.1418 25.7608 10.384 26.0932H5.84738V3.05429C5.84738 2.72963 5.98074 2.43412 6.19603 2.22006C6.41132 2.00601 6.70854 1.87282 7.03506 1.87282H18.3024C21.289 1.87282 23.696 2.54174 25.3442 3.76186C26.9469 4.94868 27.8343 6.67361 27.8343 8.82308C27.8343 9.82677 27.6442 10.7454 27.2884 11.5523C26.9277 12.3698 26.3955 13.0763 25.7167 13.6434C25.4614 13.857 25.27 14.112 25.148 14.3962C25.0254 14.6828 24.9728 14.9962 24.9949 15.3256C25.017 15.6562 25.1109 15.96 25.27 16.2264C25.4303 16.4946 25.6539 16.7229 25.9344 16.8995C26.9121 17.5173 27.6752 18.3491 28.1908 19.3528C28.7051 20.3535 28.9778 21.5332 28.9778 22.8503C28.9778 25.2328 28.0155 27.1367 26.2687 28.4442C24.5745 29.7125 22.1381 30.4355 19.1169 30.5099L19.0171 30.5443ZM13.7953 31.3577C13.8867 31.3571 13.9783 31.3554 14.0691 31.3536C13.9783 31.356 13.8867 31.3571 13.7953 31.3577ZM7.03516 1.03027H2.03567C1.47712 1.03027 0.968201 1.25741 0.59922 1.62428L0.597426 1.62606C0.229043 1.99293 0 2.49834 0 3.05429V28.1172V29.3343C0 29.8903 0.229043 30.3963 0.597426 30.7632L0.59922 30.7649C0.968201 31.1312 1.47712 31.359 2.03627 31.359H6.74751H13.5991H18.5986C22.0449 31.359 24.8372 30.5669 26.7753 29.1161C28.7417 27.6439 29.8258 25.5111 29.8258 22.8503C29.8258 21.4024 29.5197 20.0937 28.9426 18.9704C28.3559 17.8294 27.4924 16.8858 26.3878 16.1883C26.221 16.0831 26.0894 15.9505 25.9985 15.7983C25.9064 15.6443 25.852 15.4665 25.8389 15.2697C25.8257 15.0735 25.8562 14.8898 25.9261 14.7257C25.9973 14.5603 26.1097 14.4111 26.2599 14.2857C27.0397 13.634 27.6503 12.8242 28.0629 11.8883C28.4666 10.9737 28.6819 9.94153 28.6819 8.82308C28.6819 6.39295 27.6718 4.43792 25.8472 3.08698C24.0525 1.75866 21.4733 1.03027 18.3025 1.03027H7.03516Z" fill="#48C9B7"/>
</g>
<path fill-rule="evenodd" clip-rule="evenodd" d="M50.7341 1.61328H52.8369H55.193C55.4499 1.61328 55.69 1.68541 55.8929 1.81606C56.0946 1.94553 56.2572 2.13352 56.3611 2.36645L68.4861 29.594C68.5743 29.7926 68.6097 29.9989 68.593 30.2011C68.5755 30.4057 68.5059 30.6043 68.3858 30.7852C68.2658 30.9661 68.1091 31.108 67.9272 31.2055C67.7424 31.3031 67.5365 31.3545 67.3179 31.3545H63.5356H61.0222H57.0628C56.8029 31.3545 56.5597 31.2806 56.3557 31.1464C56.1504 31.0122 55.9865 30.8189 55.8856 30.5818L54.2895 26.8278L54.1947 26.6061L54.0639 26.2993L54.2895 26.8278C54.2535 26.7605 54.2037 26.706 54.1436 26.6688C54.0807 26.631 54.0062 26.6085 53.9239 26.6061H45.4654C45.379 26.6061 45.2997 26.6286 45.2355 26.6688C45.1737 26.706 45.1239 26.7605 45.0885 26.8278L43.4918 30.5818C43.3909 30.8189 43.2271 31.0116 43.0223 31.1464C42.8177 31.2806 42.5745 31.3545 42.3146 31.3545H38.3552C38.2861 31.3545 38.2177 31.3492 38.1517 31.3391V31.3545H35.918H32.0595C31.841 31.3545 31.6351 31.3031 31.452 31.2055C31.2683 31.108 31.1116 30.9661 30.9916 30.7852C30.8715 30.6043 30.8019 30.4057 30.7851 30.2011C30.7677 29.9989 30.8031 29.7926 30.8913 29.594L43.0163 2.36645C43.1202 2.13352 43.2828 1.94553 43.4846 1.81606C43.6881 1.68541 43.9281 1.61328 44.1844 1.61328H46.5405H48.8972H50.7341ZM48.3415 19.1945L48.3811 19.0751L49.6885 16.0216L50.9965 19.0751L51.0361 19.1945L51.6058 20.5318C51.616 20.5802 51.6178 20.6251 51.6112 20.6677C51.6028 20.7185 51.5793 20.7735 51.5385 20.8338C51.5001 20.8912 51.4467 20.9397 51.3837 20.9716C51.3267 21.0017 51.2606 21.0194 51.1904 21.0207H48.1938C48.1212 21.0207 48.0528 21.0023 47.9921 20.9716C47.9309 20.939 47.8781 20.8912 47.8391 20.8338C47.7982 20.7735 47.7748 20.7185 47.7664 20.6677C47.7598 20.6251 47.7616 20.5802 47.7718 20.5318L48.3415 19.1945ZM52.8368 2.45099H50.4801C50.3913 2.45099 50.3108 2.47464 50.2454 2.51661C50.1787 2.55917 50.1247 2.62244 50.0899 2.70047L37.9649 29.928C37.9349 29.9959 37.9223 30.0658 37.9277 30.1326C37.9331 30.1987 37.9571 30.2644 37.9985 30.327C38.04 30.3897 38.0922 30.4376 38.1516 30.4689C38.2092 30.5002 38.2783 30.5168 38.3551 30.5168H42.3145C42.4052 30.5168 42.4874 30.4925 42.5535 30.4494C42.6189 30.4063 42.6729 30.3418 42.7071 30.2608C43.1934 29.1181 43.775 27.5496 44.3123 26.4909C44.4179 26.268 44.5806 26.0877 44.781 25.9629C44.9798 25.837 45.215 25.7684 45.4654 25.7684H53.8482L52.1735 21.8583H50.1836H48.1936C47.9788 21.8583 47.7728 21.8034 47.5916 21.7082C47.4055 21.6083 47.2458 21.4658 47.1312 21.2955C47.0231 21.1347 46.9564 20.9692 46.9288 20.7989C46.9007 20.6281 46.9126 20.459 46.9577 20.2899L46.9763 20.2337L47.5508 18.8853C47.5663 18.8374 47.5808 18.799 47.6 18.7511L51.5102 9.62027C51.6116 9.38261 51.7755 9.19047 51.979 9.05805C52.1831 8.92503 52.4268 8.85173 52.6874 8.85232C52.7114 8.85113 52.7498 8.8535 52.799 8.85764V8.85587L52.8434 8.8606L52.9857 8.85113C53.2462 8.85173 53.4899 8.92503 53.694 9.05805C53.8981 9.19047 54.0614 9.38261 54.1628 9.62027L58.073 18.7511L58.1078 18.8368L58.1235 18.8877L58.5382 19.8614L61.5042 26.8278L61.3571 26.482L61.3607 26.4909L62.9659 30.2608C63.0001 30.3418 63.0541 30.4063 63.1195 30.4494C63.1837 30.4908 63.263 30.515 63.35 30.5168H63.5355H67.3179C67.3947 30.5168 67.4637 30.5002 67.522 30.4695C67.5808 30.4376 67.633 30.3897 67.6745 30.327C67.7159 30.2644 67.7399 30.1987 67.7453 30.1343C67.7507 30.0658 67.7387 29.9959 67.7087 29.928L55.583 2.70047C55.5488 2.62244 55.4942 2.55917 55.4276 2.51661C55.3622 2.47405 55.2817 2.45099 55.1929 2.45099H52.8368Z" fill="#48C9B7"/>
<mask id="mask1" mask-type="alpha" maskUnits="userSpaceOnUse" x="67" y="0" width="33" height="32">
<path fill-rule="evenodd" clip-rule="evenodd" d="M100 31.3132V0.985107H67.0579V31.3132H100Z" fill="white"/>
</mask>
<g mask="url(#mask1)">
<path fill-rule="evenodd" clip-rule="evenodd" d="M93.966 25.0217C94.4297 25.536 94.3915 26.3293 93.8783 26.7972C92.341 28.2004 90.528 29.3409 88.5916 30.1234L87.7 30.4558C87.8366 30.4611 87.9738 30.4653 88.1117 30.4683C90.2052 30.4433 91.7992 30.2262 93.9845 29.3433C95.8333 28.5964 97.5597 27.5113 99.02 26.1782C99.1972 25.9975 99.1967 25.7477 99.0487 25.5848L96.8716 23.1684C96.6837 22.9597 96.291 23.0322 95.8548 23.0322H92.1739L93.966 25.0217ZM81.4364 23.1582C79.5983 21.3424 78.4783 18.8189 78.4783 15.9833C78.4783 13.1661 79.6008 10.6503 81.443 8.83856C83.2799 7.03098 85.8322 5.92741 88.6961 5.92741C90.0353 5.92741 91.3911 6.22827 92.6735 6.77709C93.9745 7.33304 95.2009 8.14585 96.2607 9.15726C96.3067 9.20126 96.3562 9.23278 96.4075 9.25121C96.4588 9.26965 96.5179 9.27678 96.5824 9.27261C96.6456 9.26846 96.7023 9.25359 96.7506 9.22861C96.7996 9.20364 96.8444 9.16559 96.8849 9.11445L99.056 6.39714C99.1252 6.31033 99.155 6.20271 99.1467 6.09866C99.1383 5.99519 99.0918 5.8947 99.01 5.82038C97.6321 4.57648 95.9689 3.5734 94.1726 2.88307C92.4008 2.20225 90.4984 1.82766 88.612 1.82766C84.3654 1.82766 80.6093 3.3748 77.9196 5.93217C75.239 8.48002 73.614 12.0357 73.614 16.0659C73.6355 18.6357 74.6571 20.9184 76.3215 22.5618C78.0044 24.225 80.3491 25.2382 82.9856 25.2382C83.4248 25.2382 83.8682 25.2049 84.3116 25.1401C83.2333 24.6471 82.263 23.974 81.4364 23.1582ZM93.3938 22.1896H94.2609H95.8549H96.4713C96.5268 22.186 96.5829 22.186 96.6379 22.1896C96.9577 22.2105 97.2698 22.3508 97.4996 22.6053L99.676 25.0217C99.9081 25.2792 100.014 25.6062 99.9989 25.9273C99.9833 26.2478 99.8449 26.5635 99.5889 26.7972C98.051 28.2004 96.2386 29.3409 94.3021 30.1234C92.4766 30.8607 90.5388 31.2834 88.6119 31.312V31.3132H82.9021V31.312C82.8328 31.3126 82.763 31.3132 82.6937 31.3132C78.2836 31.3132 74.3736 29.6566 71.5664 26.9209C68.761 24.1863 67.0579 20.3761 67.0579 16.0659C67.0579 11.7967 68.7831 8.02693 71.6279 5.3227C74.4709 2.61966 78.4317 0.985107 82.9021 0.985107H88.6119C90.5979 0.985107 92.6049 1.38052 94.4764 2.09997C96.3669 2.82598 98.1196 3.88437 99.5745 5.19843C99.8239 5.42319 99.9636 5.72346 99.9887 6.03265C100.014 6.34125 99.9248 6.65936 99.7166 6.92039L97.5456 9.63829C97.4333 9.77924 97.2979 9.89103 97.1433 9.97185C96.9899 10.0528 96.8204 10.1003 96.6384 10.1122H96.4582H90.9286C90.7472 10.1241 90.5729 10.1003 90.41 10.0414C90.247 9.98253 90.0973 9.88919 89.966 9.76314C88.9813 8.82369 87.8409 8.06856 86.6313 7.55125C86.3389 7.4258 86.0422 7.314 85.7427 7.21769C84.3188 7.6666 83.0548 8.43364 82.0343 9.43791C80.3503 11.0939 79.3239 13.398 79.3239 15.9833C79.3239 18.5864 80.349 20.9005 82.0313 22.5618C83.0662 23.5846 84.351 24.3611 85.7999 24.8077C86.0804 24.7232 86.3591 24.6269 86.6343 24.5199C87.8462 24.0478 89.0058 23.3563 90.0221 22.4899C90.2834 22.2676 90.6105 22.1688 90.928 22.1896H92.8621H93.3938Z" fill="#48C9B7"/>
</g>
<path d="M114 12.1554H118.658C121.033 12.1554 123.099 11.0597 123.099 8.62859C123.099 7.39594 122.428 6.16328 121.015 5.76952V5.73528C121.993 5.23879 122.573 4.26294 122.573 3.133C122.573 1.12994 120.924 0 118.586 0H114V12.1554ZM116.338 4.96487V1.90035H118.568C119.637 1.90035 120.199 2.53379 120.199 3.40693C120.199 4.28006 119.619 4.96487 118.604 4.96487H116.338ZM116.338 10.255V6.74537H118.84C120.018 6.74537 120.706 7.48154 120.706 8.49163C120.706 9.51885 120.036 10.255 118.84 10.255H116.338Z" fill="#49504F"/>
<path d="M124.582 7.7897C124.582 10.2721 126.503 12.3608 129.567 12.3608C130.89 12.3608 132.34 11.8986 133.282 11.111L132.376 9.55309C131.633 10.1181 130.672 10.5118 129.73 10.5118C128.334 10.5118 127.101 9.72429 126.956 8.20059H133.319C133.355 7.92667 133.391 7.63562 133.391 7.3617C133.391 5.05047 131.941 3.2186 129.295 3.2186C126.521 3.2186 124.582 5.10183 124.582 7.7897ZM127.011 6.71113C127.228 5.59832 128.062 4.86215 129.24 4.86215C130.273 4.86215 131.071 5.54695 131.089 6.71113H127.011Z" fill="#49504F"/>
<path d="M134.742 7.7897C134.742 10.2721 136.664 12.3608 139.727 12.3608C141.05 12.3608 142.5 11.8986 143.443 11.111L142.536 9.55309C141.793 10.1181 140.832 10.5118 139.89 10.5118C138.494 10.5118 137.262 9.72429 137.117 8.20059H143.479C143.515 7.92667 143.551 7.63562 143.551 7.3617C143.551 5.05047 142.101 3.2186 139.455 3.2186C136.682 3.2186 134.742 5.10183 134.742 7.7897ZM137.171 6.71113C137.389 5.59832 138.222 4.86215 139.401 4.86215C140.434 4.86215 141.231 5.54695 141.249 6.71113H137.171Z" fill="#49504F"/>
<path d="M144.903 7.7897C144.903 10.3235 146.86 12.3608 149.923 12.3608C151.41 12.3608 152.86 11.813 153.73 10.9398L152.842 9.39901C152.153 10.0325 151.101 10.5118 150.123 10.5118C148.346 10.5118 147.241 9.24492 147.241 7.77258C147.241 6.28312 148.346 5.06759 150.05 5.06759C150.956 5.06759 151.863 5.46135 152.443 6.0092L153.476 4.51974C152.588 3.61237 151.174 3.2186 149.923 3.2186C146.86 3.2186 144.903 5.30727 144.903 7.7897Z" fill="#49504F"/>
<path d="M155.395 12.1554H157.697V8.09787C157.697 6.43721 158.748 5.20455 160.361 5.20455C161.521 5.20455 161.811 5.9236 161.811 6.98505V12.1554H164.113V6.53993C164.113 4.2287 162.935 3.2186 160.887 3.2186C159.292 3.2186 158.132 4.1431 157.678 4.98199H157.642C157.642 4.98199 157.697 4.67382 157.697 4.24582V0H155.395V12.1554Z" fill="#49504F"/>
<path d="M165.931 7.7897C165.931 10.4776 168.197 12.3608 171.006 12.3608C173.816 12.3608 176.081 10.4776 176.081 7.7897C176.081 5.11895 173.816 3.2186 170.988 3.2186C168.197 3.2186 165.931 5.11895 165.931 7.7897ZM168.269 7.7897C168.269 6.1804 169.502 5.06759 171.006 5.06759C172.511 5.06759 173.761 6.1804 173.761 7.7897C173.761 9.41613 172.511 10.5118 171.006 10.5118C169.502 10.5118 168.269 9.41613 168.269 7.7897Z" fill="#49504F"/>
<path d="M177.981 9.43325C177.981 11.9328 179.558 12.241 180.827 12.241C181.135 12.241 181.388 12.2067 181.552 12.1896V10.2893C181.425 10.3064 181.298 10.3064 181.207 10.3064C180.609 10.3064 180.265 10.0667 180.265 9.10796V0H177.981V9.43325Z" fill="#49504F"/>
<path d="M183.22 12.1554H185.522V8.23483C185.522 6.77961 186.284 5.20455 187.897 5.20455C188.984 5.20455 189.147 6.0092 189.147 6.95081V12.1554H191.449V8.23483C191.449 6.71113 192.229 5.20455 193.806 5.20455C194.857 5.20455 195.074 5.95784 195.074 6.95081V12.1554H197.358V6.53993C197.358 4.24582 196.271 3.2186 194.331 3.2186C192.881 3.2186 191.685 4.10885 191.177 5.01623H191.141C190.761 3.83493 189.854 3.2186 188.459 3.2186C187.009 3.2186 185.867 4.21158 185.432 5.06759H185.395C185.395 5.06759 185.432 4.79366 185.432 4.45126V3.42405H183.22V12.1554Z" fill="#49504F"/>
<path d="M199.191 7.7897C199.191 10.2721 201.112 12.3608 204.175 12.3608C205.499 12.3608 206.949 11.8986 207.891 11.111L206.985 9.55309C206.242 10.1181 205.281 10.5118 204.339 10.5118C202.943 10.5118 201.71 9.72429 201.565 8.20059H207.927C207.964 7.92667 208 7.63562 208 7.3617C208 5.05047 206.55 3.2186 203.904 3.2186C201.13 3.2186 199.191 5.10183 199.191 7.7897ZM201.62 6.71113C201.837 5.59832 202.671 4.86215 203.849 4.86215C204.882 4.86215 205.68 5.54695 205.698 6.71113H201.62Z" fill="#49504F"/>
<path d="M114 31.3194H116.393L117.48 28.2035H121.993L123.099 31.3194H125.492L120.978 19.1641H118.513L114 31.3194ZM118.06 26.4059L119.22 23.1531C119.438 22.4683 119.728 21.2699 119.728 21.2699H119.764C119.764 21.2699 120.054 22.4683 120.271 23.1531L121.413 26.4059H118.06Z" fill="#49504F"/>
<path d="M126.191 26.9538C126.191 29.6588 127.805 31.5249 130.288 31.5249C131.611 31.5249 132.662 30.9085 133.206 30.0183H133.242C133.242 30.0183 133.206 30.2409 133.206 30.5661V31.3194H135.363V19.1641H133.079V23.0161C133.079 23.3072 133.115 23.5297 133.115 23.5297H133.079C132.481 22.7422 131.412 22.3827 130.378 22.3827C127.931 22.3827 126.191 24.1803 126.191 26.9538ZM128.511 26.9538C128.511 25.2246 129.581 24.2488 130.832 24.2488C132.39 24.2488 133.133 25.5841 133.133 26.9366C133.133 28.8712 132.01 29.693 130.813 29.693C129.454 29.693 128.511 28.6144 128.511 26.9538Z" fill="#49504F"/>
<path d="M137.76 28.2035C137.76 30.5833 138.975 31.5249 140.968 31.5249C142.545 31.5249 143.742 30.5833 144.177 29.693H144.213C144.213 29.693 144.159 29.9669 144.159 30.2922V31.3194H146.37V22.5881H144.086V26.5942C144.086 28.1522 143.162 29.5389 141.494 29.5389C140.352 29.5389 140.062 28.8199 140.062 27.7584V22.5881H137.76V28.2035Z" fill="#49504F"/>
<path d="M148.861 28.5973C148.861 31.0969 150.438 31.405 151.706 31.405C152.015 31.405 152.268 31.3708 152.431 31.3537V29.4533C152.305 29.4704 152.178 29.4704 152.087 29.4704C151.489 29.4704 151.145 29.2308 151.145 28.272V19.1641H148.861V28.5973Z" fill="#49504F"/>
<path d="M154.553 28.1179C154.553 31.0455 157.109 31.405 158.396 31.405C158.704 31.405 158.922 31.3708 159.103 31.3537V29.4533C158.922 29.4876 158.813 29.4876 158.686 29.4876C158.052 29.4876 156.855 29.2821 156.855 27.844V24.4371H158.958V22.708H156.855V20.2084H154.608V22.708H153.357V24.4371H154.553V28.1179Z" fill="#49504F"/>
<path d="M160.666 25.1905C160.666 28.7686 163.276 31.525 167.318 31.525C169.62 31.525 171.27 30.6176 172.375 29.5562L171.143 27.964C170.164 28.8714 168.787 29.5048 167.409 29.5048C164.618 29.5048 163.077 27.4333 163.077 25.1563C163.077 22.9135 164.563 20.9789 167.391 20.9789C168.642 20.9789 170.001 21.5268 170.907 22.2629L172.031 20.6194C170.78 19.4723 168.968 18.9587 167.282 18.9587C163.403 18.9587 160.666 21.6637 160.666 25.1905Z" fill="#49504F"/>
<path d="M173.351 28.9056C173.351 30.4978 174.728 31.525 176.396 31.525C177.647 31.525 178.752 30.8744 179.314 29.9499H179.351C179.351 29.9499 179.296 30.2239 179.296 30.5834V31.3195H181.435V25.8582C181.435 23.6497 180.003 22.3828 177.592 22.3828C176.215 22.3828 174.728 22.8793 173.967 23.4614L174.819 25.0193C175.562 24.5399 176.487 24.1804 177.393 24.1804C178.354 24.1804 179.133 24.5742 179.133 25.7212V25.8411H178.734C176.686 25.8411 173.351 26.2862 173.351 28.9056ZM175.635 28.7173C175.635 27.4846 177.592 27.3305 178.752 27.3305H179.151V27.5702C179.151 28.6317 178.317 29.8643 177.03 29.8643C176.106 29.8643 175.635 29.2994 175.635 28.7173Z" fill="#49504F"/>
<path d="M183.793 31.3195H186.095V27.7928C186.095 26.1492 186.929 24.6084 188.814 24.6084C189.013 24.6084 189.285 24.6255 189.376 24.6427V22.5026C189.231 22.4855 189.086 22.4684 188.941 22.4684C187.545 22.4684 186.421 23.4956 186.005 24.7283H185.968C185.968 24.7283 186.005 24.4543 186.005 24.129V22.5882H183.793V31.3195Z" fill="#49504F"/>
<path d="M190.259 26.9539C190.259 29.4363 192.18 31.525 195.243 31.525C196.566 31.525 198.016 31.0627 198.959 30.2752L198.053 28.7173C197.31 29.2822 196.349 29.676 195.406 29.676C194.011 29.676 192.778 28.8885 192.633 27.3648H198.995C199.031 27.0908 199.068 26.7998 199.068 26.5259C199.068 24.2147 197.618 22.3828 194.971 22.3828C192.198 22.3828 190.259 24.266 190.259 26.9539ZM192.687 25.8753C192.905 24.7625 193.739 24.0263 194.917 24.0263C195.95 24.0263 196.748 24.7111 196.766 25.8753H192.687Z" fill="#49504F"/>
</svg>
