<svg width="120" height="24" viewBox="0 0 120 24" fill="none" xmlns="http://www.w3.org/2000/svg">
<path d="M11.4111 3.36295L8.98689 8.2241L8.47942 8.29635L4.64338 8.848L3.56329 9.0027C3.02496 9.0809 2.80894 9.73625 3.19898 10.1128L7.12331 13.8962L7.03587 14.396L6.3801 18.181L6.19666 19.2384C6.12379 19.6583 6.46154 20 6.84471 20C6.94672 20 7.05044 19.9762 7.15074 19.9235L12.0009 17.4016L16.851 19.9235C16.9513 19.9762 17.055 20 17.157 20C17.5393 20 17.8771 19.6583 17.8051 19.2384L17.6208 18.181L16.9641 14.3968L16.8767 13.8962L20.801 10.1128C21.1911 9.73625 20.975 9.0809 20.4367 9.0027L19.3592 8.848L15.5232 8.29635L15.014 8.2241L12.5898 3.36295C12.4698 3.12155 12.2349 3 12.0009 3C11.7668 3 11.532 3.12155 11.4111 3.36295Z" fill="#FFCE2B"/>
<path d="M35.4111 3.36295L32.9869 8.2241L32.4794 8.29635L28.6434 8.848L27.5633 9.0027C27.025 9.0809 26.8089 9.73625 27.199 10.1128L31.1233 13.8962L31.0359 14.396L30.3801 18.181L30.1967 19.2384C30.1238 19.6583 30.4615 20 30.8447 20C30.9467 20 31.0504 19.9762 31.1507 19.9235L36.0009 17.4016L40.851 19.9235C40.9513 19.9762 41.055 20 41.157 20C41.5393 20 41.8771 19.6583 41.8051 19.2384L41.6208 18.181L40.9641 14.3968L40.8767 13.8962L44.801 10.1128C45.1911 9.73625 44.975 9.0809 44.4367 9.0027L43.3592 8.848L39.5232 8.29635L39.014 8.2241L36.5898 3.36295C36.4698 3.12155 36.2349 3 36.0009 3C35.7668 3 35.532 3.12155 35.4111 3.36295Z" fill="#FFCE2B"/>
<path d="M59.4111 3.36295L56.9869 8.2241L56.4794 8.29635L52.6434 8.848L51.5633 9.0027C51.025 9.0809 50.8089 9.73625 51.199 10.1128L55.1233 13.8962L55.0359 14.396L54.3801 18.181L54.1967 19.2384C54.1238 19.6583 54.4615 20 54.8447 20C54.9467 20 55.0504 19.9762 55.1507 19.9235L60.0009 17.4016L64.851 19.9235C64.9513 19.9762 65.055 20 65.157 20C65.5393 20 65.8771 19.6583 65.8051 19.2384L65.6208 18.181L64.9641 14.3968L64.8767 13.8962L68.801 10.1128C69.1911 9.73625 68.975 9.0809 68.4367 9.0027L67.3592 8.848L63.5232 8.29635L63.014 8.2241L60.5898 3.36295C60.4698 3.12155 60.2349 3 60.0009 3C59.7668 3 59.532 3.12155 59.4111 3.36295Z" fill="#FFCE2B"/>
<path d="M83.4111 3.36295L80.9869 8.2241L80.4794 8.29635L76.6434 8.848L75.5633 9.0027C75.025 9.0809 74.8089 9.73625 75.199 10.1128L79.1233 13.8962L79.0359 14.396L78.3801 18.181L78.1967 19.2384C78.1238 19.6583 78.4615 20 78.8447 20C78.9467 20 79.0504 19.9762 79.1507 19.9235L84.0009 17.4016L88.851 19.9235C88.9513 19.9762 89.055 20 89.157 20C89.5393 20 89.8771 19.6583 89.8051 19.2384L89.6208 18.181L88.9641 14.3968L88.8767 13.8962L92.801 10.1128C93.1911 9.73625 92.975 9.0809 92.4367 9.0027L91.3592 8.848L87.5232 8.29635L87.014 8.2241L84.5898 3.36295C84.4698 3.12155 84.2349 3 84.0009 3C83.7668 3 83.532 3.12155 83.4111 3.36295Z" fill="#FFCE2B"/>
<path d="M107.411 3.36295L104.987 8.2241L104.479 8.29635L100.643 8.848L99.5633 9.0027C99.025 9.0809 98.8089 9.73625 99.199 10.1128L103.123 13.8962L103.036 14.396L102.38 18.181L102.197 19.2384C102.124 19.6583 102.462 20 102.845 20C102.947 20 103.05 19.9762 103.151 19.9235L108.001 17.4016L112.851 19.9235C112.951 19.9762 113.055 20 113.157 20C113.539 20 113.877 19.6583 113.805 19.2384L113.621 18.181L112.964 14.3968L112.877 13.8962L116.801 10.1128C117.191 9.73625 116.975 9.0809 116.437 9.0027L115.359 8.848L111.523 8.29635L111.014 8.2241L108.59 3.36295C108.47 3.12155 108.235 3 108.001 3C107.767 3 107.532 3.12155 107.411 3.36295Z" fill="#FFCE2B"/>
</svg>
