<svg width="64" height="64" viewBox="0 0 64 64" fill="none" xmlns="http://www.w3.org/2000/svg">
<g clip-path="url(#clip0)">
<path d="M48.4349 10.1441C42.3225 10.1441 36.68 8.1332 32.1324 4.73708C27.5846 8.1332 21.9421 10.1441 15.8298 10.1441C13.8193 10.1441 11.8603 9.92458 9.97363 9.5117L11.911 35.7641C12.4414 42.9513 16.351 49.4603 22.4466 53.3048L32.1321 59.4135L41.8533 53.3196C47.9965 49.4686 51.9321 42.9163 52.4461 35.6841L54.3064 9.50833C52.4151 9.92333 50.451 10.1441 48.4349 10.1441Z" fill="#7ECFC5"/>
<path d="M48.4351 10.144C47.2571 10.144 46.0969 10.0686 44.9583 9.92371L43.4769 30.7681C42.9629 38.0003 39.0273 44.5526 32.8841 48.4036L23.7522 54.1281L32.1324 59.4135L41.8536 53.3196C47.9968 49.4686 51.9324 42.9162 52.4464 35.6841L54.3067 9.50833C52.4153 9.92333 50.4512 10.144 48.4351 10.144Z" fill="#00BBB0"/>
<path d="M33.1533 63.7056C32.5252 64.0994 31.7271 64.0982 31.1001 63.7027L20.2178 56.8392C13.0323 52.3074 8.36906 44.5437 7.74393 36.0714L5.52093 5.95083C5.45768 5.09308 6.23793 4.41633 7.07806 4.60008L10.8672 5.42921C12.4921 5.78483 14.1618 5.96508 15.8299 5.96508C20.8502 5.96508 25.6229 4.38258 29.6321 1.3887L30.9784 0.383329C31.6629 -0.127797 32.6021 -0.127797 33.2864 0.383329L34.6328 1.3887C38.6421 4.38258 43.4147 5.96508 48.4351 5.96508C50.1081 5.96508 51.7822 5.78383 53.4109 5.42646L57.1913 4.59671C58.0303 4.41258 58.8104 5.08696 58.7496 5.94371L56.6149 35.98C56.0087 44.5115 51.3202 52.3172 44.0733 56.8601L33.1533 63.7056ZM15.0829 14.3141C14.7798 14.3068 14.5369 14.5631 14.5593 14.8655L16.0789 35.4563C16.5098 41.2956 19.7238 46.6466 24.6763 49.7701L31.5923 54.1321C31.9267 54.343 32.3524 54.3436 32.6874 54.1336L39.6343 49.7789C44.6291 46.6479 47.8604 41.268 48.2783 35.3878L49.7369 14.8635C49.7584 14.5615 49.5157 14.306 49.2129 14.3135C48.9537 14.3198 48.6944 14.3231 48.4352 14.3231C42.7957 14.3231 37.3836 12.8552 32.5941 10.0507C32.3084 9.88346 31.9569 9.88346 31.6713 10.0507C26.8817 12.8552 21.4697 14.3231 15.8302 14.3231C15.5809 14.323 15.3319 14.32 15.0829 14.3141Z" fill="#D2E7F4"/>
<path d="M57.1915 4.59684L55.1437 5.04634L53.0952 33.8707C52.489 42.4022 47.8005 50.208 40.5536 54.7509L28.6938 62.1852L31.1001 63.7029C31.7271 64.0984 32.5253 64.0995 33.1533 63.7057L44.0734 56.8605C51.3202 52.3176 56.0087 44.5119 56.615 35.9804L58.7496 5.94409C58.8106 5.08709 58.0304 4.41271 57.1915 4.59684Z" fill="#B0BAD3"/>
<path d="M40.9109 28.9041C40.9109 30.8711 40.2637 32.687 39.1707 34.1505C37.5706 36.293 35.0147 36.3205 32.1351 36.3205C29.2555 36.3205 26.6996 36.293 25.0995 34.1505C24.0065 32.6871 23.3594 30.8711 23.3594 28.9041C23.3594 24.0573 27.2885 20.1282 32.1352 20.1282C36.982 20.1282 40.9109 24.0572 40.9109 28.9041Z" fill="#ECF4FF"/>
<path d="M32.1347 31.6087C34.1213 31.6087 35.7318 29.9982 35.7318 28.0116C35.7318 26.0249 34.1213 24.4144 32.1347 24.4144C30.1481 24.4144 28.5376 26.0249 28.5376 28.0116C28.5376 29.9982 30.1481 31.6087 32.1347 31.6087Z" fill="#5B5D6E"/>
<path d="M34.2037 31.1026H30.0662C27.8979 31.1026 26.0202 32.3419 25.0994 34.1503C26.6995 36.2928 29.2552 37.6799 32.135 37.6799C35.0147 37.6799 37.5703 36.2928 39.1706 34.1503C38.2497 32.3421 36.3721 31.1026 34.2037 31.1026Z" fill="#5B5D6E"/>
</g>
<defs>
<clipPath id="clip0">
<rect width="64" height="64" fill="white"/>
</clipPath>
</defs>
</svg>
