<svg width="64" height="64" viewBox="0 0 64 64" fill="none" xmlns="http://www.w3.org/2000/svg">
<g clip-path="url(#clip0)">
<path d="M51.3158 25.3683L47.4526 44.6841L51.3158 64H55.179V25.3683H51.3158Z" fill="#808080"/>
<path d="M47.453 25.3683L41.0144 44.6841L47.453 64H51.3162V25.3683H47.453Z" fill="#9F9F9F"/>
<path d="M32.0001 0L29.4246 2.89738L32.0001 5.79475C37.3339 5.79475 41.6581 10.1187 41.6581 15.4528C41.6581 20.7868 41.6581 29.2314 41.6581 29.2314H47.4528V15.4528C47.4528 6.9185 40.5343 0 32.0001 0Z" fill="#808080"/>
<path d="M16.5474 15.4528V29.2314H22.3421C22.3421 29.2314 22.3421 20.7866 22.3421 15.4528C22.3421 10.1189 26.6662 5.79475 32.0001 5.79475V0C23.4659 0 16.5474 6.9185 16.5474 15.4528Z" fill="#9F9F9F"/>
<path d="M16.547 25.3683L10.1084 44.6841L16.547 64H47.4525V25.3683H16.547Z" fill="#DBDBDB"/>
<path d="M16.5474 25.3683H8.82104V64H16.5474V25.3683Z" fill="#BFBFBF"/>
<path d="M31.9998 36.9577C29.8662 36.9577 28.1367 38.6872 28.1367 40.8209C28.1367 42.2505 28.914 43.4979 30.0683 44.166V50.4789C30.0683 51.5456 30.9332 52.4105 32 52.4105C33.0667 52.4105 33.9316 51.5456 33.9316 50.4789V44.166C35.086 43.4979 35.8632 42.2506 35.8632 40.8209C35.863 38.6872 34.1335 36.9577 31.9998 36.9577Z" fill="#696969"/>
</g>
<defs>
<clipPath id="clip0">
<rect width="64" height="64" fill="white"/>
</clipPath>
</defs>
</svg>
