<svg width="56" height="56" viewBox="0 0 56 56" fill="none" xmlns="http://www.w3.org/2000/svg">
<g clip-path="url(#clip0)">
<path d="M34.8636 28.0987C40.3534 30.7209 47.1273 29.7596 51.6742 25.2126C57.442 19.4449 57.442 10.0936 51.6743 4.32579L48.1005 7.71893C48.1316 7.74781 48.1627 7.77657 48.1929 7.80676C49.6349 9.24876 49.6349 11.5865 48.1929 13.0285C46.7509 14.4705 44.4131 14.4705 42.9713 13.0285C42.8953 12.9526 42.8242 12.8737 42.7563 12.7931L0 53.3891V56H12.184V50.7783H17.4058V45.5566H22.6275V40.3349H27.8492V35.1132L34.8636 28.0987Z" fill="#748993"/>
<path d="M14.7948 42.946H20.0165V37.7243H25.2382V32.5026L42.1883 15.5526C44.5777 17.1355 47.8285 16.8746 49.9336 14.7695C52.0388 12.6643 52.2996 9.41369 50.7169 7.02417L52.5082 5.23283C52.2448 4.9221 51.9672 4.61913 51.6741 4.326C45.9064 -1.44167 36.5551 -1.44167 30.7873 4.326C26.2403 8.87305 25.2789 15.6469 27.9012 21.1367L0 49.038V53.3893H9.57316V48.1677H14.7949L14.7948 42.946ZM42.9714 7.80708C44.4134 6.36508 46.7511 6.36508 48.193 7.80708C49.635 9.24908 49.635 11.5869 48.193 13.0289C46.751 14.4709 44.4132 14.4709 42.9714 13.0289C41.5294 11.587 41.5294 9.24908 42.9714 7.80708Z" fill="#A2B1B7"/>
</g>
<defs>
<clipPath id="clip0">
<rect width="56" height="56" fill="white"/>
</clipPath>
</defs>
</svg>
