<svg width="64" height="64" viewBox="0 0 64 64" fill="none" xmlns="http://www.w3.org/2000/svg">
<path d="M54.5354 33.875L54.5339 33.8916C57.1034 34.0888 59.128 36.2453 59.128 38.8762C59.128 40.2557 58.5697 41.5056 57.6677 42.4107C56.7657 43.3157 55.52 43.8759 54.1437 43.8759H54.0191C56.2989 43.8759 58.148 45.7313 58.148 48.0188C58.148 49.1633 57.6857 50.1994 56.9383 50.9478C56.1909 51.6978 55.1583 52.1616 54.0191 52.1616H52.2991C53.3782 52.1616 54.3538 52.5998 55.0607 53.3091C55.7834 54.0342 56.2236 55.0425 56.2038 56.1539C56.1652 58.3042 54.3552 60 52.2118 60H50.2101H35.6367C34.2784 60 32.9487 59.729 31.7195 59.2184C30.4888 58.7064 29.3586 57.9535 28.3981 56.9912C28.0319 56.6237 27.5351 56.4174 27.0173 56.4174H19.2473L9.04297 56.0816V27.6886H19.2473H23.2869C23.7717 27.6886 24.2366 27.4954 24.5794 27.1513L34.3835 17.3125C34.8097 16.8863 35.0484 16.3066 35.0484 15.7027V6.61434C35.0484 5.17015 36.2161 4.00003 37.6539 4.00003H40.462C41.2274 4.00003 41.9794 4.15213 42.6743 4.44127C43.3677 4.73041 44.007 5.15509 44.5488 5.69873C45.6325 6.78602 46.2418 8.26184 46.2418 9.7994V19.5172C46.2418 20.1693 46.0602 20.8093 45.7195 21.365L44.5865 23.202C44.4057 23.4953 44.6159 23.8739 44.9596 23.8739H54.9153C57.6401 23.8739 59.9373 26.026 59.9988 28.7595C60.031 30.1862 59.4669 31.4809 58.5399 32.4111C57.6378 33.3161 56.3921 33.8748 55.0158 33.8748H54.5354V33.875Z" fill="#FED3A7"/>
<path d="M55.4703 53.7914C54.8242 54.2269 54.0451 54.4822 53.2162 54.4822H51.2144H36.641C35.2827 54.4822 33.953 54.2111 32.7237 53.7006C31.493 53.1886 30.3629 52.4356 29.4023 51.4733C29.0361 51.1059 28.5393 50.8996 28.0215 50.8996H20.2516L10.0472 50.5637V50.4845H9.04346V56.0815L19.2478 56.4173H27.0178C27.5356 56.4173 28.0324 56.6236 28.3986 56.9911C29.3591 57.9534 30.4893 58.7063 31.72 59.2184C32.9492 59.7289 34.2789 59.9999 35.6372 59.9999H50.2106H52.2123C54.3557 59.9999 56.1659 58.3041 56.2043 56.1538C56.2202 55.2713 55.9457 54.4537 55.4703 53.7914Z" fill="#FFBE8A"/>
<path d="M19.2472 28.9912V55.1147C19.2472 56.9685 17.7494 58.4714 15.9018 58.4714H7.34542C5.49786 58.4714 4 56.9685 4 55.1147V28.9912C4 27.1374 5.49786 25.6344 7.34542 25.6344H15.9018C17.7494 25.6344 19.2472 27.1374 19.2472 28.9912Z" fill="#C7CFE2"/>
<path d="M4 50.755V55.1147C4 56.9685 5.49786 58.4714 7.34542 58.4714H15.9018C17.7494 58.4714 19.2472 56.9685 19.2472 55.1147V50.755H4Z" fill="#B0BAD3"/>
<path d="M11.624 53.7814C13.0495 53.7814 14.205 52.622 14.205 51.1917C14.205 49.7614 13.0495 48.6019 11.624 48.6019C10.1985 48.6019 9.04297 49.7614 9.04297 51.1917C9.04297 52.622 10.1985 53.7814 11.624 53.7814Z" fill="#FDEA84"/>
<path d="M9.04297 51.1916C9.04297 52.6218 10.1985 53.7812 11.624 53.7812C13.0495 53.7812 14.205 52.6218 14.205 51.1916C14.205 51.0425 14.1897 50.8972 14.1656 50.755H9.08244C9.05843 50.8972 9.04297 51.0425 9.04297 51.1916Z" fill="#FDE044"/>
<path d="M11.6232 44.6973C11.0014 44.6973 10.4976 44.1916 10.4976 43.5679V30.9431C10.4976 30.3194 11.0014 29.8137 11.6232 29.8137C12.245 29.8137 12.7489 30.3194 12.7489 30.9431V43.5679C12.7489 44.1918 12.2449 44.6973 11.6232 44.6973Z" fill="#B0BAD3"/>
</svg>
