<svg width="24" height="16" viewBox="0 0 24 16" fill="none" xmlns="http://www.w3.org/2000/svg">
<rect width="24" height="16" fill="#E5E5E5"/>
<rect width="409" height="554" transform="translate(-30 -30)" fill="white"/>
<mask id="mask0" mask-type="alpha" maskUnits="userSpaceOnUse" x="0" y="0" width="24" height="16">
<rect x="0.5" y="0.5" width="23" height="15" fill="white" stroke="#E5E5E5"/>
</mask>
<g mask="url(#mask0)">
<path d="M24 0H0V16H24V0Z" fill="#EE343C"/>
<path fill-rule="evenodd" clip-rule="evenodd" d="M10.692 3.20008C10.042 2.55008 8.46493 3.88342 9.07872 4.19031C9.68687 4.49439 10.8572 4.80061 10.8572 5.65096C10.8572 7.03572 8.38662 5.55854 7.93586 5.33317C7.34445 5.03746 6.00602 6.08253 6.793 6.47602C7.07893 6.61899 8.8076 7.20781 8.10301 7.67753C7.89807 7.81416 6.66716 8.4701 7.42164 8.621C7.69032 8.67473 9.94782 8.90439 9.25175 9.42644C9.06266 9.56826 7.2014 10.7938 8.00001 10.7938C8.34902 10.7938 10.9667 10.058 10.5449 10.6908C9.98275 11.534 9.77605 11.9367 10.8578 11.9367C11.5132 11.9367 11.6552 12.6165 11.8192 13.1085C11.9191 13.4081 12.0795 13.4126 12.1808 13.1085C12.3447 12.6169 12.4871 11.9367 13.1423 11.9367C14.2234 11.9367 14.0171 11.5337 13.4552 10.6908C13.0322 10.0564 15.6495 10.7938 16 10.7938C16.7948 10.7938 14.9354 9.56681 14.7483 9.42644C14.0481 8.90129 16.3039 8.67589 16.5784 8.621C17.3296 8.47076 16.0987 7.81196 15.897 7.67753C15.1924 7.20779 16.9211 6.619 17.207 6.47602C17.9437 6.10768 16.6975 5.01648 16.0642 5.33317C15.6136 5.55847 13.1429 7.03578 13.1429 5.65096C13.1429 4.68191 15.185 4.25691 15.4286 3.93667C15.6722 3.61644 13.9277 2.5804 13.308 3.20008C12.1079 4.40024 11.8177 4.32579 10.692 3.20008Z" fill="#262626"/>
</g>
</svg>
