<svg width="24" height="16" viewBox="0 0 24 16" fill="none" xmlns="http://www.w3.org/2000/svg">
<rect width="24" height="16" fill="#E5E5E5"/>
<rect width="409" height="554" transform="translate(-30 -126)" fill="white"/>
<mask id="mask0" mask-type="alpha" maskUnits="userSpaceOnUse" x="0" y="0" width="24" height="16">
<rect x="0.5" y="0.5" width="23" height="15" fill="white" stroke="#E5E5E5"/>
</mask>
<g mask="url(#mask0)">
<path d="M24 0H0V16H24V0Z" fill="#F1361D"/>
<path fill-rule="evenodd" clip-rule="evenodd" d="M10.1294 4.48292L9.49996 4.86599L9.517 4.12937L9.13394 3.49996L9.87055 3.517L10.5 3.13394L10.4829 3.87055L10.866 4.49996L10.1294 4.48292ZM8.28078 2.44936L7.55444 2.32553L8.05056 1.78078L8.17439 1.05444L8.71915 1.55057L9.44548 1.67439L8.94936 2.21915L8.82553 2.94548L8.28078 2.44936ZM8.64615 8.97811L8.03049 9.38291L8.02181 8.64615L7.61701 8.03049L8.35378 8.02181L8.96943 7.61701L8.97811 8.35378L9.38291 8.96943L8.64615 8.97811ZM9.91314 6.99237L9.18081 7.07354L9.50756 6.41314L9.42639 5.68081L10.0868 6.00756L10.8191 5.92639L10.4924 6.58679L10.5735 7.31911L9.91314 6.99237Z" fill="#FFDC42"/>
<path fill-rule="evenodd" clip-rule="evenodd" d="M4.9999 6.17L3.23654 7.42705L3.88716 5.36155L2.14673 4.07295L4.31219 4.05345L4.9999 2L5.68761 4.05345L7.85307 4.07295L6.11263 5.36155L6.76325 7.42705L4.9999 6.17Z" fill="#FFDC42"/>
</g>
</svg>
