<svg width="24" height="16" viewBox="0 0 24 16" fill="none" xmlns="http://www.w3.org/2000/svg">
<rect width="24" height="16" fill="#E5E5E5"/>
<rect width="409" height="554" transform="translate(-30 -156)" fill="white"/>
<rect x="0.25" y="0.25" width="23.5" height="15.5" fill="white"/>
<mask id="mask0" mask-type="alpha" maskUnits="userSpaceOnUse" x="0" y="0" width="24" height="16">
<rect x="0.5" y="0.5" width="23" height="15" fill="white" stroke="#E5E5E5"/>
</mask>
<g mask="url(#mask0)">
<path d="M24 0H0V5H24V0Z" fill="#FF202D"/>
<path d="M11.5 5H10.5V6H11.5V5Z" fill="#FE1A27"/>
<path d="M9.5 6V7H10.5V6H9.5Z" fill="#FE1A27"/>
<path d="M9.5 8V9H10.5V8H9.5Z" fill="#FE1A27"/>
<path d="M13.5 5H12.5V6H13.5V5Z" fill="#FE1A27"/>
<path d="M13.5 11L14.5 10H13.5V11Z" fill="#FE1A27"/>
<path d="M11.5 11H12.5V10H11.5V11Z" fill="#FE1A27"/>
<path fill-rule="evenodd" clip-rule="evenodd" d="M13.5 7H14.5V6H13.5V7ZM13.5 8V7H12.5V6H11.5V7H10.5V8H11.5V9H10.5V10H11.5V9H12.5V10H13.5V9H14.5V8H13.5ZM12.5 8H11.5V7H12.5V8ZM12.5 8H13.5V9H12.5V8Z" fill="#FE1A27"/>
<path d="M10.5 10H9.5L10.5 11V10Z" fill="#FE1A27"/>
<path fill-rule="evenodd" clip-rule="evenodd" d="M10 3L10.5 3.5V4.5H9.5V3.5L10 3Z" fill="#1895DB"/>
<path fill-rule="evenodd" clip-rule="evenodd" d="M12 3L12.5 3.5V4.5H11.5V3.5L12 3Z" fill="#1895DB"/>
<path fill-rule="evenodd" clip-rule="evenodd" d="M14 3L14.5 3.5V4.5H13.5V3.5L14 3Z" fill="#1895DB"/>
<path opacity="0.8" fill-rule="evenodd" clip-rule="evenodd" d="M13 3L13.5 3.5V4.5H12.5V3.5L13 3Z" fill="#2200AB"/>
<path opacity="0.8" fill-rule="evenodd" clip-rule="evenodd" d="M11 3L11.5 3.5V4.5H10.5V3.5L11 3Z" fill="#2200AB"/>
<path d="M24 11H0V16H24V11Z" fill="#2027AC"/>
</g>
<rect x="0.25" y="0.25" width="23.5" height="15.5" stroke="#DBDBDB" stroke-width="0.5"/>
</svg>
