<svg width="24" height="16" viewBox="0 0 24 16" fill="none" xmlns="http://www.w3.org/2000/svg">
<rect width="24" height="16" fill="#E5E5E5"/>
<rect width="409" height="554" transform="translate(-30 -316)" fill="white"/>
<path d="M23.9995 0.00012207H0V16H23.9995V0.00012207Z" fill="#F0F0F0"/>
<path d="M13.4997 0H10.4998V6.49983H0V9.49977H10.4998V15.9996H13.4997V9.49977H23.9995V6.49983H13.4997V0Z" fill="#D80027"/>
<path d="M18.4584 10.7823L23.9996 13.8608V10.7823H18.4584Z" fill="#0052B4"/>
<path d="M14.6085 10.7823L23.9996 15.9996V14.5243L17.2641 10.7823H14.6085Z" fill="#0052B4"/>
<path d="M21.4982 15.9996L14.6085 12.1716V15.9996H21.4982Z" fill="#0052B4"/>
<path d="M14.6085 10.7823L23.9996 15.9996V14.5243L17.2641 10.7823H14.6085Z" fill="#F0F0F0"/>
<path d="M14.6085 10.7823L23.9996 15.9996V14.5243L17.2641 10.7823H14.6085Z" fill="#D80027"/>
<path d="M4.23464 10.7822L0 13.1348V10.7822H4.23464Z" fill="#0052B4"/>
<path d="M9.39113 11.4457V15.9995H1.19489L9.39113 11.4457Z" fill="#0052B4"/>
<path d="M6.73547 10.7823L0 14.5243V15.9996L9.39111 10.7823H6.73547Z" fill="#D80027"/>
<path d="M5.54121 5.21717L0 2.13867V5.21717H5.54121Z" fill="#0052B4"/>
<path d="M9.39111 5.21726L0 0V1.47531L6.73547 5.21726H9.39111Z" fill="#0052B4"/>
<path d="M2.50146 0L9.3911 3.82792V0H2.50146Z" fill="#0052B4"/>
<path d="M9.39111 5.21726L0 0V1.47531L6.73547 5.21726H9.39111Z" fill="#F0F0F0"/>
<path d="M9.39111 5.21726L0 0V1.47531L6.73547 5.21726H9.39111Z" fill="#D80027"/>
<path d="M19.765 5.21735L23.9997 2.86475V5.21735H19.765Z" fill="#0052B4"/>
<path d="M14.6085 4.55385V0H22.8047L14.6085 4.55385Z" fill="#0052B4"/>
<path d="M17.2641 5.21726L23.9996 1.47531V0L14.6085 5.21726H17.2641Z" fill="#D80027"/>
</svg>
