<svg width="24" height="16" viewBox="0 0 24 16" fill="none" xmlns="http://www.w3.org/2000/svg">
<rect width="24" height="16" fill="#E5E5E5"/>
<rect width="409" height="554" transform="translate(-240 -474)" fill="white"/>
<rect x="0.25" y="0.25" width="23.5" height="15.5" fill="white"/>
<mask id="mask0" mask-type="alpha" maskUnits="userSpaceOnUse" x="0" y="0" width="24" height="16">
<rect x="0.5" y="0.5" width="23" height="15" fill="white" stroke="#E5E5E5"/>
</mask>
<g mask="url(#mask0)">
<path d="M24 0H0V5H24V0Z" fill="#FFA44A"/>
<path d="M24 11H0V16H24V11Z" fill="#1A9F0B"/>
<path d="M12 10C13.1046 10 14 9.10457 14 8C14 6.89543 13.1046 6 12 6C10.8954 6 10 6.89543 10 8C10 9.10457 10.8954 10 12 10Z" fill="#181A93" fill-opacity="0.15" stroke="#181A93" stroke-width="0.666667"/>
<path d="M12 9C12.5523 9 13 8.55228 13 8C13 7.44772 12.5523 7 12 7C11.4477 7 11 7.44772 11 8C11 8.55228 11.4477 9 12 9Z" fill="#181A93"/>
</g>
<rect x="0.25" y="0.25" width="23.5" height="15.5" stroke="#DBDBDB" stroke-width="0.5"/>
</svg>
