<svg width="24" height="16" viewBox="0 0 24 16" fill="none" xmlns="http://www.w3.org/2000/svg">
<rect width="24" height="16" fill="#E5E5E5"/>
<rect width="409" height="554" transform="translate(-240 -188)" fill="white"/>
<rect x="0.5" y="0.5" width="23" height="15" fill="white" stroke="#E5E5E5"/>
<path d="M24 0H0V16H24V0Z" fill="#FF2936"/>
<path d="M8 0H0V16H8V0Z" fill="#128415"/>
<path d="M9 7H7V8C7 8.55228 7.44772 9 8 9C8.55228 9 9 8.55228 9 8V7Z" fill="white"/>
<path d="M8 10.5C9.38071 10.5 10.5 9.38071 10.5 8C10.5 6.61929 9.38071 5.5 8 5.5C6.61929 5.5 5.5 6.61929 5.5 8C5.5 9.38071 6.61929 10.5 8 10.5Z" stroke="#FAF94F"/>
</svg>
