<svg width="24" height="16" viewBox="0 0 24 16" fill="none" xmlns="http://www.w3.org/2000/svg">
<rect width="24" height="16" fill="#E5E5E5"/>
<rect width="409" height="554" transform="translate(-240 -284)" fill="white"/>
<rect x="0.25" y="0.25" width="23.5" height="15.5" fill="white"/>
<mask id="mask0" mask-type="alpha" maskUnits="userSpaceOnUse" x="0" y="0" width="24" height="16">
<rect x="0.5" y="0.5" width="23" height="15" fill="white" stroke="#E5E5E5"/>
</mask>
<g mask="url(#mask0)">
<path d="M24 5H0V10H24V5Z" fill="#17508F"/>
<path d="M24 0H0V5H24V0Z" fill="#E1444D"/>
<path d="M4.5 9V5.5H7.5V9C7.5 9.82843 6.82843 10.5 6 10.5C5.17157 10.5 4.5 9.82843 4.5 9Z" fill="#FDA1A6" stroke="#E1444D"/>
<path d="M6.5 6.5L5.5 9" stroke="white" stroke-width="0.5" stroke-linecap="round"/>
<path d="M5.5 6.5L6.5 9" stroke="white" stroke-width="0.5" stroke-linecap="round"/>
<path d="M8 4L7 5H5L4 4L6 3L8 4Z" fill="#D3D800"/>
</g>
<rect x="0.25" y="0.25" width="23.5" height="15.5" stroke="#DBDBDB" stroke-width="0.5"/>
</svg>
