<svg width="24" height="16" viewBox="0 0 24 16" fill="none" xmlns="http://www.w3.org/2000/svg">
<rect width="24" height="16" fill="#E5E5E5"/>
<rect width="409" height="554" transform="translate(-240 -316)" fill="white"/>
<rect x="0.25" y="0.25" width="23.5" height="15.5" fill="white"/>
<mask id="mask0" mask-type="alpha" maskUnits="userSpaceOnUse" x="0" y="0" width="24" height="16">
<rect x="0.5" y="0.5" width="23" height="15" fill="white" stroke="#E5E5E5"/>
</mask>
<g mask="url(#mask0)">
<path d="M24 6H0V11H24V6Z" fill="#0C47B7"/>
<path d="M24 11H0V16H24V11Z" fill="#E53B35"/>
<path d="M4.5 5V8.58579C4.5 8.98361 4.65804 9.36514 4.93934 9.64645L6.43934 11.1464C7.02513 11.7322 7.97487 11.7322 8.56066 11.1464L10.0607 9.64645C10.342 9.36514 10.5 8.98361 10.5 8.58579V5C10.5 4.17157 9.82843 3.5 9 3.5H6C5.17157 3.5 4.5 4.17157 4.5 5Z" fill="#E53B35" stroke="white"/>
<path d="M7.5 5.5V10.5" stroke="white" stroke-linecap="round"/>
<path d="M8.5 6.5H6.5M9 8.5H6" stroke="white" stroke-linecap="round"/>
<path d="M9 10H6L6.79289 10.7929C7.18342 11.1834 7.81658 11.1834 8.20711 10.7929L9 10Z" fill="#0C47B7"/>
</g>
<rect x="0.25" y="0.25" width="23.5" height="15.5" stroke="#DBDBDB" stroke-width="0.5"/>
</svg>
