<svg width="24" height="16" viewBox="0 0 24 16" fill="none" xmlns="http://www.w3.org/2000/svg">
<rect width="24" height="16" fill="#E5E5E5"/>
<rect width="409" height="554" transform="translate(-240 -348)" fill="white"/>
<mask id="mask0" mask-type="alpha" maskUnits="userSpaceOnUse" x="0" y="0" width="24" height="16">
<rect x="0.5" y="0.5" width="23" height="15" fill="white" stroke="#E5E5E5"/>
</mask>
<g mask="url(#mask0)">
<path d="M22.2857 0H1.71429C0.767512 0 0 0.716344 0 1.6V14.4C0 15.2837 0.767512 16 1.71429 16H22.2857C23.2325 16 24 15.2837 24 14.4V1.6C24 0.716344 23.2325 0 22.2857 0Z" fill="white"/>
<path d="M24 0H0V16H24V0Z" fill="#DD172C"/>
<path d="M24 4H0V12H24V4Z" fill="#FFD133"/>
<path d="M3 9.5V6.5C3 6.22386 2.77614 6 2.5 6C2.22386 6 2 6.22386 2 6.5V9.5C2 9.77614 2.22386 10 2.5 10C2.77614 10 3 9.77614 3 9.5Z" fill="#A41517"/>
<path d="M7 9.5V6.5C7 6.22386 6.77614 6 6.5 6C6.22386 6 6 6.22386 6 6.5V9.5C6 9.77614 6.22386 10 6.5 10C6.77614 10 7 9.77614 7 9.5Z" fill="#A41517"/>
<path d="M3.5 7H5.5V9C5.5 9.55228 5.05228 10 4.5 10C3.94772 10 3.5 9.55228 3.5 9V7Z" fill="#A41517"/>
<path d="M3.5 5.5H5.5C5.5 6.05228 5.05228 6.5 4.5 6.5C3.94772 6.5 3.5 6.05228 3.5 5.5Z" fill="#A41517"/>
</g>
</svg>
