<svg width="24" height="16" viewBox="0 0 24 16" fill="none" xmlns="http://www.w3.org/2000/svg">
<rect width="24" height="16" fill="#E5E5E5"/>
<rect width="409" height="554" transform="translate(-240 -410)" fill="white"/>
<mask id="mask0" mask-type="alpha" maskUnits="userSpaceOnUse" x="0" y="0" width="24" height="16">
<rect x="0.5" y="0.5" width="23" height="15" fill="white" stroke="#E5E5E5"/>
</mask>
<g mask="url(#mask0)">
<path d="M24 0H0V16H24V0Z" fill="#E92434"/>
<path fill-rule="evenodd" clip-rule="evenodd" d="M14.8411 8.86288L13.9396 10.1173L13.9184 8.52819L12.4698 7.98777L13.9136 7.51909L13.9199 5.93069L14.8334 7.23011L16.2859 6.78885L15.4066 8.06062L16.298 9.3763L14.8411 8.86288Z" fill="white"/>
<path fill-rule="evenodd" clip-rule="evenodd" d="M10.0297 3C11.6434 3 13.0796 3.75543 13.9999 4.92996C13.2898 4.41679 12.3968 4.11111 11.4269 4.11111C9.11199 4.11111 7.23543 5.85223 7.23543 8C7.23543 10.1478 9.11199 11.8889 11.4269 11.8889C12.3968 11.8889 13.2898 11.5832 14 11.07C13.0796 12.2446 11.6434 13 10.0297 13C7.25188 13 5 10.7614 5 8C5 5.23858 7.25188 3 10.0297 3Z" fill="white"/>
</g>
</svg>
